<svg width="1400" height="1139" viewBox="0 0 1400 1139" fill="none" xmlns="http://www.w3.org/2000/svg">
<path d="M475.66 716.869L471.28 720.349L467.25 727.78L464.83 732.4L460.02 739.169L453.94 745.219L448.98 749.219L445.9 750.48L442.49 750.879L435.85 752.57L430.69 748.049L430.56 747.389L431.13 747.269L438.17 734.709L438.1 727.169L433.25 715.4L436.54 706.36L428.79 706.769L421.58 711.449L417.32 707.379L410.86 702.809L406.73 695.659L411.56 689.629L420.27 674.759L424.33 669.499L407.1 659.15L405.8 655.23L409.21 650.94L413.58 653.389V659.009L420.98 657.28L416 648.179L402.43 641.619L392.78 637.769L382.46 639.539L370.89 632.599L365.12 617.709L366.37 617.219L385.85 603.739L396.96 601.639V599.289L402.89 595.309L403.87 590.809L404.64 578.969L399.96 559.989L406.22 556.019L413.16 557.669L415.74 562.439L423.11 557.069L430.65 552.729L433.12 547.229L427.47 540.089L422.92 522.649L430.35 513.189L441.48 509.849L442.4 501.629L448.72 492.679L456.08 487.309L460.19 477.519L466.59 476.609L472.86 479.299L475.81 487.139L474.52 492.459L478.31 499.789L480.15 514.319L481.4 526.789L485.17 536.729L498.7 543.939L506.03 557.969L516.16 560.309L529.41 563.839L532.7 572.179L536.68 578.98L535.34 593.769L537.97 602.989L539.76 612.389L539.53 622.309L545.41 635.61L549.69 641.739L555.35 650.929L566.87 655.28L583.56 660.509L592.8 670.809L595.42 682.879L596.26 688.709L601.59 691.999L605.88 694.639L608.22 704.539L600.25 714.44L598.69 730.059L595.19 739.86L590.43 742.409L583.42 742.509L578.17 744.549L572.25 743.019L565.4 743.959L563.84 740.629L564.29 737.919L567.49 730.509L570.09 729.78L568.94 719.679L568.89 717.489L571.04 711.959L568.21 701.809L567.87 697.849L566.46 694.919L560.22 690.589L551.34 689.179L545.31 686.86L541.27 686.949L538.71 685.82L533.66 686.019L530.32 687.19L530.21 689.559L526.05 692.009L523.78 692.48L524.41 698.039L524.09 705.809L518.22 710.919L516.75 712.98L509.1 717.289L506.92 717.339L495.79 717.079L492.8 715.209L488.71 712.94L487.14 717.959L485.14 718.839L481.82 717.4L480.96 720.209L479.05 717.629L475.66 716.869Z" fill="#FDFCEA"/>
</svg>
