<svg width="1400" height="1139" viewBox="0 0 1400 1139" fill="none" xmlns="http://www.w3.org/2000/svg">
<path d="M352.87 719.461L360.01 724.982L349.67 728.411L349.24 728.891L344.93 725.061L335.45 716.631L330.16 711.711L326.5 704.201L323.5 700.501L320.2 694.341L310.87 687.782L298.42 694.192L289.92 702.991L281.64 701.351L269.23 692.551L262.61 688.161L243.44 681.072L222.67 671.692L202.17 659.541L197.44 654.581L196.39 651.822L197.26 648.291L203.36 637.831L205.77 626.692L211.23 617.402L215.08 614.631L225.61 605.822L238.46 607.931L247.77 615.362L262.51 616.271L274.42 621.101L281.89 620.021L289.88 622.041L297.33 624.711L303.39 614.671L310.45 611.791L319.95 615.761L327.65 616.851L334.05 615.282L341.43 615.782L347.31 613.681L364.89 617.121L365.12 617.711L370.89 632.601L382.46 639.541L392.78 637.771L402.43 641.621L416 648.181L420.98 657.282L413.58 659.011V653.391L409.21 650.942L405.8 655.232L407.1 659.152L407.36 659.931L399.96 662.271L402.4 667.282L394.33 671.671L392.1 677.282L384.9 679.931L379.65 684.732L370.22 687.491L373.82 692.902L360.01 695.961L350.87 710.051L350.19 714.341L352.87 719.461Z" fill="#FDFCEA"/>
</svg>
