<svg width="1400" height="1139" viewBox="0 0 1400 1139" fill="none" xmlns="http://www.w3.org/2000/svg">
<path d="M321.92 891.221L319.91 883.721L318.18 876.402L314.37 869.831L307.02 865.631L303.24 876.801L288.06 871.851L282.02 859.822L272.73 858.692L264.88 850.551L271.22 839.381L278.79 839.121L286.4 826.581L277.72 809.241L285.1 801.711L270.88 797.101L267.46 793.911L267.47 793.902L272.33 784.301L269.03 776.491L275.37 774.381L283.72 777.451L285.57 764.431L289.04 754.532L285.36 747.141L285.73 740.652L292.08 734.951L308.92 743.601L321.03 748.121L330.95 745.982L338.88 735.751L342.35 730.112L344.54 725.491L344.93 725.061L349.24 728.891L349.67 728.411L360.01 724.982L352.87 719.461L350.19 714.341L350.87 710.051L360.01 695.961L373.82 692.902L370.22 687.491L379.65 684.732L384.9 679.931L392.1 677.282L394.33 671.671L402.4 667.282L399.96 662.271L407.36 659.931L407.1 659.152L424.33 669.501L420.27 674.761L411.56 689.631L406.73 695.661L410.86 702.811L417.32 707.381L421.58 711.451L428.79 706.771L436.54 706.362L433.25 715.402L438.1 727.171L438.17 734.711L431.13 747.271L430.56 747.391L429.83 743.771L427.64 740.112L424.92 737.381L423.13 734.561L419.06 733.482L414.29 731.061L411.41 730.461L406.89 728.371L401.6 728.761L398.28 730.532L386.6 741.782L384.68 745.801L384.08 748.601L384.76 752.381L386.35 755.291L388.57 759.791L391.83 762.501L390.29 768.282L390.93 770.201L395.28 774.141L398.34 780.991L402.17 786.211L401.76 789.851L397.06 803.891L395.31 807.982L390.97 815.942L388.16 821.241L384.66 822.591L382.38 825.351L381.79 828.991L373.92 836.951L373.38 841.942L370.33 844.211L368.65 847.541L365.58 849.311L362.97 852.501L360.74 857.362L352.91 869.711L350.97 872.341L347.26 875.591L343.55 881.511L338.94 884.921L334.6 889.251L332.58 889.041L331.13 891.701L326.97 896.362L325.01 901.732L322.85 899.251L321.91 899.741L321.81 899.541L321.92 891.221Z" fill="#FDFCEA"/>
</svg>
