<svg width="1400" height="1139" viewBox="0 0 1400 1139" fill="none" xmlns="http://www.w3.org/2000/svg">
<path d="M144.53 354.901L153.42 353.131L157.48 352.321L159.47 349.041L163.77 345.691L170.39 342.751L173.84 342.191L178.27 343.221L177.12 334.541L176.81 332.201L179.23 327.751L179.14 324.531L183.74 315.191L183.41 311.741L179.03 303.801L177.1 301.701L177.62 296.281L179.87 291.831L179.46 289.391L176.57 289.301L175.15 286.981L175.2 283.091L174.35 282.541L174.24 281.941L172.57 281.021L171.18 275.951L170 273.281L167.09 271.381L165.32 267.771L161.44 262.591L160.59 257.311L160.87 250.391L160.07 246.731L161.01 244.081L161.12 243.791L161.16 243.811L178.36 249.151L185.95 247.621L199.44 254.241L213.42 251.801L222.74 249.361L232.33 247.401L237.71 250.631L243.4 250.511L244.74 261.731L257.7 268.511L257.69 268.531L268.55 273.961L274.29 274.941L277.39 275.681L274.12 285.231L263.38 289.961L261.56 303.611L261.93 314.061L257.01 324.221L253.34 331.771L250.83 345.161L250.7 354.001L240.64 360.981L240.42 361.281L242.64 370.171L244.76 374.491L244.68 374.531L242.38 376.131L236.69 379.181L219.7 373.321L214.69 372.681L210.78 380.221L205.82 382.871L201.54 388.791L200.12 395.221L198.7 393.711L196.55 392.671L192.07 392.881L188.32 391.971L185.65 390.361L178.77 389.871L175.59 388.271L173.67 386.301L172.47 382.621L170.54 380.401L168.48 379.441L167.81 376.671L166.74 377.861L165.96 377.151L163.83 378.641L162.46 376.231L159.22 375.151L157.12 372.311L155.6 367.651L152.29 361.501L147.58 356.821L144.53 354.901Z" fill="#FDFCEA"/>
</svg>
