<svg width="1400" height="1139" viewBox="0 0 1400 1139" fill="none" xmlns="http://www.w3.org/2000/svg">
<path d="M699.11 294.191L707.519 296.241L718.36 293.251L722.5 302.401L722.719 313.151L726.87 321.111L743.08 322.751L738.44 339.061L733.269 349.451L741.44 353.001L761.41 361.391L761.559 374.291L774 377.491L781.38 377.071L792.5 385.741L802.8 387.841L813.42 390.521L821.559 390.761L830.559 396.681L837.179 400.211L846.4 403.551L852.29 394.271L856.99 394.611L866.7 395.301L879.75 394.591L886.04 399.971L888.61 403.291L884.33 412.271L874.71 414.621L868.5 423.631L858.36 424.931L862.65 434.501L867.28 442.151L858.41 441.601L850.61 443.481L843.809 445.961L836.69 449.911L827.82 448.031L819.63 447.571L811.12 449.471L812.98 459.901L799.309 460.891L800.71 456.591L802.349 445.421L798.44 435.541L786.67 432.011L785.03 440.621L775.349 443.581L771.55 451.391L755.25 443.281L753.87 423.501L743.65 422.791L735.96 420.201L723.04 416.261L720.61 415.951L716.429 419.421L709.24 416.461L705.059 416.971L695.43 422.181L687.07 417.271L677.83 415.641L675.79 415.951L662.05 411.971L649.48 403.691L642.25 390.231L643.66 380.131L649.63 370.831L646.05 352.381L654.42 345.811L657.28 332.491L665.95 324.321L672.33 318.421L677.6 315.891L669.24 309.291L670.71 301.661L683.11 299.471L691.5 293.451L691.54 293.141L699.11 294.191Z" fill="#FDFCEA"/>
</svg>
