<svg width="1400" height="1139" viewBox="0 0 1400 1139" fill="none" xmlns="http://www.w3.org/2000/svg">
<path d="M137.93 478.752L139.92 477.302L141.36 480.252L143.91 480.772L143.84 479.912L144.39 479.832L143.64 477.322L146.1 474.662L146.11 474.652L147.44 474.172L147.42 473.882L148.26 473.392L147.27 471.132L150.3 468.072L152.93 467.932L153.35 465.222L157.66 461.972L159.36 461.272L161.31 462.632L161.99 461.372L162.38 461.422L166.2 459.032L167.02 458.172L168.19 457.622L169.65 455.392L169.84 453.102L172.72 453.272L172.85 452.152L173.36 451.992L172.93 451.502L173.03 450.652L171.34 449.022L171.55 448.392L174.65 446.802L175.68 444.502L175.21 443.942L175.31 443.412L174.91 440.432L177.31 439.382L180.25 441.412L181.07 440.992L181.77 441.292L185.17 438.912L190.5 439.022L193.08 437.592L195.72 434.902L196.82 431.832L197.67 429.112L198.53 426.482V426.472L200.18 424.992L199.62 424.702L200.06 423.982L198.03 423.862L196.98 419.842L200.26 416.042L201.26 412.552L202.63 409.982L201.29 407.572L199.71 406.602L199.67 406.012L202.83 405.072L205.33 403.402L203.82 400.992L203.5 398.812L200.12 395.222L201.54 388.792L205.82 382.872L210.78 380.222L214.69 372.682L219.7 373.322L236.69 379.182L242.38 376.132L244.68 374.532L244.76 374.492L249.88 384.942L275.67 389.992L289.77 399.552L289.94 399.302L310.21 409.732L310.32 409.522L324.7 413.522L324.61 413.852L311.74 417.262L301.52 417.092L303.11 426.962L301.57 434.142L296.36 437.952L289.28 435.632L276.3 436.492L270.87 432.092L259.43 432.062L254.15 446.392L246.63 451.142L241.84 460.252L239.81 469.472L237.53 476.852L233.17 479.282L226.64 477.162L217.24 475.252L208.28 483.602L201.31 492.692L204.61 504.292L198.11 514.162L202.69 524.002L204.25 532.482L202.86 545.602L205.61 550.542L218.19 559.332L220.08 562.392L220.49 569.232L217.24 580.382L218.68 588.422L225.19 598.462L225.61 605.823L207.82 598.092L192.61 595.832L177.65 600.233L167.81 595.352L145.69 588.233L148.51 583.932L151.63 582.682L157.9 580.172L160.34 577.912L161.79 576.562L163.06 573.122L164.12 570.252L165.49 564.372L167.47 555.922L168.66 545.252L169.07 541.642L167.29 533.232L166.99 529.712L167.8 523.202L163.8 523.062L161.16 517.892L157.82 514.732L151.97 511.152L149.94 503.372L148.26 496.922L146.01 494.812L142.64 495.072L139.37 493.232L136.32 493.062L129.38 489.722L126.24 489.552L126.23 490.802L126.2 493.692L124.07 493.422L121 492.242L120.76 492.882L119.66 492.702L118.62 497.292L113.88 497.432L110.79 498.782L111.31 495.522L114.02 493.712L114.01 492.592L114.66 492.252L114 490.082L116.04 487.742L117.72 485.482L119.65 486.792L120.24 485.982L120.91 486.332L125.67 478.512L128.6 477.752L131.9 480.612L134.52 480.542L137.93 478.752Z" fill="#FDFCEA"/>
</svg>
