<svg width="1400" height="1139" viewBox="0 0 1400 1139" fill="none" xmlns="http://www.w3.org/2000/svg">
<path d="M1119.29 624.91L1094.9 646.34L1090.57 635.941L1095.03 627.691L1091.12 624.47L1079.83 625.09L1066.63 624.37L1061.15 614.11L1054.4 613.83L1045.61 609.71L1046.48 600.31C1045.56 599.031 1043.86 598.741 1042.33 598.401L1043.2 578.09L1044.13 572.41L1047.48 565.62L1047.7 557.73L1042.72 547.66L1032.47 542.06L1023.14 531.71L1012.83 528.5C1010.5 526.57 1009.19 522.92 1007.93 520.99L1004.48 512.88L1007.12 503.81L1014.4 494.87L1024.82 498.83L1033.15 502.16L1045.77 502.25L1059.91 506.99L1067.72 512.35L1071.8 509.88L1070.72 502.6L1066.89 496.37L1056.47 487.68L1058.43 475.72L1064.83 473.65L1067.55 474.54L1069.85 476.11L1072.37 474.73L1072.09 472.54L1072.29 470.62L1072.76 466.12L1068.54 465.09L1066.22 463.67L1071.1 461.84L1074.33 463.4L1075.96 465.56L1079.35 472.2L1083.02 474.43L1086.06 473.8L1088.06 478.33L1090.37 478.95L1094.2 481.97L1096.24 482.87L1099.96 483.25L1103.75 482.78L1111.11 482.86L1113.21 482.16L1116.41 481.1L1118.49 479.31L1119.06 476.51L1116.49 474.27L1117.22 471.47L1126.27 471.79L1129.59 467.02L1133.05 466.05L1135.61 467.79L1139.56 466.4L1142.44 466.19L1148.38 467.9L1161.74 475.93L1165.76 479.6L1168.38 480.03L1174.71 478.48L1183.91 484.54L1188.31 484.26L1190.33 484.14L1195.42 486.36L1199.82 487.07L1200.5 487.74L1191.11 497.32L1179.98 498.1L1178.1 513.25L1179.01 520.64L1182.41 535.05C1187.14 544.48 1185.99 548.71 1185.63 552.48L1176.92 555.14L1173.3 559.62L1166.04 565.82L1163.75 573.16L1161.41 580.93L1151.89 580.22L1147.13 579.09L1145.1 588.81C1145.24 591.361 1144.1 599.031 1144.66 602.38L1137.72 600.941L1129.49 600.701L1128.56 608.751L1119.29 624.91Z" fill="#FDFCEA"/>
</svg>
