<svg width="1400" height="1139" viewBox="0 0 1400 1139" fill="none" xmlns="http://www.w3.org/2000/svg">
<path d="M569.88 342.761L560.62 344.211L557.3 344.041L557.38 342.551L563.04 336.281C564.44 333.611 562.95 327.871 562.94 325.191L565.56 318.331L564.81 311.141L568.05 298.621L577.76 295.641L580.82 288.901L582.34 285.561L581.82 285.321L582.9 268.891L589.09 264.221L593.04 274.741L598.79 274.581L593.25 236.251L600.43 237.751L608.25 239.571L612.94 235.411L617.97 234.691L621.41 238.411L626.46 238.501L628.89 234.581L635.23 234.021L637.36 231.671L644 230.671L649.68 229.971L656.56 230.531L656.67 230.411L660.66 234.161L663.84 236.381L675.55 240.371L682.44 241.171L685.74 240.341L691.86 241.071L696.85 244.181L699.3 243.881L704.38 245.411L709.83 248.151L713.48 248.001L716.29 248.621L724.6 248.461L730.941 247.081L735.241 245.731L738.621 244.491L741.201 242.251L742.981 237.231L744.47 235.651L744.691 255.371L739.72 264.131L715.39 275.811L701.84 274.141L701.52 288.851L707.52 296.241L699.11 294.191L691.54 293.141L691.12 293.081L689.43 286.681L678.03 283.311L672.97 283.361L669.04 279.281L658.66 272.971L649.16 280.401L654.79 287.101L648.3 289.781L640.55 288.721L635.03 279.261L626.46 273.291L616.33 287.091L624.07 299.071L619.94 308.111L620.66 312.721L615.66 318.411L617.46 325.961L613.67 337.251C611.57 341.551 604.5 343.321 603.33 347.621L604.43 357.491L605.1 357.731C605.14 358.611 606.22 362.441 604.77 363.441C602.49 365.011 596.79 363.011 596.13 361.931C594.45 359.161 596.79 349.021 595.65 348.641L588.71 345.021L580.01 349.441L569.88 342.761Z" fill="#FDFCEA"/>
</svg>
