<svg width="1400" height="1139" viewBox="0 0 1400 1139" fill="none" xmlns="http://www.w3.org/2000/svg">
<path d="M127.88 613.24L132.82 611.599L135.34 612.28L136.13 611.13L137.3 610.97L138.69 607.441L138.08 603.461L141.45 590.131L145.16 589.021L145.68 588.242V588.232H145.69L167.81 595.351L177.65 600.232L192.61 595.832L207.82 598.092L225.61 605.822L215.08 614.632L211.23 617.403L205.77 626.693L203.36 637.833L197.26 648.293L196.39 651.823L197.44 654.583L202.17 659.543L222.67 671.693L243.44 681.073L262.61 688.163L269.23 692.553L281.64 701.353L289.92 702.994L298.42 694.194L310.87 687.784L320.2 694.344L323.5 700.504L326.5 704.204L330.16 711.714L335.45 716.634L344.93 725.064L344.54 725.495L342.35 730.115L338.88 735.755L330.95 745.985L321.03 748.125L308.92 743.604L292.08 734.955L285.73 740.655L285.36 747.144L289.04 754.535L285.57 764.434L283.72 777.455L275.37 774.385L269.03 776.495L272.33 784.305L267.47 793.906L267.46 793.916L262.53 789.306L254.23 785.956L244.51 774.266L233.82 769.5L225.05 772.14C222.12 769.84 218.05 772.51 213.63 767.821C210.69 764.701 214.04 763.961 211.02 759.56L190.13 751.531L170.24 732.781L174.68 724.731L177.5 719.621L155.7 710.391L144.77 705.761L140.15 702.561L137.19 698.591L130.95 696.621L126.41 687.691L119.88 684.331L115.78 682.221L104.91 676.631L103.44 666.902L109.81 665.051L112.83 662.881L112.73 659.381L108.77 655.091L86.72 631.171L84.68 629.732L84.27 624.252L82.96 622.292L79.71 621.012L77.33 617.462L75.05 616.282L70.83 617.162L68.78 615.222L70.69 612.412L75.42 611.771L78.11 609.952L81.95 604.842L85.69 604.572L88.96 605.382L95.11 609.382L95.57 609.682L98.32 609.852L102.73 606.733L105.98 606.882L112.88 612.672L115.41 613.602L115.98 613.153L119.31 610.493L127.88 613.24Z" fill="#FDFCEA"/>
</svg>
