<svg width="1400" height="1139" viewBox="0 0 1400 1139" fill="none" xmlns="http://www.w3.org/2000/svg">
<path d="M1219.32 766.5L1214.64 769.59L1213.27 767.33L1215.27 765.96L1215.5 763.67L1209.69 763.06L1209.31 766.27L1208.25 769.831L1207.12 766.801L1207.59 763.171L1206.62 759.551L1201.77 751.442L1199.25 747.232L1196.48 739.832L1193.64 734.882L1189.03 728.352L1186.55 724.842L1183.54 719.392L1176.13 711.882L1174.04 706.412L1164.8 700.952L1158 698.482L1158.13 698.122L1162.52 689.802L1163.01 683.172L1164.42 680.152L1166.41 668.061L1175.26 653.021L1174.46 641.221L1155.7 620.591L1153.71 609.911L1145.74 603.231L1145.86 602.63L1144.66 602.38C1144.1 599.03 1145.24 591.36 1145.1 588.81L1147.13 579.09L1151.89 580.22L1161.41 580.93L1163.75 573.16L1166.04 565.82L1173.3 559.62L1176.92 555.14L1185.63 552.48C1185.99 548.71 1187.14 544.48 1182.41 535.05L1179.01 520.64L1178.1 513.25L1179.98 498.1L1191.11 497.32L1200.5 487.74L1203.29 490.52L1207.14 491.72L1211.05 493.37L1220.16 499.85L1224.09 503.27L1226.2 503.67L1230.49 509.45L1233.21 511.11L1242.5 519.12L1248.92 527.75L1256.86 535.77L1259.08 538.45L1261.63 539.69L1263.93 542.29L1268.02 545.37L1277.83 555.99L1282.76 559.32L1285.79 557.86L1292.45 566.07L1296.52 568.31L1299.17 571.41L1305.77 573.29L1307.96 573.35L1310.19 576.96L1313.06 579.84L1316.14 581.64L1318.62 585.92L1324.99 589.75L1327.99 595.46L1333.52 600.981L1336.56 600.361L1340.18 600.501L1343.92 602.831L1347.18 605.791L1349.41 607.821L1356.51 615.64L1357.77 621.611L1354.8 633.631L1351.55 637.201L1348.14 643.56L1343.48 649.581L1342.26 655.161L1337.92 660.431L1333.98 662.322L1332.77 668.072L1328.62 675.782L1321.25 681.422L1316.02 688.552L1314.15 696.412L1314.73 703.832L1313.76 708.311L1309.79 716.282L1307.87 718.572L1304.67 718.851L1301.24 720.662L1290.27 717.891L1282.33 715.181L1279.38 715.291L1276.67 712.781L1268.2 708.47L1262.78 704.81L1260.52 704.51L1255.26 710.2L1256.47 714.07L1260.75 721.29L1258.47 728.31L1253.58 734.01L1251.31 736.651L1249.74 739.201L1247.4 752.231L1246.48 757.371L1247.63 764.281L1246.74 766.901L1242.44 765.34L1238.16 766.231L1235.69 766.081L1230 767.491L1224.96 767.631L1219.32 766.5Z" fill="#FDFCEA"/>
</svg>
