<svg width="1400" height="1139" viewBox="0 0 1400 1139" fill="none" xmlns="http://www.w3.org/2000/svg">
<path d="M1158.13 698.121L1158 698.482L1156.68 698.001L1151.13 698.572L1149.59 696.232L1146.64 695.921L1143.92 694.351L1139.63 694.402L1136.48 691.911L1133.7 692.032L1130.2 695.192L1128.03 696.311L1115.33 697.732L1105.93 700.211L1096.16 700.331L1091.01 699.471L1089.24 699.341L1091.17 684.561L1087.55 677.152L1079.7 665.371L1084.4 658.072L1094.9 646.341L1119.29 624.911L1128.56 608.751L1129.49 600.701L1137.72 600.942L1144.66 602.381L1145.86 602.631L1145.74 603.232L1153.71 609.911L1155.7 620.591L1174.46 641.221L1175.26 653.021L1166.41 668.061L1164.42 680.152L1163.01 683.171L1162.52 689.801L1158.13 698.121Z" fill="#FDFCEA"/>
</svg>
