<svg width="1400" height="1139" viewBox="0 0 1400 1139" fill="none" xmlns="http://www.w3.org/2000/svg">
<path d="M443 463.63L442.06 463.7L441.96 462.43L443.06 448.73L448.29 444.43L468.12 441.66L475.81 440.76L488.48 425.89L498.69 425.77L513.78 415.88C515.13 414.79 515.23 403.36 515.84 402.42L520.68 401.96L526.42 407.78L536.18 410.64L535.79 404.51L533.17 401.96L534.04 397.98L531.51 392.16L534.72 387.67L533.46 379.4L534.88 375.22L535.13 368.23L536.24 360.2L540.67 354.65L549.8 343.66L557.3 344.04L560.62 344.21L569.88 342.76L580.01 349.44L588.71 345.02L595.65 348.64C596.79 349.02 594.45 359.16 596.13 361.93C596.79 363.01 602.49 365.01 604.77 363.44C606.22 362.44 605.14 358.61 605.1 357.73L609.55 359.29L614.18 365.25L618.72 367.33L623.44 382.69L625.22 391.82L642.25 390.23L649.48 403.69L662.05 411.97L675.79 415.95L671.51 422.18L656.33 428.62L652.36 435.5L651.44 444.41L642.08 452.36L638.84 455.44L638.34 454.91L630.95 447.22L625.05 438.12L622.3 431.92L614.57 434.65L605.8 438.33L599.99 445.04L591.95 440.24L581.95 444.1L582.16 455.41L591.39 471.55L585.49 481.37L581.04 487.91L576.77 495.8L573.56 502.47L566.04 511.87L574.68 524.14L574.8 531.85L574.04 540.37L581.36 544.95L579.03 548.39L582.23 563.08L582.96 567.69L576.79 574.76L567.57 579.63L564.42 584.28L566.19 592.139L560.47 591.73L545.31 588.36L535.34 593.769L536.68 578.98L532.7 572.179L529.41 563.839L516.16 560.309L506.03 557.969L498.7 543.939L485.17 536.729L481.4 526.789L480.15 514.319L478.31 499.789L474.52 492.459L475.81 487.139L472.86 479.299L466.59 476.609L460.19 477.519L460.26 468.449L450.78 464.939L443 463.63Z" fill="#FDFCEA"/>
</svg>
