<svg width="1400" height="1139" viewBox="0 0 1400 1139" fill="none" xmlns="http://www.w3.org/2000/svg">
<path d="M813.05 286.8L816.16 290.29L815.48 292.82L813.57 297.51L810.53 297.9L809.73 300.61L812.769 299.8L814.03 301.89L813.809 310.84L815.46 317.56L823.34 331.78L824.8 337.66L828.57 343.63L834.83 349.22L836.07 352.41L838.139 354.4L840.51 359.34L847.41 366.65L851.95 369.61L854.25 370.08L858.03 373.14L858.349 373.18L858.34 373.27L856.059 381.77L856.99 394.61L852.29 394.27L846.4 403.55L837.179 400.21L830.559 396.68L821.559 390.76L813.42 390.52L802.8 387.84L792.5 385.74L781.38 377.07L774 377.49L761.559 374.29L761.41 361.39L741.44 353L733.269 349.45L738.44 339.06L743.08 322.75L726.87 321.11L722.719 313.15L722.5 302.4L718.36 293.25L707.519 296.24L701.519 288.85L701.84 274.14L715.389 275.81L739.719 264.13L744.69 255.37L744.469 235.65L748.719 231.14L752.17 229.55L757.33 228.53L759.69 227.73L762.73 226.58L765.21 227.8L769.79 227.55L775.62 225.75L779.58 225.85L785.34 227.94L788.58 228.82L792.45 231.36L793 233.89L795.429 236.8L798.57 236.41L801.23 238.39L804.13 239.18L807.99 245.78L810.59 248.94L810.83 252.74L810.639 256.45L806.639 265.38L807.28 267.65L807.059 269.6L804.84 274.03L804.59 278.76L805.75 281.69L809.63 285.67L813.05 286.8Z" fill="#FDFCEA"/>
</svg>
