<svg width="1400" height="1139" viewBox="0 0 1400 1139" fill="none" xmlns="http://www.w3.org/2000/svg">
<path d="M156.98 219.362L162.2 217.782L164.06 220.342L167 222.372L170.16 222.872L168.09 218.712L165.44 218.362L166 214.292L165.69 212.192L164.39 208.512L166.07 204.832L163.2 205.512L161.1 203.202L160.95 201.102L160.26 197.822L157.77 196.882L158.45 191.042L156.29 189.662L152.47 192.732L149.81 197.872L147.57 193.082L148.49 190.392L154.51 184.062L157.01 182.552L158.99 180.382L160.5 176.632L163.39 176.712L167.47 176.772L170.83 175.412L175.33 172.162L176.94 169.072L179.43 170.022L181.64 169.872L188.69 163.762L190.92 161.592L192.14 156.492L191.02 153.062L189.33 150.242L189.86 148.112L192.64 147.362L196.36 149.542L200.08 154.582L203.76 152.542L204.56 150.582L204.24 148.562L208.19 146.682L215.26 144.042L217.98 144.052L221.55 144.582L225.4 144.772L228.67 143.082L231.47 143.002L235.99 143.392L242.33 145.242L247.91 144.002L251.08 144.672L264.68 150.812L267.13 153.192L271.5 154.512L279.42 158.022L285.9 159.612L290.53 163.472L296.41 164.162L299 165.532L305.99 166.192L308.05 167.072L312.02 165.872L317.06 166.842L319.95 166.762L322.02 171.272L325.11 171.782L327.16 172.742L333.18 172.342L338.65 171.762L340.42 183.162L349.92 187.532L361.27 191.882L361.94 206.602L357.01 218.962L360.81 227.482L366.79 233.932L365.19 241.992L360.89 247.822L356.5 249.422L359.18 263.262L359.99 273.252L356.01 279.422L356.13 280.532L355.97 280.552L348.17 275.642L338.98 280.842C334.9 282.212 330.81 278.812 326.73 279.262L319.44 271.562L310.29 275.262L299.37 279.142L286.13 277.752L277.39 275.682L274.29 274.942L268.55 273.962L257.69 268.532L257.7 268.512L244.74 261.732L243.4 250.512L237.71 250.632L232.33 247.402L222.74 249.362L213.42 251.802L199.44 254.242L185.95 247.622L178.36 249.152L161.16 243.812L161.12 243.792L161.17 243.642L161.36 241.522L162.9 238.952L163.26 236.912L162.59 234.062L157.51 229.652L156.25 226.462L156.05 225.462L155.52 221.852L155.02 220.122L156.98 219.362Z" fill="#FDFCEA"/>
</svg>
