<svg width="1400" height="1139" viewBox="0 0 1400 1139" fill="none" xmlns="http://www.w3.org/2000/svg">
<path d="M160.01 792.292L157.25 792.542L155.91 790.042L153.61 788.932L152.85 786.082L152.08 785.542L151.81 784.932L148.82 783.243L147.05 780.682L151.14 771.852L152.14 765.153L155.61 761.722L156 758.613L166.55 739.472L167.74 737.312L170.24 732.783L190.13 751.533L211.02 759.562C214.04 763.962 210.69 764.703 213.63 767.823C218.05 772.512 222.12 769.843 225.05 772.142L233.82 769.502L244.51 774.262L254.23 785.952L262.53 789.302L267.46 793.912L270.88 797.101L285.1 801.711L277.72 809.241L286.4 826.581L278.79 839.121L271.22 839.381L264.88 850.551L272.73 858.692L282.02 859.822L288.06 871.851L303.24 876.801L307.02 865.631L314.37 869.831L318.18 876.401L319.91 883.72L321.92 891.22L321.81 899.54L321.91 899.74L320.61 900.41L320.27 906.57L319.25 909.13L314.73 909.84L312.58 911.08L310.46 913.33L299.92 934.1L300.07 936.731L298.97 939.281L297.65 946.401L292.41 957.671L292.8 959.942L292.2 962.402L289.63 966.612L286.51 969.391L284.3 974.511L281.77 977.811L280.34 983.391L278.74 986.051L275.9 986.461L273.47 989.811L269.55 984.181L266.47 981.732L264.14 976.311L259.6 972.811L255.31 966.582L253.36 962.092L252.04 956.562L248.23 949.243L245.37 945.943L244.11 942.602L241.44 940.052L236.31 936.742L227.95 932.322L216.67 930.442L201.12 932.391L195.06 934.751L191.22 935.541L185.79 933.241L183.55 931.871L180.67 930.1L185.31 928.281L189.16 924.881L192.51 915.761L198.13 915.431L199.65 912.942L201.19 907.752L200.93 904.642L199.31 900.712L196.37 897.672L191.43 886.082L186.65 883.432L184.82 881.122L188.77 878.311L191.41 873.681L191.89 869.791L188.86 863.631L187.96 858.331L186.11 855.431L181.72 851.841L176.36 846.431L170.49 843.982L165.95 838.032L163.29 836.082L158.78 834.271L156.08 833.921L157.46 831.942L157.98 829.732L160.66 826.452L161.3 822.462L163.21 818.612L163.96 815.551L163.08 811.192L163.35 808.732L160.72 808.131L159.98 805.791L159.62 801.921L160.57 797.081L160.01 792.292Z" fill="#FDFCEA"/>
</svg>
