<svg width="1400" height="1139" viewBox="0 0 1400 1139" fill="none" xmlns="http://www.w3.org/2000/svg">
<path d="M565.4 743.961L572.25 743.021L578.17 744.551L583.42 742.511L590.43 742.411L595.19 739.862L598.69 730.061L600.25 714.442L608.22 704.541L605.88 694.641L601.59 692.001L601.72 691.791L608.53 680.232L621.4 678.061L640.32 668.671L648.35 660.311L648.57 660.921L657.37 663.072L667.43 672.741L677.99 682.741L683.45 688.171L683.34 693.991L673.87 694.721L671.39 702.451L677.77 708.931L680.5 711.471L685.41 713.141L689.05 722.181L694.89 731.371L701.389 740.221L705.519 747.541L709.62 759.121L704.86 759.862L702.67 759.652L698.34 757.801L696.16 758.011L691.43 761.391L688.68 762.621L680.01 758.322L674.67 756.402L670.13 756.491L666.08 758.402L659.27 760.591L653.14 761.221L648.57 759.961L643.02 759.741L638.94 757.961L635.48 757.532L630.61 757.961L625.94 760.081L622.25 760.581L619.59 761.902L616.86 764.411L613.12 766.341L598.47 772.141L594.43 773.741L592.41 773.862L589.31 770.381L587.01 769.001H582.72L576.36 770.581L573.75 770.381L571.75 767.551L575.1 762.841L577.16 761.112L579.6 761.141L578.42 764.791L581.4 766.591L588.88 765.751L591.04 764.862L590.63 761.501L587.48 759.711L584.12 760.032L576.54 751.671L569.68 749.621L567.78 747.641L565.4 743.961Z" fill="#FDFCEA"/>
</svg>
