<svg width="1400" height="1139" viewBox="0 0 1400 1139" fill="none" xmlns="http://www.w3.org/2000/svg">
<path d="M373.74 162.631L376.4 160.541L379.1 159.461L385.21 159.221L392.13 153.651L393.01 151.521L392.17 148.331L393.21 146.031L395.89 144.361L399.96 140.551L406.6 137.011L412.01 135.781L423.59 136.271L431.5 140.041L438.92 144.431L436.08 146.351L435.26 148.201L440.43 147.011L441.94 149.511L444.83 149.611L444.27 147.431L441.41 145.131L443.36 141.451L453.38 144.511L459.68 144.791L463.11 145.801L466.82 145.111L471.57 144.091L474.79 143.591L477.63 145.221L478.32 149.091L481.1 151.721L484.45 153.001L491.84 160.261L493.35 162.591L494.67 164.921L496.93 167.071L496.14 169.581L498.23 171.511L501.24 169.421L509.56 168.981L511.63 170.201L513.13 172.691L515.64 174.831L519.85 177.071L524.09 180.221L523.73 182.671L526.85 182.011L532.01 184.501L536.24 187.381L539.16 188.831L542.11 191.721L547.41 193.131L548.41 195.981L550.98 196.771L553.3 194.271L557.88 197.711L562.15 198.801L566.31 198.541L570.86 196.281L574.31 195.591L578.05 199.391L583.22 198.691L586.55 199.721L588.48 194.361L592.21 190.231L594.98 188.741L597.77 188.001L606.37 188.841L608.39 188.121L611.54 188.391L614.98 190.431L618.8 193.991L624.65 197.581L626.42 200.751L630.57 200.251L635.61 205.801L640.72 214.811L643.12 220.001L646.62 222.291L654.42 228.291L656.67 230.411L656.56 230.531L649.68 229.971L644 230.671L637.36 231.671L635.23 234.021L628.89 234.581L626.46 238.501L621.41 238.411L617.97 234.691L612.94 235.411L608.25 239.571L600.43 237.751L593.25 236.251L598.79 274.581L593.04 274.741L589.09 264.221L582.9 268.891L581.82 285.321L582.34 285.561L580.82 288.901L567.42 279.671L554.98 277.271L545.95 271.461L549.27 262.501L549.51 253.771L543.88 248.341L534.76 247.821L528.43 241.461L521.74 243.571L521.54 257.531C520.07 261.861 512.52 259.291 510.05 261.721L502.78 255.191L485.64 244.691L472.56 241.271L459.54 238.551L459 238.501L452.67 237.871V237.831L433.4 225.421L421.76 216.171L398.43 214.331L392.85 205.431L376.08 200.881L361.27 191.881L349.92 187.531L340.42 183.161L338.65 171.761L344.75 169.261L346.69 164.911L347.71 158.801L356 163.741L358.88 163.501L358.66 168.241L356.55 168.791L359.81 169.811L361.44 167.321L363.5 164.571L369.45 164.591L366.69 163.141L363.44 162.121L360.5 163.461L362.45 159.871L368.1 161.751L373.74 162.631Z" fill="#FDFCEA"/>
</svg>
