<svg width="1400" height="1139" viewBox="0 0 1400 1139" fill="none" xmlns="http://www.w3.org/2000/svg">
<path d="M605.1 357.731L604.43 357.491L603.33 347.621C604.5 343.321 611.57 341.551 613.67 337.251L617.46 325.961L615.66 318.411L620.66 312.721L619.94 308.111L624.07 299.071L616.33 287.091L626.46 273.291L635.03 279.261L640.55 288.721L648.3 289.781L654.79 287.101L649.16 280.401L658.66 272.971L669.04 279.281L672.97 283.361L678.03 283.311L689.43 286.681L691.12 293.081L691.54 293.141L691.5 293.451L683.11 299.471L670.71 301.661L669.24 309.291L677.6 315.891L672.33 318.421L665.95 324.321L657.28 332.491L654.42 345.811L646.05 352.381L649.63 370.831L643.66 380.131L642.25 390.231L625.22 391.821L623.44 382.691L618.72 367.331L614.18 365.251L609.55 359.291L605.1 357.731Z" fill="#FDFCEA"/>
</svg>
