<svg width="1400" height="1139" viewBox="0 0 1400 1139" fill="none" xmlns="http://www.w3.org/2000/svg">
<path fill-rule="evenodd" clip-rule="evenodd" d="M938.3 399.731L941.69 399.501L947.389 401.701L953.91 401.681L963.679 404.161L967.61 406.631L974.13 406.961L977.309 409.951L980.7 407.211L991.139 406.461L1002.06 406.811L1003.47 404.341L1006.26 404.221L1010.35 406.271L1014.32 405.881L1016.98 408.041L1020.7 407.651L1024.61 409.371L1028.77 409.991L1032 411.291L1038.02 411.891L1040.72 411.431L1043.06 408.871L1045.2 404.791L1045.32 401.411L1049.5 391.401L1054.11 387.371L1056.12 386.501L1063.58 380.491L1065.66 377.601L1067.54 372.591L1067.92 369.381L1067.12 366.441L1062.96 366.071L1058.66 367.141L1055.9 370.041L1052.19 370.771L1048.95 369.631L1046.75 369.831L1042.89 372.501L1040.78 373.031L1033.9 371.601L1032.33 368.251L1034.15 364.761L1037.06 361.181L1039.29 356.591L1043.2 352.071L1045.02 348.671L1044.64 345.461L1041.77 346.091L1039.71 344.691L1036.58 345.151L1033.53 350.761L1030.81 350.211L1027.87 351.941L1026.72 354.741L1024.11 356.041L1019.04 356.951L1007.97 364.701L1007.33 366.731L1005.98 373.081L1003.87 373.791L1002.56 371.111L1000.53 371.131L997.88 369.571L994.69 365.981L991.07 367.051L986.95 363.311L984.07 363.691L981.01 363.061L978.179 360.481L975.96 359.331L973.45 361.311L970.41 362.031L968.25 359.191L965.13 358.411L962.32 359.191L959.42 357.461L954.44 358.891L947.61 358.231L945.12 357.841L937.99 358.041L934.84 357.161L931.48 358.981L929.179 357.751L926.63 357.701L923.62 359.611L922.469 362.071L919.16 361.871L916.269 366.641L913.67 367.691L908.01 369.051L905.59 369.171L896.91 368.971L894.13 369.691L890.49 369.411L888.13 370.291L884.28 373.141L882.26 373.761L879.29 373.471L875.01 374.511L869.59 375.821L865.05 375.001L860.66 373.441L858.349 373.181L858.34 373.271L856.059 381.771L856.99 394.611L866.7 395.301L879.75 394.591L886.04 399.971L888.61 403.291L884.33 412.271L874.71 414.621L868.5 423.631L858.36 424.931L862.65 434.501L867.28 442.151L870.42 447.341L879.65 465.671L900.32 480.881L900.57 480.541L907.099 460.441L910.929 446.381L908.75 446.261L903.099 447.191L898.78 443.121L896.5 441.731L893.04 437.221L897.469 434.281L899 421.381L899.41 417.961L901.29 414.221L900.83 411.531L898.98 407.511L899.38 404.991L899.88 401.811L900.01 397.621L902.08 395.221L906.05 394.571L908.51 394.951L911.67 396.501L919.4 397.821L923.65 399.441L928.55 398.781L931.099 398.911L934.75 400.031L938.3 399.731Z" fill="#FDFCEA"/>
</svg>
