<svg width="1400" height="1139" viewBox="0 0 1400 1139" fill="none" xmlns="http://www.w3.org/2000/svg">
<path d="M716.389 584.361L719.719 595.62L720 605.89L724.62 612.18L721.8 616.481L717.88 625.731L721.58 636.691L727.389 640.88L729.71 645.31L729.099 648.981L733.849 649.41L739.54 647.731L748.12 662.68L746.28 666.05L750.84 673.81L753.86 669.62L758.91 672.38L764.16 670.34L767.469 671.46L766.11 677.691L767.76 680.861L766.019 686.63L765.82 690.651L764.37 687.95L762.73 690.85L759.929 698.75L757.83 701.75L752.88 708.84L750.09 712.691L746.969 717.22L743.03 727.08L741.16 730.321L735.16 733.81L732.769 736.55L730.099 742.25L726.2 744.941L723.33 748.88L719.21 757.731L717.309 759.71L713.929 758.76L709.62 759.12L705.519 747.54L701.389 740.22L694.89 731.37L689.05 722.18L685.41 713.14L680.5 711.47L677.77 708.93L671.39 702.45L673.87 694.72L683.34 693.99L683.45 688.17L677.99 682.74L667.43 672.74L657.37 663.071L648.57 660.92L648.35 660.31L644.75 650.17L642.15 644.2L641.67 631.54L640.68 617.691L640.04 605.2L645.18 597.46L645.19 582.571L648.63 573.47L657.94 576.47L663.17 576.6L666.65 570.75L665.9 564.25L669.19 555.67L675.37 550.82L681.4 546.83L693.5 555.67L708.059 568.55L715.639 577.18L716.389 584.361Z" fill="#FDFCEA"/>
</svg>
