<svg width="1400" height="1139" viewBox="0 0 1400 1139" fill="none" xmlns="http://www.w3.org/2000/svg">
<path d="M366.37 617.221L365.12 617.711L364.89 617.121L347.31 613.681L341.43 615.782L334.05 615.282L327.65 616.851L319.95 615.761L310.45 611.791L303.39 614.671L297.33 624.711L289.88 622.041L281.89 620.021L274.42 621.101L262.51 616.271L247.77 615.362L238.46 607.931L225.61 605.822L225.19 598.461L218.68 588.421L217.24 580.381L220.49 569.231L220.08 562.391L218.19 559.331L205.61 550.541L202.86 545.601L204.25 532.481L202.69 524.001L198.11 514.161L204.61 504.291L201.31 492.691L208.28 483.601L217.24 475.251L226.64 477.161L233.17 479.281L237.53 476.851L239.81 469.471L241.84 460.251L246.63 451.141L254.15 446.391L259.43 432.061L270.87 432.091L276.3 436.491L289.28 435.631L296.36 437.951L301.57 434.141L303.11 426.961L301.52 417.091L311.74 417.261L324.61 413.851L324.7 413.521L327.42 414.271L337.4 413.441L337.66 413.561L347.85 418.161L358.02 420.661L375.39 435.441L375.19 448.061L387.56 455.091L400.57 458.931L409 467.811L417.62 466.081L427.66 466.221L436.27 464.081L436.28 464.141L442.06 463.701L443 463.631L450.78 464.941L460.26 468.451L460.19 477.521L456.08 487.311L448.72 492.681L442.4 501.631L441.48 509.851L430.35 513.191L422.92 522.651L427.47 540.091L433.12 547.231L430.65 552.731L423.11 557.071L415.74 562.441L413.16 557.671L406.22 556.021L399.96 559.991L404.64 578.971L403.87 590.811L402.89 595.311L396.96 599.291V601.641L385.85 603.741L366.37 617.221Z" fill="#FDFCEA"/>
</svg>
