<svg width="1400" height="1139" viewBox="0 0 1400 1139" fill="none" xmlns="http://www.w3.org/2000/svg">
<path d="M1019.63 684.04L1015.93 684.18L1012.12 682.79L1012.5 679.92L1010.1 677.17L1008.62 674.15L1006.06 671.57L1007.54 674.929L1008.92 677.44L1010.14 680.21L1008.33 683.44L1007.45 686.49L1004.94 687.62L1002.12 688.12L989.95 687.75L984.71 686.9L978.06 686.99L965.79 689.03L962.87 690.34L956.46 691.39L946.93 694.54L938.991 695.34L937.951 685.5L941.411 678.11L940.481 670.99L937.85 667.719L929.411 666.53L918.291 661.7L911.141 655.09L909.692 645.861L912.292 637.281L920.372 629.451L918.811 616.011L918.521 604.891L925.681 596.961L930.081 582.371L931.971 569.861L938.141 564.261L944.982 556.741L949.141 551.751L953.961 544.521L965.861 542.531L960.461 551.311L959.001 557.941L960.461 561.421L966.101 563.771L970.561 592.661L968.622 600.621L975.232 609.191L978.641 620.42L987.091 627.46L989.131 637.26L993.711 647.37L998.091 646.99L1007.96 640.24L1014.59 629.57L1018.69 618.07L1029.9 610.269L1035.55 602.179L1039.89 597.429C1040.47 597.95 1041.36 598.19 1042.33 598.4C1043.86 598.74 1045.56 599.03 1046.48 600.309L1045.61 609.709L1054.4 613.829L1061.15 614.109L1066.63 624.369L1079.83 625.089L1091.12 624.469L1095.03 627.69L1090.57 635.94L1094.9 646.339L1084.4 658.069L1079.7 665.369L1087.55 677.149L1091.17 684.558L1089.24 699.338L1087.13 699.178L1083.75 698.208L1078.75 695.738L1073.01 694.887L1068.55 695.028L1061.27 692.088L1058.46 690.008L1055.59 689.208L1052.26 686.048L1051.73 681.918L1049.55 678.988L1046.94 678.688L1036.19 681.198L1025.83 681.677L1019.63 684.04Z" fill="#FDFCEA"/>
</svg>
