<svg width="1400" height="1139" viewBox="0 0 1400 1139" fill="none" xmlns="http://www.w3.org/2000/svg">
<path d="M687.07 417.271L695.43 422.181L705.059 416.971L709.24 416.461L716.429 419.421L720.61 415.951L723.04 416.261L735.96 420.201L743.65 422.791L753.87 423.501L755.25 443.281L771.55 451.391L775.349 443.581L785.03 440.621L786.67 432.011L798.44 435.541L802.349 445.421L800.71 456.591L799.309 460.891L796.639 469.101H796.34L798.309 485.941L795.179 495.061L792.11 505.851L787.16 515.811L779.769 518.451L762.389 510.931L755.88 518.341L746.74 522.811L733.75 517.121L728.59 524.051L722.139 523.381L710.83 522.791L697.55 527.021L687.26 511.531L680.46 507.141L670.79 501.231L664.14 494.961L658.99 487.301L649.86 485.321L646.26 479.541L645.65 469.961L638.83 463.681L637.91 456.331L638.84 455.441L642.08 452.361L651.44 444.411L652.36 435.501L656.33 428.621L671.51 422.181L675.79 415.951L677.83 415.641L687.07 417.271Z" fill="#FDFCEA"/>
</svg>
