<svg width="1400" height="1139" viewBox="0 0 1400 1139" fill="none" xmlns="http://www.w3.org/2000/svg">
<path d="M391.27 313.13L387.14 306.15L394.83 305.92L407.16 313.95L414.61 311.72L425.91 317.33L432.91 311.79L443.18 316.62L449.62 313.41L459.92 312.49L460.62 305.36L447.37 299.67L455.26 288.5L456.76 281.2L447.62 274.62L449.25 266.4L460.41 267.64L464.46 260.04L459.88 248.2L459 238.5L459.54 238.55L472.56 241.27L485.64 244.69L502.78 255.19L510.05 261.72C512.52 259.29 520.07 261.86 521.54 257.53L521.74 243.57L528.43 241.46L534.76 247.82L543.88 248.34L549.51 253.77L549.27 262.5L545.95 271.46L554.98 277.27L567.42 279.67L580.82 288.9L577.76 295.64L568.05 298.62L564.81 311.14L565.56 318.33L562.94 325.19C562.95 327.87 564.44 333.61 563.04 336.28L557.38 342.55L557.3 344.04L549.8 343.66L540.67 354.65L536.24 360.2L535.13 368.23L534.88 375.22L533.46 379.4L534.72 387.67L531.51 392.16L534.04 397.98L533.17 401.96L535.79 404.51L536.18 410.64L526.42 407.78L520.68 401.96L515.84 402.42C515.23 403.36 515.13 414.79 513.78 415.88L498.69 425.77L488.48 425.89L475.81 440.76L468.12 441.66L448.29 444.43L443.06 448.73L441.96 462.43L442.06 463.7L436.28 464.14L436.27 464.08L427.66 466.22L417.62 466.08L409 467.81L400.57 458.93L387.56 455.09L375.19 448.06L375.39 435.44L358.02 420.66L347.85 418.16L337.66 413.56L337.81 413.23L340.4 391.51L331.99 381.47L336.89 369.39L336.59 358.86L340.66 349.43L350.3 337.76L359.34 335.1L362.38 339.8L371.12 337.3L378.18 332.87L385.88 327.68L388.96 318.29L391.27 313.13Z" fill="#FDFCEA"/>
</svg>
