<svg width="1400" height="1139" viewBox="0 0 1400 1139" fill="none" xmlns="http://www.w3.org/2000/svg">
<path d="M310.32 409.521L310.21 409.731L289.94 399.301L289.77 399.551L275.67 389.991L249.88 384.941L244.76 374.491L242.64 370.171L240.42 361.281L240.64 360.981L250.7 354.001L250.83 345.161L253.34 331.771L257.01 324.221L261.93 314.061L261.56 303.611L263.38 289.961L274.12 285.231L277.39 275.681L286.13 277.751L299.37 279.141L310.29 275.261L319.44 271.561L326.73 279.261C330.81 278.811 334.9 282.211 338.98 280.841L348.17 275.641L355.97 280.551L356.13 280.531L357.43 291.841L357.84 300.631L371.43 301.161L386.99 305.151L387.14 306.151L391.27 313.131L388.96 318.291L385.88 327.681L378.18 332.871L371.12 337.301L362.38 339.801L359.34 335.101L350.3 337.761L340.66 349.431L336.59 358.861L336.89 369.391L331.99 381.471L340.4 391.511L337.81 413.231L337.66 413.561L337.4 413.441L327.42 414.271L324.7 413.521L310.32 409.521Z" fill="#FDFCEA"/>
</svg>
