<svg width="1400" height="1139" viewBox="0 0 1400 1139" fill="none" xmlns="http://www.w3.org/2000/svg">
<path d="M394.83 305.921L387.14 306.151L386.99 305.151L371.43 301.161L357.84 300.631L357.43 291.841L356.13 280.531L356.01 279.421L359.99 273.251L359.18 263.261L356.5 249.421L360.89 247.821L365.19 241.991L366.79 233.931L360.81 227.481L357.01 218.961L361.94 206.601L361.27 191.881L376.08 200.881L392.85 205.431L398.43 214.331L421.76 216.171L433.4 225.421L452.67 237.831V237.871L459 238.501L459.88 248.201L464.46 260.041L460.41 267.641L449.25 266.401L447.62 274.621L456.76 281.201L455.26 288.501L447.37 299.671L460.62 305.361L459.92 312.491L449.62 313.411L443.18 316.621L432.91 311.791L425.91 317.331L414.61 311.721L407.16 313.951L394.83 305.921Z" fill="#FDFCEA"/>
</svg>
