<svg width="1400" height="1139" viewBox="0 0 1400 1139" fill="none" xmlns="http://www.w3.org/2000/svg">
<path d="M638.34 454.91L638.84 455.44L637.91 456.33L638.83 463.68L645.65 469.96L646.26 479.54L649.86 485.32L658.99 487.3L664.14 494.96L670.79 501.23L680.46 507.14L687.26 511.53L697.55 527.02L697.26 527.04L687.05 535.52L681.4 546.83L675.37 550.82L669.19 555.67L665.9 564.25L666.65 570.75L663.17 576.6L657.94 576.47L648.63 573.47L637.47 574.38L628.64 568.87L622.12 571.52L616.19 571.321L612.37 566.3L604.26 564.12L595.01 559.21L585.41 545.08L581.36 544.95L574.04 540.37L574.8 531.85L574.68 524.14L566.04 511.87L573.56 502.47L576.77 495.8L581.04 487.91L585.49 481.37L591.39 471.55L582.16 455.41L581.95 444.1L591.95 440.24L599.99 445.04L605.8 438.33L614.57 434.65L622.3 431.92L625.05 438.12L630.95 447.22L638.34 454.91Z" fill="#FDFCEA"/>
</svg>
