<svg width="1400" height="1139" viewBox="0 0 1400 1139" fill="none" xmlns="http://www.w3.org/2000/svg">
<path d="M985.07 514.87L991.91 513.73L993.84 520.9L989.33 524.77L982.429 527.12L979.219 531.61L968.519 538.35L965.86 542.53L953.96 544.52L949.139 551.75L944.98 556.74L938.139 564.26L931.969 569.86L930.08 582.37L925.679 596.96L918.519 604.89L913.059 599.63L905.469 599.01L893.49 599.62L881.57 604.52L874.219 610.401L867.5 607.231L860.58 613.59L851.73 626.91L843.79 629.84L842.719 619.71L841.26 616.231L833.389 611.13L834.059 603.58L826.09 601.84L819.49 586.43L813.46 585.3L803.05 589.59L798.769 588.981L796.25 586.43L788.429 585.46L781.05 589.45L775.21 594.981L769.139 600.941L757.639 600.66L747.07 595.14L732.099 591.361L719.65 574.06L715.639 577.18L708.059 568.55L693.5 555.67L681.4 546.83L687.05 535.52L697.26 527.04L697.55 527.02L710.83 522.79L722.139 523.38L728.59 524.05L733.75 517.12L746.74 522.81L755.88 518.34L762.389 510.93L779.769 518.45L787.16 515.81L792.11 505.85L795.179 495.06L798.309 485.94L796.34 469.1H796.639L799.309 460.89L812.98 459.9L811.12 449.47L819.63 447.57L827.82 448.03L836.69 449.91L843.809 445.96L850.61 443.48L858.41 441.6L867.28 442.15L870.42 447.34L879.65 465.67L900.32 480.88L900.599 481.09L919.58 487.46L919.65 487.35L937.32 499.12L945.44 497.31L960.09 509.86L971.51 515.79L979.12 517.01L985.07 514.87Z" fill="#FDFCEA"/>
</svg>
