<svg width="1400" height="1139" viewBox="0 0 1400 1139" fill="none" xmlns="http://www.w3.org/2000/svg">
<path d="M943.57 444.54L945.69 444.68L949.099 446.57L950.309 448.49L958.41 447.19L961.16 449.94L963.97 451.27L966.85 445.55L966.46 442.52L963.84 442.81L958.191 443.57L954.14 444.22L955.031 441.84L961.51 439.55L964.21 439.17L971.25 440.42L977 440L979.9 441.9L981.389 444.92L983.669 444.88L986.139 445.86L984.839 449.93L985.989 453.04L988.829 456.62L997.989 458.01L1001.33 460.84L1004.46 461.21L1010.68 458.76L1012.88 459.07L1015.65 463L1021.43 465.11L1028.36 471.35L1034.84 469.4L1041.16 467.72L1048.09 473.11L1052.15 473.9L1054.97 475.38L1057.76 475.93L1058.43 475.72L1056.47 487.68L1066.89 496.37L1070.72 502.6L1071.8 509.88L1067.72 512.35L1059.91 506.99L1045.77 502.25L1033.15 502.16L1024.82 498.83L1014.4 494.87L1007.12 503.81L1004.48 512.88L1007.93 520.99C1009.19 522.92 1010.5 526.57 1012.83 528.5L1023.14 531.71L1032.47 542.06L1042.72 547.66L1047.7 557.73L1047.48 565.62L1044.13 572.41L1043.2 578.09L1042.33 598.401C1041.36 598.191 1040.47 597.951 1039.89 597.43L1035.55 602.18L1029.9 610.27L1018.69 618.071L1014.59 629.571L1007.96 640.241L998.087 646.991L993.707 647.371L989.127 637.261L987.087 627.461L978.637 620.421L975.228 609.192L968.618 600.622L970.557 592.662L966.097 563.772L960.457 561.422L958.997 557.942L960.457 551.312L965.857 542.532L968.516 538.352L979.216 531.612L982.426 527.122L989.326 524.772L993.836 520.902L991.906 513.732L985.066 514.872L979.116 517.012L971.506 515.792L960.086 509.862L945.437 497.312L937.317 499.122L919.647 487.352L919.577 487.462L900.597 481.092L900.318 480.882L900.568 480.542L907.097 460.442L910.927 446.382L912.467 446.462L921.057 443.882L923.507 443.582L925.648 444.992L930.358 443.652L932.767 444.452L936.228 446.012L939.488 443.592L943.57 444.54Z" fill="#FDFCEA"/>
</svg>
