<svg width="1400" height="1139" viewBox="0 0 1400 1139" fill="none" xmlns="http://www.w3.org/2000/svg">
<path d="M608.53 680.23L601.72 691.789L601.59 691.999L596.26 688.709L595.42 682.879L592.8 670.809L583.56 660.509L566.87 655.28L555.35 650.929L549.69 641.739L545.41 635.61L539.53 622.309L539.76 612.389L537.97 602.989L535.34 593.769L545.31 588.36L560.47 591.73L566.19 592.139L564.42 584.28L567.57 579.629L576.79 574.759L582.96 567.689L582.23 563.079L579.03 548.389L581.36 544.949L585.41 545.079L595.01 559.209L604.26 564.119L612.37 566.299L616.19 571.32L622.12 571.519L628.64 568.869L637.47 574.379L648.63 573.469L645.19 582.57L645.18 597.459L640.04 605.199L640.68 617.69L641.67 631.539L642.15 644.199L644.75 650.169L648.35 660.309L640.32 668.669L621.4 678.059L608.53 680.23Z" fill="#FDFCEA"/>
</svg>
