<svg width="1400" height="1139" viewBox="0 0 1400 1139" fill="none" xmlns="http://www.w3.org/2000/svg">
<path fill-rule="evenodd" clip-rule="evenodd" d="M774.2 665.659L772.599 663.799L765.54 657.07L773.639 643.499L781.11 644.089L782.969 654.32L790.51 654.57L797.46 656.86L807.45 654.759L809.98 657.98L810.62 666.949L812.17 666.599L813.65 673.749L827.87 672.57L839.099 674.07L847.69 673.389L851.21 674.049L859.32 674.15L874.38 677.699L878.09 677.9L881.87 682.219L881.769 686.36L882.83 689.549L887.16 693.15L889.74 694.669L897.519 696.659L900.38 696.61L902.32 691.349L899.95 685.65L899.74 683.119L902.23 680.629L906.76 679.719L909.79 679.669L913.599 680.619L916.91 682.259L919.969 684.07L921.889 687.749L929.66 693.989L933.21 695.589L936.66 695.539L938.99 695.339L937.95 685.499L941.41 678.11L940.48 670.989L937.849 667.719L929.41 666.53L918.29 661.699L911.139 655.089L909.69 645.86L912.29 637.28L920.37 629.449L918.809 616.009L918.519 604.889L913.059 599.629L905.469 599.009L893.49 599.619L881.57 604.519L874.219 610.4L867.5 607.23L860.58 613.589L851.73 626.909L843.79 629.839L842.719 619.709L841.26 616.23L833.389 611.129L834.059 603.579L826.09 601.839L819.49 586.429L813.46 585.299L803.05 589.589L798.769 588.98L796.25 586.429L788.429 585.459L781.05 589.449L775.21 594.98L769.139 600.94L757.639 600.659L747.07 595.139L732.099 591.36L719.65 574.059L715.639 577.179L716.389 584.36L719.719 595.619L720 605.889L724.62 612.179L721.8 616.48L717.88 625.73L721.58 636.69L727.389 640.879L729.71 645.309L729.099 648.98L733.849 649.409L739.54 647.73L748.12 662.679L746.28 666.049L750.84 673.809L753.86 669.619L758.91 672.379L764.16 670.339L767.469 671.459L774.2 665.659ZM774.059 688.87L780.7 673.21L774.2 665.66L767.469 671.46L766.11 677.691L767.76 680.861L766.019 686.63L765.82 690.651L770 689.01L774.059 688.87Z" fill="#FDFCEA"/>
</svg>
