<svg width="1400" height="1139" viewBox="0 0 1400 1139" fill="none" xmlns="http://www.w3.org/2000/svg">
<path fill-rule="evenodd" clip-rule="evenodd" d="M1243.53 798.153L1245.89 797.872L1254.99 799.312L1258.02 800.542L1265.6 802.403L1269.16 805.242L1271.26 804.372L1271.72 800.323L1271.45 798.302L1268.96 793.342L1262.25 786.153L1259.89 785.502L1245 786.682L1244.17 786.752L1240.3 784.912L1238.01 784.792L1235.63 781.783L1233.01 780.792L1228.91 782.102L1225.63 782.552L1223.18 781.903L1217.93 778.502L1211.93 775.952L1209.05 773.702L1207.03 773.212L1201.46 771.842L1199.23 772.012L1197.03 774.082L1196.41 779.233L1197.71 782.932L1200.43 785.522L1203.48 787.512L1209.12 795.462L1214.17 798.323L1218.74 798.653L1223.79 800.842L1228.45 802.863L1235.4 800.693L1243.53 798.153Z" fill="#FDFCEA"/>
</svg>
