<svg width="1400" height="1139" viewBox="0 0 1400 1139" fill="none" xmlns="http://www.w3.org/2000/svg">
<path d="M200.302 1038.05L196.998 1039.74L194.336 1037.46L196.376 1035.46L199.484 1035.79L200.302 1038.05ZM252.285 996.629L255.217 996.634L257.254 997.592L254.507 1001.38L248.213 1007.2L242.527 1010.81L238.85 1011.17L236.126 1012.68L231.356 1012.89L228.216 1011.46L227.529 1007.85L228.522 1004.36L231.267 997.54L231.67 993.901L236.167 989.727L236.498 986.513L237.867 984.45L241.106 986.471L245.659 987.445L248.684 990.737L250.484 995.328L252.285 996.629ZM1201.46 771.841L1207.03 773.216L1209.05 773.701L1211.93 775.948L1217.93 778.501L1223.18 781.905L1225.63 782.554L1228.9 782.099L1233.01 780.791L1235.63 781.776L1238.01 784.79L1240.3 784.911L1244.17 786.753L1259.89 785.502L1262.25 786.153L1268.96 793.344L1271.45 798.297L1271.72 800.319L1271.25 804.374L1269.16 805.237L1265.6 802.402L1258.02 800.536L1254.99 799.309L1245.88 797.871L1243.53 798.146L1235.39 800.686L1228.45 802.855L1223.78 800.836L1218.74 798.652L1214.17 798.318L1209.12 795.463L1203.48 787.509L1200.43 785.516L1197.71 782.93L1196.41 779.232L1197.02 774.079L1199.23 772.007L1201.46 771.841ZM477.169 723.672L471.182 726.849L471.622 724.054L476.309 722.848L477.169 723.672ZM484.248 720.302L481.041 723.582L483.634 719.219L484.248 720.302ZM1123.84 718.473L1119.97 719.11L1114.39 716.984L1112.51 714.982L1114.16 712.262L1114.19 707.705L1115.18 705.583L1117.7 705.806L1122.41 712.246L1124.25 717.37L1123.84 718.473ZM1057.85 474.169L1055.37 473.858L1057.02 470.967L1058.32 473.482L1057.85 474.169ZM435.259 148.2L440.431 147.012L441.937 149.509L444.832 149.611L444.269 147.428L441.406 145.131L443.358 141.455L453.382 144.514L459.681 144.789L463.107 145.807L466.825 145.109L471.57 144.093L474.79 143.597L477.634 145.22L478.321 149.088L481.103 151.725L484.45 152.999L491.846 160.259L493.347 162.59L494.676 164.923L496.936 167.068L496.142 169.585L498.228 171.513L501.24 169.419L509.561 168.98L511.627 170.199L513.131 172.698L515.644 174.837L519.849 177.077L524.095 180.222L523.727 182.677L526.856 182.018L532.015 184.5L536.24 187.382L539.161 188.838L542.114 191.728L547.415 193.132L548.414 195.981L550.98 196.77L553.302 194.271L557.882 197.717L562.154 198.807L566.309 198.549L570.859 196.28L574.314 195.592L578.052 199.396L583.219 198.696L586.555 199.723L588.477 194.365L592.21 190.235L594.981 188.742L597.769 188.009L606.371 188.843L608.392 188.126L611.543 188.398L614.984 190.437L618.797 193.989L624.651 197.584L626.416 200.755L630.568 200.249L635.61 205.802L640.723 214.815L643.123 220.001L646.624 222.29L654.419 228.3L660.654 234.169L663.84 236.385L675.549 240.375L682.441 241.17L685.737 240.346L691.862 241.072L696.847 244.184L699.304 243.883L704.377 245.41L709.827 248.156L713.474 248.002L716.287 248.624L724.601 248.469L730.941 247.084L735.243 245.737L738.615 244.495L741.203 242.252L742.976 237.239L748.719 231.14L752.169 229.558L757.328 228.536L759.691 227.733L762.724 226.581L765.21 227.803L769.789 227.552L775.616 225.759L779.573 225.86L785.336 227.95L788.577 228.822L792.444 231.37L792.999 233.893L795.43 236.804L798.565 236.411L801.23 238.39L804.132 239.183L807.986 245.785L810.587 248.946L810.824 252.741L810.637 256.459L806.637 265.39L807.273 267.658L807.053 269.603L804.84 274.031L804.586 278.762L805.742 281.695L809.63 285.68L813.043 286.802L816.159 290.293L815.472 292.82L813.571 297.512L810.527 297.902L809.726 300.617L812.764 299.804L814.028 301.898L813.808 310.843L815.454 317.567L823.334 331.781L824.795 337.665L828.566 343.635L834.825 349.226L836.066 352.413L838.136 354.404L840.507 359.344L847.409 366.657L851.948 369.619L854.245 370.087L858.023 373.148L860.653 373.442L865.049 375.005L869.586 375.829L875.004 374.515L879.284 373.478L882.254 373.769L884.278 373.144L888.126 370.297L890.483 369.415L894.129 369.695L896.911 368.975L905.592 369.179L908.009 369.053L913.662 367.699L916.27 366.647L919.16 361.876L922.466 362.078L923.614 359.613L926.631 357.709L929.174 357.755L931.481 358.986L934.84 357.162L937.988 358.043L945.118 357.849L947.606 358.241L954.434 358.894L959.412 357.471L962.317 359.2L965.131 358.42L968.247 359.198L970.407 362.036L973.446 361.316L975.959 359.339L978.178 360.488L981.011 363.063L984.069 363.694L986.945 363.315L991.065 367.054L994.691 365.99L997.877 369.575L1000.53 371.14L1002.56 371.112L1003.87 373.795L1005.97 373.091L1007.32 366.741L1007.97 364.707L1019.04 356.959L1024.11 356.045L1026.72 354.743L1027.86 351.942L1030.8 350.213L1033.52 350.768L1036.58 345.157L1039.71 344.692L1041.76 346.101L1044.63 345.471L1045.02 348.673L1043.2 352.072L1039.28 356.598L1037.06 361.185L1034.15 364.769L1032.33 368.253L1033.9 371.607L1040.78 373.034L1042.89 372.5L1046.75 369.832L1048.95 369.634L1052.18 370.774L1055.9 370.049L1058.65 367.143L1062.96 366.076L1067.11 366.443L1067.92 369.386L1067.54 372.599L1065.65 377.603L1063.58 380.499L1056.12 386.504L1054.1 387.375L1049.5 391.402L1045.32 401.416L1045.2 404.794L1043.05 408.873L1040.72 411.436L1038.01 411.894L1032 411.299L1028.77 409.993L1024.61 409.374L1020.69 407.655L1016.97 408.044L1014.32 405.887L1010.35 406.28L1006.25 404.227L1003.46 404.35L1002.06 406.818L991.135 406.465L980.697 407.219L977.305 409.955L974.127 406.963L967.606 406.637L963.675 404.162L953.902 401.689L947.386 401.703L941.68 399.51L938.297 399.731L934.745 400.038L931.09 398.911L928.548 398.782L923.648 399.448L919.389 397.825L911.666 396.511L908.507 394.956L906.045 394.572L902.077 395.225L899.999 397.621L899.868 401.819L898.976 407.512L900.819 411.533L901.286 414.225L899.401 417.968L898.995 421.383L897.465 434.287L893.03 437.227L896.488 441.729L898.77 443.123L903.088 447.196L908.741 446.263L912.466 446.457L921.051 443.877L923.499 443.586L925.639 444.987L930.355 443.648L932.758 444.455L936.227 446.008L939.487 443.595L943.562 444.547L945.679 444.685L949.092 446.573L950.307 448.497L958.406 447.195L961.154 449.94L963.966 451.269L966.839 445.551L966.455 442.519L963.838 442.81L958.183 443.569L954.132 444.22L955.027 441.843L961.505 439.553L964.207 439.176L971.246 440.423L976.992 440.002L979.898 441.9L981.379 444.918L983.662 444.886L986.13 445.862L984.837 449.932L985.983 453.038L988.827 456.626L997.981 458.016L1001.32 460.838L1004.45 461.216L1010.68 458.766L1012.88 459.073L1015.64 463.002L1021.42 465.117L1028.36 471.351L1034.84 469.407L1041.16 467.719L1048.08 473.112L1052.15 473.903L1054.96 475.384L1057.76 475.938L1064.83 473.652L1067.55 474.546L1069.85 476.118L1072.37 474.736L1072.08 472.546L1072.29 470.625L1072.76 466.122L1068.53 465.093L1066.22 463.676L1071.1 461.841L1074.33 463.403L1075.96 465.569L1079.35 472.2L1083.02 474.432L1086.05 473.803L1088.05 478.334L1090.35 478.949L1094.19 481.97L1096.23 482.873L1099.95 483.248L1103.75 482.779L1111.1 482.858L1113.2 482.165L1116.41 481.105L1118.49 479.316L1119.05 476.516L1116.49 474.269L1117.22 471.475L1126.27 471.788L1129.59 467.021L1133.04 466.052L1135.6 467.793L1139.56 466.397L1142.43 466.194L1148.37 467.897L1161.74 475.93L1165.76 479.598L1168.37 480.028L1174.7 478.485L1183.9 484.544L1188.31 484.265L1190.32 484.138L1195.42 486.361L1199.82 487.074L1203.28 490.521L1207.14 491.721L1211.04 493.367L1220.16 499.854L1224.08 503.274L1226.2 503.674L1230.48 509.452L1233.2 511.113L1242.5 519.12L1248.92 527.748L1256.86 535.772L1259.08 538.451L1261.63 539.692L1263.93 542.286L1268.02 545.369L1277.83 555.993L1282.76 559.322L1285.78 557.859L1292.44 566.068L1296.52 568.31L1299.16 571.408L1305.76 573.29L1307.96 573.354L1310.19 576.963L1313.06 579.842L1316.14 581.637L1318.62 585.918L1324.98 589.745L1327.99 595.457L1333.52 600.979L1336.55 600.362L1340.18 600.502L1343.91 602.834L1347.17 605.79L1349.41 607.821L1356.5 615.641L1357.76 621.611L1354.8 633.628L1351.54 637.198L1348.14 643.554L1343.47 649.582L1342.26 655.161L1337.92 660.429L1333.97 662.319L1332.76 668.067L1328.62 675.78L1321.24 681.423L1316.01 688.546L1314.15 696.408L1314.72 703.829L1313.75 708.309L1309.78 716.274L1307.87 718.569L1304.67 718.851L1301.24 720.654L1290.27 717.885L1282.32 715.174L1279.38 715.285L1276.66 712.779L1268.2 708.472L1262.77 704.812L1260.51 704.51L1255.25 710.2L1256.47 714.069L1260.75 721.284L1258.46 728.308L1253.57 734.01L1251.31 736.647L1249.74 739.194L1247.39 752.231L1246.47 757.366L1247.64 764.273L1246.74 766.897L1242.43 765.336L1238.15 766.223L1235.69 766.072L1230 767.487L1224.96 767.624L1219.31 766.501L1214.63 769.588L1213.27 767.323L1215.27 765.952L1215.5 763.672L1209.68 763.059L1209.3 766.269L1208.24 769.824L1207.12 766.799L1207.58 763.167L1206.62 759.548L1201.76 751.439L1199.24 747.225L1196.47 739.83L1193.64 734.883L1189.02 728.349L1186.54 724.835L1183.53 719.384L1176.12 711.873L1174.04 706.411L1164.8 700.946L1156.68 698.002L1151.12 698.571L1149.58 696.226L1146.63 695.922L1143.92 694.351L1139.62 694.402L1136.47 691.908L1133.7 692.025L1130.2 695.188L1128.02 696.311L1115.32 697.731L1105.92 700.208L1096.15 700.329L1091 699.466L1087.13 699.178L1083.75 698.208L1078.75 695.74L1073.01 694.886L1068.54 695.029L1061.26 692.087L1058.45 690.014L1055.58 689.208L1052.25 686.045L1051.73 681.917L1049.54 678.993L1046.93 678.69L1036.18 681.198L1025.83 681.676L1019.63 684.04L1015.92 684.176L1012.11 682.794L1012.49 679.92L1010.09 677.169L1008.62 674.151L1006.05 671.572L1007.53 674.926L1008.91 677.439L1010.14 680.206L1008.33 683.438L1007.44 686.488L1004.93 687.62L1002.12 688.123L989.941 687.749L984.705 686.896L978.054 686.992L965.783 689.028L962.857 690.337L956.451 691.393L946.918 694.541L938.981 695.336L936.653 695.54L933.203 695.593L929.654 693.992L921.879 687.75L919.967 684.067L916.906 682.257L913.593 680.621L909.787 679.669L906.757 679.716L902.22 680.632L899.735 683.118L899.943 685.646L902.311 691.346L900.373 696.609L897.511 696.654L889.73 694.669L887.153 693.148L882.825 689.549L881.762 686.36L881.862 682.223L878.084 677.896L874.374 677.704L859.316 674.154L851.204 674.05L847.687 673.392L839.094 674.071L827.86 672.574L813.641 673.748L812.166 666.6L810.153 667.058L811.894 670.318L810.921 672.445L803.236 675.057L799.382 677.54L795.003 682.259L785.91 687.23L781.542 688.221L779.448 688.696L770 689.01L765.816 690.648L764.366 687.957L762.734 690.855L759.93 698.754L757.834 701.749L752.878 708.84L750.085 712.689L746.971 717.219L743.03 727.08L741.156 730.321L735.161 733.808L732.774 736.553L730.103 742.256L726.2 744.945L723.329 748.882L719.209 757.736L717.311 759.713L713.927 758.765L709.62 759.118L704.861 759.867L702.669 759.656L698.344 757.799L696.159 758.01L691.43 761.393L688.677 762.627L680.009 758.324L674.671 756.404L670.129 756.494L666.078 758.405L659.271 760.592L653.143 761.222L648.574 759.963L643.017 759.738L638.94 757.964L635.482 757.528L630.611 757.966L625.943 760.087L622.251 760.584L619.586 761.905L616.862 764.408L613.118 766.343L598.469 772.139L594.429 773.739L592.413 773.866L589.31 770.387L587.007 769.001L582.719 769.008L576.359 770.578L573.748 770.381L571.75 767.555L575.099 762.842L577.163 761.111L579.603 761.143L578.42 764.796L581.402 766.589L588.874 765.755L591.042 764.865L590.634 761.498L587.483 759.709L584.124 760.033L576.538 751.673L569.678 749.626L567.78 747.639L565.404 743.963L563.841 740.638L564.287 737.928L567.494 730.517L570.087 729.787L568.941 719.684L568.892 717.492L571.044 711.961L568.211 701.811L567.872 697.852L566.462 694.928L560.216 690.59L551.341 689.18L545.308 686.865L541.266 686.954L538.713 685.829L533.663 686.024L530.319 687.195L530.205 689.561L526.048 692.016L523.783 692.489L524.413 698.045L524.085 705.816L518.221 710.925L516.752 712.985L509.102 717.291L506.915 717.341L495.793 717.087L492.802 715.215L488.709 712.945L487.139 717.96L485.139 718.85L481.823 717.408L480.963 720.213L479.049 717.641L475.663 716.875L471.28 720.353L467.246 727.789L464.829 732.402L460.022 739.181L453.937 745.231L448.983 749.229L445.899 750.484L442.487 750.891L435.851 752.579L430.692 748.06L429.83 743.778L427.638 740.117L424.922 737.387L423.127 734.572L419.058 733.488L414.287 731.072L411.408 730.467L406.895 728.382L401.6 728.764L398.278 730.534L386.604 741.791L384.681 745.806L384.077 748.606L384.761 752.386L386.35 755.301L388.566 759.803L391.83 762.508L390.292 768.284L390.928 770.209L395.278 774.152L398.346 780.998L402.175 786.221L401.761 789.86L397.062 803.899L395.312 807.992L390.97 815.947L388.158 821.248L384.663 822.601L382.377 825.358L381.795 829.001L373.926 836.96L373.378 841.952L370.326 844.222L368.646 847.555L365.581 849.32L362.975 852.508L360.746 857.373L352.911 869.722L350.968 872.351L347.267 875.603L343.555 881.52L338.938 884.928L334.599 889.258L332.58 889.057L331.135 891.709L326.975 896.373L325.015 901.739L322.852 899.263L320.615 900.417L320.273 906.585L319.248 909.143L314.732 909.851L312.583 911.088L310.46 913.337L299.926 934.115L300.073 936.743L298.972 939.287L297.65 946.409L292.411 957.684L292.807 959.952L292.201 962.414L289.63 966.616L286.517 969.398L284.306 974.519L281.777 977.819L280.348 983.398L278.744 986.056L275.905 986.469L273.478 989.823L269.555 984.191L266.471 981.743L264.145 976.321L259.609 972.816L255.317 966.587L253.366 962.1L252.041 956.568L248.236 949.246L245.379 945.948L244.113 942.608L241.443 940.064L236.318 936.745L227.958 932.328L216.679 930.451L201.124 932.401L195.065 934.764L191.228 935.546L185.793 933.252L183.559 931.881L180.669 930.107L185.315 928.288L189.166 924.89L192.517 915.767L198.13 915.441L199.654 912.952L201.19 907.762L200.933 904.648L199.312 900.726L196.373 897.686L191.43 886.095L186.654 883.445L184.825 881.134L188.776 878.322L191.418 873.691L191.896 869.795L188.866 863.636L187.961 858.345L186.115 855.444L181.728 851.854L176.363 846.436L170.497 843.986L165.955 838.04L163.295 836.09L158.788 834.277L156.088 833.932L157.461 831.952L157.984 829.744L160.665 826.46L161.306 822.475L163.215 818.623L163.968 815.563L163.084 811.2L163.352 808.745L160.727 808.144L159.987 805.802L159.625 801.93L160.578 797.093L159.638 793.659L157.253 792.546L155.918 790.052L153.616 788.937L152.86 786.089L148.823 783.251L147.055 780.688L151.143 771.863L152.145 765.161L155.614 761.725L156.004 758.615L166.557 739.475L167.748 737.317L174.686 724.744L177.508 719.631L155.702 710.399L144.772 705.774L140.161 702.568L137.194 698.6L130.954 696.633L126.417 687.704L119.888 684.344L115.786 682.235L104.918 676.644L103.447 666.913L109.821 665.059L112.836 662.888L112.734 659.395L108.777 655.1L86.7221 631.183L84.6851 629.744L84.2741 624.263L82.9711 622.303L79.7131 621.019L77.3361 617.474L75.0561 616.293L70.8391 617.167L68.7861 615.229L70.7001 612.425L75.4241 611.784L78.1161 609.957L81.9581 604.848L84.6211 604.324L88.9651 605.392L95.1151 609.392L98.3301 609.863L102.733 606.738L105.982 606.892L112.888 612.686L115.411 613.613L119.314 610.503L127.88 613.254L132.825 611.613L135.341 612.291L138.697 607.449L138.086 603.47L141.453 590.137L145.167 589.033L148.519 583.942L151.339 582.812L157.904 580.181L160.332 577.931L163.066 573.129L164.121 570.265L165.494 564.385L167.47 555.935L168.663 545.264L169.069 541.653L167.357 533.959L166.989 529.724L167.806 523.207L163.803 523.068L161.159 517.898L157.821 514.745L151.97 511.163L149.938 503.379L148.258 496.937L146.161 495.041L142.64 495.087L139.374 493.239L136.324 493.073L129.379 489.728L126.246 489.565L126.198 493.704L124.075 493.428L120.999 492.251L119.119 497.287L113.881 497.439L110.794 498.795L111.05 495.716L114.025 493.721L114.002 490.091L116.047 487.752L116.549 484.697L119.654 486.801L125.668 478.523L128.606 477.762L131.904 480.62L134.52 480.546L137.936 478.758L139.653 476.768L141.362 480.264L143.915 480.782L143.645 477.329L144.43 475.28L147.442 474.181L147.271 471.146L149.634 468.124L152.929 467.945L153.357 465.231L157.662 461.985L159.835 461.08L162.383 461.43L166.204 459.042L169.654 455.398L169.841 453.115L172.722 453.286L173.035 450.666L170.984 448.692L174.653 446.816L175.687 444.507L172.971 441.29L177.318 439.395L180.253 441.424L185.175 438.921L190.507 439.025L193.09 437.602L195.723 434.912L196.821 431.843L197.675 429.117L197.87 427.086L200.183 424.996L198.034 423.874L196.99 419.85L200.269 416.045L201.27 412.557L202.637 409.987L201.299 407.576L199.059 406.203L202.837 405.085L205.331 403.412L203.822 401.005L203.507 398.819L200.129 395.231L196.56 392.679L192.079 392.888L188.325 391.98L185.654 390.366L178.781 389.884L175.6 388.284L173.68 386.312L172.473 382.631L170.548 380.405L168.486 379.451L167.813 376.684L164.694 380.149L162.465 376.244L159.655 375.733L157.13 372.318L155.608 367.659L152.295 361.506L147.584 356.828L144.532 354.906L153.422 353.138L157.485 352.33L159.472 349.049L163.774 345.703L170.399 342.754L173.851 342.196L178.273 343.225L177.123 334.552L176.813 332.206L179.235 327.762L179.144 324.539L183.745 315.196L183.417 311.748L179.032 303.807L177.104 301.705L177.625 296.288L179.873 291.835L179.465 289.398L176.578 289.31L175.155 286.986L175.211 283.1L172.704 281.483L171.186 275.953L170.006 273.285L167.517 272.258L165.328 267.778L161.445 262.594L160.601 257.318L160.872 250.399L160.073 246.735L161.015 244.086L161.365 241.533L162.903 238.957L163.269 236.92L162.593 234.069L157.816 230.405L156.257 226.472L154.732 223.654L154.633 220.279L156.986 219.369L162.207 217.786L164.065 220.35L167.01 222.377L170.166 222.879L168.094 218.716L165.45 218.369L166.011 214.3L165.697 212.199L164.401 208.52L166.079 204.842L163.211 205.515L161.104 203.21L160.96 201.104L160.269 197.831L157.777 196.889L158.459 191.044L156.293 189.67L152.475 192.733L149.821 197.874L147.578 193.083L148.497 190.397L154.516 184.064L157.024 182.557L159 180.391L160.506 176.633L163.399 176.72L167.481 176.775L170.84 175.414L175.337 172.164L176.95 169.08L179.441 170.023L181.646 169.877L188.699 163.771L190.931 161.598L192.149 156.498L191.03 153.068L189.335 150.245L189.868 148.119L192.653 147.367L196.371 149.544L200.085 154.591L203.771 152.547L204.566 150.584L204.253 148.566L208.197 146.685L215.265 144.042L217.986 144.053L221.559 144.581L225.407 144.779L228.676 143.086L231.48 143.011L235.999 143.396L242.344 145.25L247.922 144.003L251.089 144.678L264.692 150.818L267.137 153.201L271.511 154.521L279.429 158.027L285.912 159.617L290.542 163.477L296.425 164.167L299.013 165.535L306.001 166.199L308.064 167.075L312.027 165.875L317.069 166.844L319.958 166.77L322.03 171.275L325.125 171.782L327.171 172.749L333.194 172.343L338.661 171.767L344.76 169.265L346.698 164.913L347.719 158.808L356.007 163.75L358.894 163.51L358.675 168.242L356.563 168.801L359.821 169.818L361.455 167.329L363.512 164.577L369.464 164.598L366.705 163.147L363.447 162.13L360.508 163.469L362.457 159.875L368.115 161.761L373.75 162.635L376.414 160.544L379.108 159.464L385.223 159.23L392.139 153.659L393.023 151.527L392.176 148.34L393.226 146.035L395.905 144.366L399.976 140.553L406.607 137.017L412.019 135.789L423.598 136.272L431.515 140.05L438.936 144.435L436.089 146.358L435.259 148.2Z" fill="#FEFEE9"/>
</svg>
