<svg width="1400" height="1139" viewBox="0 0 1400 1139" fill="none" xmlns="http://www.w3.org/2000/svg">
<path d="M604.465 357.733L603.333 347.625C604.505 343.326 611.574 341.557 613.674 337.258L617.462 325.961L615.66 318.417L620.659 312.725L619.935 308.113L624.069 299.072L616.331 287.092L626.461 273.29L635.03 279.268L640.548 288.725L648.3 289.788L654.788 287.106L649.158 280.403L658.655 272.972L669.04 279.286L672.968 283.361L678.026 283.317L689.433 286.681L691.122 293.086L699.109 294.19L707.515 296.242M338.65 171.762L340.422 183.162L349.918 187.531L361.267 191.883M361.267 191.883L376.079 200.882L392.853 205.431L398.43 214.337L421.764 216.168L433.402 225.423L452.665 237.829M361.267 191.883L361.935 206.598L357.008 218.96L360.81 227.482L366.787 233.934L365.187 241.991L360.885 247.819L356.5 249.424L359.181 263.265L359.994 273.254L355.97 279.471M154.768 219.256L155.524 221.852L156.052 225.467L156.25 226.466M656.558 230.531L649.683 229.968L643.998 230.667L637.363 231.669L635.231 234.018L628.889 234.579L626.454 238.5L621.412 238.417L617.964 234.688L612.943 235.414L608.253 239.573L600.432 237.755L593.253 236.249L598.792 274.583L593.036 274.747L589.093 264.222L582.904 268.893L581.824 285.321M452.287 237.829L459.54 238.555L472.562 241.271L485.64 244.695L502.775 255.197L510.05 261.718C512.52 259.293 520.067 261.865 521.535 257.529L521.734 243.571L528.43 241.461L534.755 247.826L543.881 248.346L549.51 253.774L549.265 262.506L545.945 271.466L554.976 277.272L567.423 279.671L581.471 289.357M257.687 268.532L268.549 273.961L274.29 274.941L286.133 277.749L299.364 279.14L310.289 275.267L319.442 271.561L326.731 279.267C330.813 278.813 334.894 282.213 338.976 280.848L348.17 275.639L355.968 280.556M161.157 243.811L178.359 249.155L185.949 247.625L199.438 254.245L213.423 251.803L222.737 249.364L232.334 247.402L237.712 250.632L243.399 250.515L244.736 261.73L257.8 268.559M394.531 305.721L407.156 313.953L414.613 311.719L425.914 317.327L432.912 311.788L443.182 316.622L449.618 313.416L459.917 312.49L460.618 305.364L447.37 299.671L455.26 288.506L456.76 281.205L447.623 274.618L449.255 266.406L460.408 267.638L464.459 260.041L459.885 248.204L458.958 238.016M355.969 279.111L357.431 291.842L357.839 300.629L371.428 301.162L386.989 305.147M744.472 235.651L744.686 255.369L739.719 264.137L715.387 275.809L701.844 274.143L701.515 288.856L707.515 296.242M707.515 296.242L718.355 293.249L722.499 302.404L722.72 313.15L726.871 321.116L743.078 322.749L738.437 339.06L733.273 349.456L741.435 353.002L761.41 361.394L761.558 374.293L774.003 377.497L781.379 377.068L792.498 385.744L802.802 387.848L813.419 390.521L821.558 390.766L830.559 396.679L837.176 400.218L846.403 403.555L852.294 394.272L867.156 395.331M582.827 284.491L577.759 295.647L568.047 298.626L564.811 311.147L565.564 318.328L562.936 325.197C562.95 327.87 564.44 333.608 563.043 336.281L557.376 342.551M548.389 343.589L560.615 344.21L569.879 342.763L580.012 349.445L588.713 345.02L595.648 348.644C596.789 349.022 594.448 359.158 596.133 361.934C596.786 363.01 602.488 365.012 604.766 363.446C606.411 362.316 604.82 357.596 605.139 357.541M277.479 275.421L274.118 285.232L263.378 289.961L261.561 303.616L261.934 314.058L257.012 324.221L253.341 331.774L250.828 345.157L250.696 354.003L240.644 360.984M156.251 226.466L156.75 228.993L162.587 234.062L163.263 236.913L162.897 238.95L161.359 241.526L161.168 243.642L160.067 246.728L160.866 250.392L160.595 257.311L161.439 262.587L165.322 267.771L166.024 270.689L170.001 273.279L171.181 275.947L171.481 280.414L174.239 281.94L175.15 286.98L176.573 289.304L179.46 289.392L179.868 291.829L177.62 296.282L177.099 301.699L178.001 303.616L183.411 311.742L183.739 315.19L179.138 324.533L179.229 327.756L176.807 332.2L177.117 334.546L178.267 343.219L173.845 342.19L170.393 342.748L163.768 345.697L159.466 349.043L157.479 352.324L153.416 353.132L144.526 354.9L147.578 356.822L152.289 361.5L155.602 367.653L155.608 370.692L157.125 372.312M691.5 293.451L683.108 299.472L670.712 301.669L669.236 309.29L677.601 315.894L672.329 318.421L665.951 324.32L657.275 332.495L654.417 345.81L646.054 352.385L649.629 370.836L643.658 380.13L642.246 390.236L649.482 403.694L662.053 411.974L675.786 415.951M604.086 357.372L609.555 359.297L614.183 365.251L618.724 367.333L623.445 382.694L625.221 391.826L642.246 390.235M857.019 394.979L856.057 381.768L858.336 373.276M240.423 361.283L242.641 370.173L249.876 384.94L275.666 389.988L290.24 399.873M200.123 395.223L201.536 388.795L205.816 382.875L210.778 380.221L214.687 372.682L219.704 373.321L236.692 379.178L242.38 376.133L244.68 374.535M200.123 395.223L198.7 393.71L196.554 392.672L192.073 392.881L188.319 391.973L185.648 390.359L178.775 389.877L175.594 388.277L173.674 386.305L172.467 382.624L170.542 380.398L168.48 379.444L165.957 377.151L162.713 379.435L162.459 376.237L158.523 374.914L157.124 372.311M200.123 395.223L203.501 398.811L203.816 400.997L205.325 403.404L202.831 405.077L199.621 405.334L199.76 407.272L202.631 409.979L201.264 412.549L200.263 416.037L196.984 419.842L198.028 423.866L200.062 423.978L198.535 426.472L197.67 429.109L196.816 431.835L195.718 434.904L193.085 437.594L190.502 439.017L185.17 438.913L181.768 441.288L177.314 439.387L174.775 439.374L175.314 443.41L174.649 446.806L171.953 447.219L171.173 449.521L173.361 451.992L169.839 453.105L169.652 455.388L168.194 457.625L162.599 460.23L161.315 462.63L158.294 460.522L153.355 465.22L152.927 467.934L150.884 467.487L147.269 471.135L148.265 473.386L146.113 474.655L143.643 477.318L144.393 479.829L141.36 480.254L140.834 476.64L137.935 478.748L134.519 480.536L131.903 480.61L128.605 477.752L125.667 478.513L120.908 486.333L118.161 484.893L116.046 487.742L114.001 490.081L114.657 492.257L111.578 493.866L110.794 498.785L113.421 497.861L118.463 497.97L119.659 492.701L124.075 493.416L126.198 493.692L126.233 490.798L129.379 489.716L136.324 493.061L139.374 493.227L142.64 495.075L146.015 494.809L148.258 496.925L149.938 503.367L151.97 511.151L157.821 514.733L161.159 517.886L163.803 523.056L167.806 523.195L166.989 529.712L167.294 533.23L169.069 541.642L168.663 545.253L167.47 555.924L165.494 564.374L164.121 570.254L163.066 573.118L161.797 576.563L157.903 580.169L151.629 582.684M337.813 413.229L340.395 391.511L331.991 381.475L336.886 369.39L336.594 358.864L340.657 349.429L350.302 337.764L359.342 335.099L362.376 339.802L371.119 337.305L378.179 332.874L385.877 327.681L388.959 318.287L391.267 313.135L387.141 306.153L396.452 305.871M289.941 399.302L310.913 410.09M866.086 395.329L879.745 394.588L886.039 399.976L888.609 403.293L884.332 412.274L874.705 414.623L868.502 423.629L858.364 424.935L862.903 435.06M675.787 415.95L671.51 422.179L656.332 428.62L652.358 435.5L651.442 444.408L642.083 452.361M441.955 462.435L443.06 448.734L448.291 444.431L468.123 441.666L475.811 440.767L488.481 425.89L498.689 425.775L513.782 415.881C515.134 414.793 515.224 403.361 515.842 402.423L520.683 401.963L526.414 407.777L536.179 410.642L535.791 404.516L533.166 401.966L534.037 397.982L531.511 392.165L534.718 387.674L533.46 379.406L534.877 375.223L535.133 368.234L536.239 360.197L540.672 354.655L549.882 343.572M310.315 409.52L327.416 414.27L337.4 413.441L347.848 418.158L358.023 420.663L375.385 435.444L375.193 448.063L387.558 455.09L400.568 458.93L408.999 467.81L417.615 466.081L427.656 466.22L437.173 463.863M798.985 460.91L812.98 459.9L811.124 449.474L819.631 447.567L827.819 448.032L836.686 449.909L843.815 445.966L850.613 443.483L858.411 441.602L868.256 442.211M796.642 469.106L800.706 456.592L802.347 445.423L798.435 435.545L786.671 432.012L785.025 440.62L775.346 443.579L771.549 451.392L755.246 443.278L753.864 423.506L743.648 422.79L735.955 420.203L723.039 416.259L720.609 415.951L716.427 419.423L709.236 416.462L705.056 416.972L695.427 422.18L687.064 417.278L677.828 415.646L675.785 415.952M460.188 477.524L460.257 468.455L450.775 464.941L443.002 463.636L436.276 464.147M460.188 477.524L466.589 476.613L472.857 479.3L475.813 487.146L474.52 492.464L478.312 499.788L480.155 514.318L481.399 526.794L485.169 536.734L498.7 543.939L506.032 557.969L516.158 560.315L529.408 563.844L532.701 572.186L536.684 578.981L535.336 593.771L537.966 602.992L539.758 612.388L539.529 622.314L545.409 635.614L549.689 641.741L555.355 650.932L566.875 655.283L583.565 660.515L592.799 670.815L595.424 682.881L596.261 688.714L605.885 694.638L608.221 704.538L600.25 714.442L598.688 730.06L595.192 739.858L590.428 742.413L583.424 742.512L578.174 744.555L572.254 743.023L565.402 743.962M460.188 477.524L456.079 487.314L448.717 492.68L442.404 501.636L441.48 509.857L430.353 513.19L422.916 522.656L427.471 540.094L433.118 547.235L430.645 552.733L423.105 557.077L415.74 562.442L413.158 557.671L406.223 556.022L399.963 559.991L404.634 578.975L403.864 590.817L402.887 595.311L396.958 599.291L396.953 601.639L385.845 603.744L366.37 617.219M900.569 480.539L907.097 460.444L911.086 445.794M862.368 434.037L870.417 447.341L879.646 465.675L900.6 481.096L919.583 487.465M697.548 527.018L710.827 522.796L722.136 523.387L728.588 524.055L733.747 517.122L746.741 522.809L755.879 518.339L762.388 510.935L779.769 518.449L787.161 515.817L792.114 505.85L795.177 495.067L798.307 485.944L796.345 469.106M697.548 527.018L687.262 511.533L680.463 507.141L670.786 501.235L664.14 494.958L658.994 487.3L649.864 485.323L646.257 479.538L645.648 469.958L638.834 463.685L637.91 456.335L642.084 452.362M697.548 527.018L697.264 527.039L687.047 535.522L681.4 546.837L675.373 550.82L669.186 555.669L665.904 564.253L666.652 570.751L663.173 576.598L657.942 576.469L648.633 573.47M919.048 486.954L937.324 499.118L945.441 497.31L960.088 509.86L971.513 515.789L979.121 517.016L985.067 514.869L991.911 513.734L993.842 520.907L989.332 524.77L982.427 527.118L979.217 531.609L968.523 538.348L965.858 542.531M965.858 542.531L953.957 544.519L949.143 551.748L944.982 556.746L938.143 564.266L931.967 569.863L930.079 582.373L925.683 596.959L918.516 604.89M965.858 542.531L960.456 551.314L958.998 557.947L960.456 561.421L966.096 563.769L970.564 592.659L968.623 600.619L975.234 609.192L978.636 620.422L987.095 627.468L989.135 637.265L993.707 647.371L998.086 646.996L1007.96 640.238L1014.59 629.573L1018.69 618.07L1029.9 610.276L1035.55 602.183L1039.89 597.436C1041.39 598.772 1044.98 598.225 1046.48 600.309L1045.61 609.707L1054.4 613.832L1061.15 614.115M638.337 454.915L630.95 447.218L625.054 438.121L622.301 431.925L614.565 434.655L605.798 438.33L599.985 445.037L591.946 440.246L581.949 444.104L582.163 455.411L591.387 471.554L585.491 481.375L581.039 487.913L576.766 495.803L573.556 502.47L566.039 511.869L574.676 524.144L574.801 531.847L574.041 540.368L581.358 544.947M648.634 573.471L637.475 574.387L628.639 568.874L622.126 571.527L616.192 571.321L612.368 566.307L604.264 564.118L595.009 559.209L585.411 545.085L581.358 544.949L579.032 548.389L582.231 563.081L582.955 567.696L576.794 574.763L567.568 579.632L564.415 584.281L566.186 592.137L560.47 591.726L545.311 588.365L535.336 593.769M681.399 546.837L693.501 555.672L708.063 568.553L715.638 577.178L716.386 584.36L719.718 595.628L719.998 605.892L724.623 612.187L721.801 616.487L717.884 625.733L721.581 636.692L727.391 640.879L729.705 645.312L729.098 648.989L733.847 649.416L739.54 647.734L748.124 662.686L746.276 666.056L750.842 673.814L753.86 669.628L758.912 672.384L764.162 670.341L767.468 671.466L766.107 677.691L767.762 680.86L766.016 686.632L765.816 690.65M151.626 582.687L148.515 583.933L145.687 588.23M145.687 588.23L167.81 595.355L177.647 600.235L192.612 595.829L207.816 598.097L225.611 605.819M145.687 588.23L141.449 590.128L138.082 603.461L138.693 607.44L137.297 610.976L132.821 611.604L127.876 613.245L119.31 610.494L115.978 613.148L112.883 612.677L105.977 606.883L102.728 606.729L98.325 609.854L95.574 609.685L88.96 605.383L86.021 604.557L81.954 604.839L78.112 609.948L75.42 611.775L70.696 612.416L68.782 615.22L70.835 617.158L75.052 616.284L77.332 617.465L79.431 620.9L82.967 622.295L84.27 624.255L84.681 629.736L86.718 631.175L108.773 655.092L112.73 659.387L112.832 662.88L109.817 665.051L103.443 666.905L104.914 676.636L115.782 682.227L119.884 684.336L126.413 687.696L130.95 696.625L137.19 698.592L140.157 702.56L144.768 705.766L155.698 710.391L177.504 719.623L174.682 724.736M324.612 413.853L311.742 417.262L301.514 417.091L303.11 426.957L301.573 434.145L296.363 437.957L289.278 435.636L276.303 436.492L270.865 432.091L259.426 432.067L254.145 446.394L246.633 451.141L241.835 460.256L239.813 469.473L237.53 476.849L233.173 479.282L226.636 477.168L217.237 475.251L208.28 483.604L201.311 492.699L204.611 504.295L198.105 514.167L202.694 524.001L204.247 532.48L202.857 545.601L205.611 550.54L218.19 559.331L220.076 562.395L220.489 569.238L217.237 580.387L218.676 588.421L225.194 598.461L225.611 605.818L215.082 614.634L211.231 617.405L205.768 626.692L203.357 637.838L197.26 648.293L196.392 651.819L197.442 654.579L202.173 659.546L222.673 671.689L243.435 681.071L262.605 688.16L269.233 692.556L281.641 701.35L289.922 702.989L298.417 694.191L310.869 687.78L320.194 694.345L323.504 700.5L326.503 704.206L330.16 711.717L335.447 716.637L350.588 730.09M1058.43 475.722L1056.47 487.682L1066.89 496.376L1070.72 502.606L1071.8 509.886L1067.72 512.349L1059.91 506.989L1045.77 502.254L1033.16 502.165L1024.82 498.83L1014.4 494.867L1007.12 503.812L1004.48 512.881L1007.93 520.987C1009.19 522.922 1010.5 526.568 1012.83 528.504L1023.14 531.71L1032.47 542.057L1042.72 547.657L1047.7 557.728L1047.48 565.617L1044.13 572.412L1043.2 578.097L1042.32 598.709M715.638 577.177L719.652 574.061L732.095 591.362L747.072 595.137L757.644 600.657L769.136 600.946L775.204 594.983L781.047 589.456L788.425 585.458L796.248 586.428L798.771 588.983L803.052 589.592L813.455 585.303L819.489 586.428L826.091 601.845L834.062 603.579L833.386 611.131L841.263 616.236L842.716 619.708L843.789 629.843L851.725 626.915L860.577 613.597L867.5 607.229L874.216 610.4L881.572 604.52L893.492 599.625L905.466 599.011L913.063 599.628L918.516 604.888L918.807 616.012L920.369 629.448L912.292 637.287L909.688 645.864L911.138 655.095L918.294 661.706L929.411 666.535L937.845 667.723L940.48 670.996L941.414 678.111L937.951 685.502L938.989 695.338M1094.9 646.345L1119.29 624.916L1128.56 608.75L1129.49 600.698L1137.72 600.941L1146.28 602.722M1094.9 646.345L1090.57 635.942L1095.03 627.692L1091.12 624.473L1079.83 625.092L1066.63 624.373L1061.15 614.116M1094.9 646.345L1084.4 658.073L1079.7 665.375L1087.55 677.149L1091.17 684.558L1089.24 699.338M420.977 657.282L416.002 648.179L402.432 641.619L392.782 637.767L382.464 639.545L370.886 632.597L364.889 617.124L347.313 613.681L341.433 615.784L334.048 615.285L327.652 616.854L319.949 615.762L310.45 611.796L303.387 614.669L297.335 624.713L289.885 622.041L281.889 620.024L274.419 621.097L262.506 616.268L247.77 615.36L238.456 607.929L225.612 605.816M773.942 689.156L780.7 673.217L772.596 663.8L765.542 657.071L773.637 643.505L781.107 644.094L782.97 654.328L790.511 654.571L797.454 656.866L807.448 654.764L809.976 657.984L812 673.217M709.62 759.117L705.521 747.543L701.389 740.219L694.887 731.376L689.047 722.186L685.407 713.145L680.497 711.477L677.77 708.934L671.384 702.452L673.867 694.723L683.343 693.995L683.452 688.177L677.991 682.745L667.425 672.738L657.368 663.069L648.572 660.92L644.743 650.17L642.147 644.202L641.669 631.542L640.681 617.691L640.035 605.204L645.181 597.457L645.183 582.569L648.63 573.469M1144.83 603.128C1143.9 600.363 1145.25 591.574 1145.1 588.81L1147.13 579.09L1151.89 580.219L1161.41 580.928L1163.75 573.162L1166.04 565.819L1173.3 559.626L1176.92 555.14L1185.63 552.48C1185.99 548.712 1187.14 544.482 1182.41 535.048L1179.01 520.644L1178.1 513.254L1179.98 498.104L1191.11 497.325L1200.5 487.747M1158.13 698.12L1162.52 689.798L1163.01 683.172L1164.42 680.151L1166.41 668.06L1175.26 653.018L1174.45 641.218L1155.7 620.593L1153.7 609.906L1145.74 603.233M349.675 728.408L360.008 724.98L352.866 719.462L350.193 714.339L350.872 710.051L360.015 695.964L373.816 692.9L370.221 687.491L379.653 684.734L384.903 679.935L392.096 677.281L394.334 671.67L402.398 667.278L399.964 662.277L407.359 659.928L405.804 655.231L409.206 650.947L413.583 653.394L413.58 659.009L420.976 657.281M174.678 724.737L167.74 737.31L166.55 739.468L155.997 758.608L155.607 761.718L152.138 765.154L151.136 771.856L147.048 780.681L148.816 783.244L151.809 784.931L153.609 788.93L155.911 790.045L157.246 792.539L160.013 792.291L160.572 797.086L159.619 801.923L159.981 805.795L160.721 808.137L163.346 808.738L163.078 811.193L163.962 815.556L163.209 818.616L161.3 822.468L160.659 826.453L157.978 829.737L157.455 831.945L156.082 833.925M406.527 658.814L424.329 669.502L420.266 674.765L411.563 689.634L406.735 695.664L410.864 702.815L417.323 707.379L421.582 711.45L428.787 706.768L436.541 706.36L433.248 715.401L438.1 727.174L438.172 734.713L431.135 747.274M267.471 793.898L272.33 784.307L269.032 776.492L275.371 774.384L283.72 777.454L285.572 764.43L289.039 754.531L285.355 747.141L285.726 740.658L292.082 734.953L308.914 743.603L321.029 748.12L330.946 745.979L338.877 735.752L342.35 730.11L344.544 725.492M170.136 732.684L190.131 751.531L211.021 759.56C214.035 763.963 210.691 764.703 213.625 767.82C218.049 772.517 222.12 769.845 225.048 772.143L233.819 769.505L244.507 774.266L254.226 785.951M254.225 785.95L262.528 789.302L270.878 797.104L285.103 801.712L277.723 809.245L286.403 826.584L278.792 839.127L271.22 839.381L264.884 850.549L272.733 858.696L282.02 859.817L288.059 871.849L303.244 876.798L307.026 865.63L314.367 869.829L318.182 876.398L319.915 883.716L321.916 891.218L321.81 899.541M601.72 691.791L608.532 680.231L621.399 678.063L640.321 668.671L648.647 660.001" stroke="#646666" stroke-width="3"/>
</svg>
