<svg width="1400" height="1139" viewBox="0 0 1400 1139" fill="none" xmlns="http://www.w3.org/2000/svg">
<path fill-rule="evenodd" clip-rule="evenodd" d="M412.041 134.782C411.953 134.778 411.865 134.786 411.779 134.806L406.373 136.029C406.286 136.049 406.201 136.08 406.122 136.123L399.497 139.673C399.419 139.714 399.348 139.766 399.284 139.826L395.294 143.575L392.69 145.193C392.524 145.296 392.392 145.445 392.31 145.622L391.247 147.919C391.15 148.131 391.129 148.37 391.188 148.595L391.946 151.461L391.297 153.031L384.848 158.24L379.054 158.466C378.94 158.47 378.828 158.494 378.722 158.537L376.034 159.61C375.945 159.645 375.862 159.693 375.787 159.752L373.471 161.573L368.328 160.787L362.752 158.933C362.292 158.78 361.788 158.98 361.557 159.406L359.672 162.889C359.641 162.848 359.606 162.809 359.568 162.772C359.361 162.573 359.078 162.472 358.791 162.496L356.236 162.708L348.23 157.95C347.946 157.781 347.598 157.763 347.299 157.902C347 158.04 346.788 158.317 346.733 158.642L345.723 164.603L343.999 168.477L338.407 170.776L333.1 171.355L327.348 171.725L325.55 170.88C325.466 170.841 325.378 170.813 325.287 170.798L322.715 170.377L320.844 166.352C320.677 165.992 320.313 165.765 319.916 165.773L317.146 165.831L312.217 164.897C312.059 164.867 311.897 164.875 311.743 164.922L308.118 166.011L306.387 165.284C306.295 165.245 306.197 165.221 306.098 165.211L299.289 164.543L296.865 163.289C296.76 163.234 296.645 163.199 296.527 163.185L290.944 162.504L286.546 158.845C286.428 158.747 286.29 158.678 286.142 158.642L279.73 157.082L271.907 153.598C271.868 153.58 271.828 153.566 271.787 153.553L267.648 152.311L265.386 150.098C265.303 150.016 265.205 149.949 265.098 149.901L251.473 143.755C251.407 143.725 251.337 143.702 251.265 143.687L248.109 143.031C247.971 143.002 247.829 143.003 247.691 143.034L242.378 144.203L236.279 142.424C236.215 142.406 236.15 142.394 236.084 142.388L231.553 142C231.514 141.997 231.475 141.996 231.436 141.997L228.623 142.086C228.473 142.091 228.325 142.129 228.191 142.199L225.185 143.773L221.662 143.581L218.115 143.051C218.066 143.044 218.016 143.04 217.967 143.04H215.248C215.129 143.04 215.011 143.061 214.9 143.103L207.837 145.728C207.809 145.738 207.781 145.75 207.754 145.763L203.816 147.642C203.418 147.832 203.191 148.261 203.259 148.697L203.529 150.449L202.957 151.834L200.347 153.27L197.178 148.938C197.097 148.827 196.994 148.735 196.876 148.665L193.157 146.487C192.927 146.353 192.653 146.315 192.396 146.384L189.583 147.13C189.23 147.223 188.956 147.502 188.868 147.856L188.337 150.003C188.273 150.263 188.315 150.538 188.455 150.766L190.111 153.468L191.084 156.517L189.996 161.068L188.005 163.022L181.218 168.897L179.583 169.009L177.289 168.132C176.815 167.951 176.281 168.153 176.046 168.602L174.531 171.496L170.35 174.51L167.274 175.76L163.4 175.704L163.384 175.703L160.525 175.614C160.105 175.601 159.721 175.852 159.565 176.243L158.133 179.831L156.356 181.766L153.982 183.182C153.902 183.23 153.83 183.288 153.767 183.355L147.767 189.709C147.67 189.811 147.596 189.933 147.55 190.065L146.612 192.75C146.525 192.998 146.54 193.27 146.651 193.507L148.901 198.28C149.064 198.624 149.407 198.846 149.787 198.853C150.168 198.86 150.519 198.651 150.694 198.313L153.253 193.369L156.343 190.879L157.368 191.531L156.781 196.758C156.73 197.209 156.991 197.638 157.414 197.802L159.377 198.56L159.94 201.245L160.091 203.267C160.107 203.49 160.199 203.701 160.349 203.867L162.474 206.194C162.72 206.463 163.093 206.577 163.448 206.491L164.304 206.284L163.489 208.09C163.384 208.323 163.372 208.587 163.456 208.828L164.707 212.44L164.985 214.294L164.441 218.239C164.405 218.504 164.476 218.773 164.639 218.985C164.802 219.197 165.044 219.335 165.309 219.368L167.43 219.63L168.397 221.586L167.382 221.424L164.769 219.62L162.994 217.192C162.744 216.849 162.304 216.702 161.897 216.825L157.217 218.243L158.424 219.967L161.798 218.945L163.255 220.937C163.321 221.028 163.402 221.107 163.494 221.17L166.432 223.198C166.555 223.283 166.695 223.339 166.842 223.363L169.993 223.867C170.362 223.926 170.734 223.774 170.956 223.473C171.178 223.172 171.213 222.772 171.047 222.436L168.984 218.26C168.835 217.959 168.545 217.752 168.21 217.711L166.561 217.507L166.986 214.425C166.999 214.33 166.998 214.234 166.984 214.14L166.671 212.052C166.662 211.991 166.647 211.931 166.627 211.873L165.476 208.55L166.968 205.244C167.125 204.896 167.071 204.488 166.827 204.194C166.583 203.9 166.193 203.771 165.822 203.86L163.553 204.408L162.059 202.773L161.929 201.03C161.926 200.986 161.92 200.942 161.911 200.899L161.223 197.618C161.153 197.286 160.92 197.013 160.604 196.89L158.855 196.214L159.425 191.134C159.467 190.754 159.29 190.384 158.968 190.179L156.812 188.807C156.45 188.576 155.982 188.602 155.648 188.872L151.835 191.944C151.726 192.031 151.638 192.139 151.574 192.263L149.848 195.597L148.635 193.024L149.368 190.927L155.126 184.829L157.506 183.409C157.589 183.359 157.665 183.298 157.73 183.227L159.73 181.049C159.813 180.959 159.878 180.856 159.923 180.743L161.163 177.635L163.338 177.703L163.354 177.703L167.448 177.763C167.582 177.765 167.715 177.74 167.839 177.69L171.214 176.318C171.288 176.288 171.358 176.249 171.423 176.202L175.892 172.98C176.018 172.89 176.121 172.771 176.193 172.633L177.405 170.318L179.075 170.955C179.21 171.007 179.355 171.029 179.5 171.019L181.688 170.87C181.904 170.855 182.11 170.77 182.274 170.628L189.337 164.513C189.344 164.507 189.351 164.501 189.357 164.495C189.366 164.487 189.375 164.479 189.383 164.471L191.602 162.294C191.736 162.162 191.831 161.996 191.875 161.813L193.094 156.711C193.136 156.533 193.129 156.348 193.074 156.174L191.98 152.744C191.955 152.668 191.922 152.594 191.88 152.526L190.379 150.077L190.668 148.911L192.506 148.424L195.686 150.286L199.252 155.16C199.549 155.565 200.1 155.688 200.541 155.445L204.229 153.417C204.428 153.308 204.584 153.133 204.671 152.923L205.484 150.954C205.554 150.785 205.576 150.6 205.548 150.42L205.349 149.127L208.575 147.587L215.428 145.04H217.893L221.413 145.566C221.444 145.571 221.475 145.574 221.507 145.576L225.351 145.785C225.53 145.795 225.709 145.756 225.869 145.672L228.916 144.077L231.441 143.998L235.814 144.372L242.063 146.194C242.224 146.241 242.394 146.247 242.558 146.211L247.912 145.033L250.751 145.623L264.114 151.651L266.425 153.913C266.541 154.026 266.682 154.11 266.837 154.156L271.151 155.451L278.999 158.946C279.054 158.97 279.111 158.99 279.17 159.004L285.444 160.53L289.891 164.23C290.039 164.353 290.219 164.431 290.41 164.454L296.106 165.148L298.54 166.407C298.653 166.466 298.776 166.502 298.902 166.514L305.752 167.187L307.675 167.994C307.889 168.084 308.127 168.097 308.35 168.03L312.085 166.907L316.876 167.816C316.944 167.829 317.013 167.834 317.083 167.833L319.305 167.787L321.124 171.7C321.264 172 321.543 172.212 321.869 172.265L324.826 172.75L326.731 173.644C326.883 173.716 327.052 173.748 327.22 173.737L333.251 173.349C333.266 173.348 333.281 173.347 333.295 173.345L338.764 172.748C338.858 172.738 338.949 172.715 339.036 172.679L345.13 170.174C345.368 170.076 345.559 169.891 345.664 169.656L347.602 165.301C347.636 165.224 347.66 165.144 347.674 165.061L348.461 160.414L355.489 164.591C355.668 164.697 355.875 164.745 356.083 164.728L357.822 164.583L357.69 167.46L356.3 167.836C355.871 167.952 355.57 168.337 355.561 168.782C355.552 169.226 355.838 169.623 356.263 169.756L359.513 170.771C359.941 170.905 360.406 170.737 360.65 170.36L362.256 167.883L363.996 165.569L369.432 165.596C369.892 165.599 370.294 165.287 370.407 164.841C370.519 164.394 370.313 163.929 369.906 163.713L368.158 162.784L373.598 163.616C373.871 163.658 374.15 163.584 374.367 163.413L376.91 161.413L379.304 160.458L385.257 160.225C385.472 160.217 385.679 160.139 385.846 160.004L392.752 154.426C392.882 154.321 392.984 154.185 393.048 154.03L393.923 151.913C394.007 151.711 394.022 151.487 393.966 151.276L393.214 148.432L394 146.734L396.434 145.222C396.49 145.187 396.542 145.146 396.591 145.101L400.557 141.373L406.947 137.95L412.091 136.786L423.346 137.248L431.028 140.929L437.053 144.481L435.509 145.506C435.349 145.612 435.223 145.762 435.146 145.937L434.333 147.787C434.182 148.132 434.237 148.534 434.477 148.825C434.717 149.116 435.1 149.248 435.468 149.165L439.954 148.158L441.082 150.02C441.255 150.307 441.56 150.487 441.895 150.501L444.8 150.623C445.116 150.637 445.419 150.5 445.619 150.254C445.818 150.009 445.889 149.683 445.811 149.377L445.248 147.17C445.194 146.959 445.073 146.772 444.903 146.636L442.675 144.855L443.84 142.649L453.08 145.479C453.161 145.504 453.245 145.519 453.33 145.522L459.519 145.786L462.807 146.765C462.958 146.81 463.118 146.818 463.273 146.79L466.992 146.104C466.998 146.103 467.003 146.102 467.008 146.101L467.02 146.098L471.743 145.089L474.591 144.64L476.722 145.847L477.327 149.261C477.364 149.47 477.468 149.663 477.621 149.81L480.402 152.465C480.5 152.558 480.616 152.63 480.742 152.678L483.887 153.855L491.063 160.908L492.489 163.119L493.821 165.425C493.869 165.508 493.928 165.583 493.997 165.649L495.792 167.362L495.173 169.27C495.052 169.64 495.159 170.047 495.445 170.312L497.539 172.25C497.882 172.568 498.4 172.605 498.785 172.34L501.584 170.412L509.313 169.996L510.897 170.935L512.267 173.224C512.324 173.32 512.397 173.405 512.483 173.477L515.014 175.595C515.067 175.639 515.124 175.678 515.185 175.71L519.307 177.912L523.014 180.67L522.73 182.521C522.681 182.845 522.793 183.173 523.031 183.398C523.27 183.624 523.603 183.718 523.924 183.651L526.717 183.065L531.499 185.361L535.677 188.211C535.695 188.224 535.714 188.235 535.733 188.246C535.752 188.258 535.772 188.269 535.791 188.279L538.56 189.671L541.418 192.457C541.541 192.577 541.693 192.664 541.86 192.708L546.63 193.973L547.454 196.309C547.559 196.606 547.797 196.836 548.097 196.93L550.66 197.736C551.027 197.852 551.427 197.746 551.69 197.465L553.421 195.615L557.266 198.507C557.371 198.585 557.49 198.643 557.617 198.676L561.898 199.78C562.001 199.806 562.107 199.816 562.212 199.809L566.369 199.54C566.502 199.532 566.632 199.496 566.751 199.437L571.162 197.23L573.969 196.674L577.34 200.107C577.562 200.333 577.878 200.44 578.192 200.397L583.126 199.712L586.256 200.689C586.769 200.849 587.317 200.575 587.496 200.069L589.336 194.888L592.837 191.017L595.327 189.667L597.85 189.024L606.27 189.843C606.415 189.857 606.562 189.839 606.699 189.79L608.527 189.146L611.213 189.377L614.392 191.236L618.124 194.71C618.171 194.755 618.224 194.795 618.279 194.829L623.901 198.301L625.524 201.233C625.721 201.589 626.115 201.79 626.52 201.741L630.164 201.296L634.803 206.381L639.822 215.256L642.211 220.409C642.289 220.578 642.413 220.722 642.569 220.824L646.037 223.1L653.75 229.072L659.966 234.887C660 234.919 660.036 234.949 660.074 234.976L663.262 237.213C663.34 237.268 663.426 237.311 663.516 237.341L675.235 241.309C675.302 241.332 675.37 241.347 675.44 241.355L682.315 242.16C682.435 242.175 682.557 242.167 682.675 242.137L685.808 241.347L691.528 242.044L696.308 245.029C696.502 245.149 696.731 245.2 696.958 245.173L699.219 244.9L703.998 246.336L709.357 249.04C709.509 249.117 709.678 249.153 709.849 249.146L713.374 249.003L716.059 249.601C716.137 249.619 716.216 249.627 716.295 249.625L724.608 249.476C724.645 249.475 724.683 249.473 724.72 249.468C724.749 249.464 724.777 249.459 724.806 249.453L731.15 248.051C731.177 248.045 731.204 248.037 731.231 248.029L735.544 246.687C735.561 246.682 735.578 246.676 735.595 246.67L738.97 245.417C739.082 245.375 739.185 245.314 739.275 245.237L741.869 243C742.002 242.885 742.102 242.738 742.16 242.572L743.84 237.762L749.31 231.973L752.466 230.522L757.539 229.501C757.579 229.493 757.618 229.482 757.656 229.47L760 228.695L760.01 228.691C760.021 228.687 760.033 228.683 760.044 228.679L762.669 227.672L764.777 228.704C764.932 228.779 765.104 228.814 765.276 228.804L769.839 228.535C769.918 228.53 769.997 228.516 770.073 228.492L775.759 226.751L779.372 226.861L785.003 228.895C785.017 228.9 785.031 228.904 785.045 228.909C785.058 228.913 785.072 228.917 785.086 228.921L788.178 229.744L791.548 231.966L792.024 234.106C792.058 234.262 792.13 234.407 792.232 234.53L794.67 237.454C794.89 237.718 795.23 237.85 795.57 237.804L798.289 237.441L800.618 239.193C800.72 239.271 800.837 239.327 800.961 239.36L803.47 240.029L807.137 246.296C807.163 246.342 807.194 246.385 807.227 246.426L809.616 249.335L809.813 252.744L809.638 256.231L805.714 264.979C805.618 265.195 805.6 265.439 805.666 265.666L806.267 267.742L806.09 269.306L803.95 273.592C803.889 273.714 803.854 273.848 803.846 273.985L803.596 278.698C803.589 278.841 803.612 278.983 803.664 279.116L804.82 282.069C804.869 282.193 804.942 282.307 805.035 282.403L808.91 286.371C809.022 286.485 809.159 286.571 809.31 286.621L812.464 287.671L815.05 290.558L814.52 292.511L812.857 296.596L810.405 296.91C810.013 296.961 809.687 297.237 809.574 297.615L808.761 300.33C808.657 300.677 808.749 301.052 809 301.312C809.251 301.572 809.624 301.676 809.973 301.584L812.31 300.97L813.025 302.165L812.813 310.824C812.812 310.861 812.813 310.897 812.817 310.934C812.819 310.957 812.821 310.98 812.825 311.003C812.829 311.031 812.835 311.06 812.842 311.088L814.498 317.8C814.519 317.885 814.551 317.967 814.594 318.044L822.406 332.159L823.843 337.908C823.868 338.01 823.91 338.108 823.966 338.197L827.716 344.163C827.766 344.243 827.827 344.315 827.897 344.377L833.969 349.796L835.132 352.766C835.184 352.899 835.264 353.02 835.367 353.12L837.302 354.993L839.599 359.784C839.644 359.877 839.703 359.963 839.774 360.038L846.68 367.346C846.734 367.403 846.795 367.454 846.861 367.497L851.392 370.45C851.436 370.479 851.482 370.504 851.53 370.525C851.596 370.555 851.665 370.577 851.735 370.592L853.812 371.021L857.405 373.912C857.552 374.031 857.731 374.105 857.919 374.127L860.429 374.412L864.725 375.953C864.75 375.963 864.776 375.971 864.802 375.978C864.831 375.985 864.859 375.992 864.888 375.997L869.419 376.803C869.555 376.827 869.695 376.823 869.83 376.79L875.236 375.477L875.237 375.477L879.351 374.473L882.15 374.754C882.283 374.768 882.417 374.754 882.544 374.715L884.575 374.089C884.683 374.056 884.784 374.005 884.874 373.938L888.607 371.186L890.642 370.419L894.043 370.699C894.158 370.708 894.273 370.698 894.384 370.668L897.026 369.959L905.57 370.165C905.58 370.165 905.591 370.165 905.601 370.165C905.615 370.165 905.629 370.165 905.643 370.164L908.049 370.045C908.079 370.044 908.108 370.041 908.138 370.037C908.169 370.032 908.2 370.027 908.231 370.019L913.887 368.675C913.937 368.663 913.987 368.647 914.034 368.628L916.659 367.555C916.859 367.473 917.026 367.33 917.137 367.145L919.699 362.893L922.406 363.063C922.815 363.089 923.198 362.863 923.373 362.493L924.406 360.309L926.911 358.715L928.926 358.737L930.987 359.87C931.287 360.034 931.65 360.034 931.95 359.87L934.965 358.217L937.727 359.001C937.825 359.029 937.927 359.042 938.029 359.039L945.054 358.835L947.426 359.236C947.45 359.24 947.474 359.243 947.498 359.246L954.342 359.902C954.467 359.914 954.593 359.902 954.714 359.867L959.267 358.554L961.8 360.062C962.034 360.202 962.315 360.24 962.578 360.167L965.138 359.462L967.667 360.089L969.61 362.643C969.849 362.957 970.251 363.101 970.636 363.01L973.667 362.294C973.809 362.261 973.942 362.197 974.057 362.106L976.078 360.509L977.609 361.311L980.326 363.789C980.459 363.911 980.623 363.994 980.799 364.03L983.863 364.658C983.97 364.68 984.079 364.684 984.188 364.671L986.608 364.369L990.393 367.791C990.652 368.025 991.013 368.107 991.348 368.008L994.361 367.116L997.127 370.247C997.198 370.327 997.281 370.395 997.373 370.449L1000.03 372C1000.19 372.092 1000.37 372.139 1000.55 372.136L1001.94 372.116L1002.98 374.232C1003.2 374.684 1003.72 374.901 1004.2 374.739L1006.3 374.023C1006.63 373.909 1006.88 373.628 1006.95 373.284L1008.28 367.009L1008.82 365.32L1019.43 357.912L1024.31 357.026C1024.4 357.009 1024.49 356.978 1024.58 356.934L1027.17 355.621C1027.39 355.513 1027.56 355.332 1027.65 355.11L1028.67 352.621L1030.99 351.279L1033.34 351.743C1033.77 351.828 1034.2 351.625 1034.41 351.242L1037.24 346.068L1039.48 345.725L1041.22 346.931C1041.44 347.09 1041.73 347.146 1042 347.086L1043.78 346.695L1044 348.481L1042.36 351.503L1038.53 355.956C1038.49 355.995 1038.46 356.037 1038.44 356.08C1038.42 356.11 1038.4 356.14 1038.39 356.171L1036.22 360.63L1033.38 364.12C1033.36 364.155 1033.33 364.192 1033.31 364.23C1033.29 364.249 1033.28 364.269 1033.27 364.289L1031.46 367.779C1031.32 368.054 1031.31 368.38 1031.44 368.661L1033 372.032C1033.14 372.319 1033.4 372.526 1033.71 372.59L1040.58 374.022C1040.73 374.053 1040.88 374.05 1041.03 374.013L1043.16 373.476C1043.27 373.446 1043.38 373.395 1043.48 373.326L1047.11 370.796L1048.81 370.656L1051.86 371.72C1052.03 371.779 1052.21 371.792 1052.38 371.758L1056.1 371.041C1056.31 371.001 1056.5 370.898 1056.64 370.744L1059.19 368.036L1063.05 367.074L1066.34 367.382L1066.9 369.448L1066.56 372.36L1064.77 377.133L1062.86 379.808L1055.61 385.631L1053.71 386.442C1053.61 386.484 1053.52 386.54 1053.44 386.61L1048.85 390.636C1048.73 390.737 1048.64 390.862 1048.58 391.003L1044.39 401.026C1044.35 401.136 1044.32 401.254 1044.32 401.374L1044.2 404.519L1042.24 408.29L1040.22 410.503L1038 410.872L1032.24 410.302L1029.15 409.072C1029.08 409.044 1029.01 409.024 1028.93 409.012L1024.91 408.405L1021.09 406.73C1020.93 406.66 1020.76 406.633 1020.59 406.651L1017.28 406.996L1014.94 405.108C1014.74 404.943 1014.48 404.864 1014.22 404.89L1010.54 405.25L1006.7 403.322C1006.55 403.245 1006.38 403.209 1006.21 403.216L1003.43 403.335C1003.09 403.35 1002.77 403.541 1002.6 403.84L1001.49 405.791L991.16 405.454C991.125 405.453 991.089 405.453 991.054 405.456L980.616 406.231C980.414 406.246 980.221 406.322 980.063 406.449L977.364 408.62L974.81 406.23C974.638 406.069 974.413 405.973 974.177 405.962L967.938 405.647L964.221 403.31C964.133 403.254 964.036 403.213 963.934 403.187L954.153 400.71C954.072 400.689 953.988 400.679 953.903 400.679L947.592 400.708L942.049 398.569C941.912 398.516 941.765 398.494 941.619 398.505L938.244 398.743L938.23 398.744L934.861 399.026L931.391 397.95C931.354 397.939 931.316 397.929 931.278 397.922C931.233 397.914 931.188 397.909 931.142 397.906L928.611 397.787C928.551 397.785 928.491 397.787 928.431 397.795L923.776 398.418L919.762 396.896C919.732 396.884 919.7 396.874 919.668 396.866C919.638 396.858 919.607 396.851 919.576 396.845L912.001 395.557L908.945 394.041C908.851 393.995 908.75 393.963 908.646 393.948L906.208 393.591C906.106 393.576 906.002 393.577 905.9 393.594L901.931 394.25C901.703 394.287 901.495 394.403 901.342 394.577L899.248 396.963C899.095 397.137 899.007 397.36 899 397.592L898.876 401.734L897.98 407.338C897.949 407.533 897.977 407.733 898.059 407.913L899.849 411.82L900.239 414.083L898.512 417.517C898.46 417.621 898.427 417.733 898.413 417.849L898.007 421.28L896.528 433.708L892.475 436.405C892.244 436.558 892.087 436.801 892.042 437.074C891.997 437.348 892.068 437.628 892.237 437.847L895.706 442.352C895.782 442.451 895.876 442.535 895.982 442.599L898.17 443.915L902.404 447.926C902.631 448.141 902.945 448.238 903.253 448.187L908.805 447.279L912.419 447.454C912.531 447.46 912.645 447.446 912.753 447.413L921.266 444.873L923.259 444.628L925.11 445.832C925.352 445.989 925.651 446.034 925.929 445.955L930.348 444.697L932.383 445.388L935.81 446.921C936.138 447.068 936.521 447.027 936.811 446.813L939.72 444.67L943.333 445.52C943.385 445.532 943.438 445.54 943.492 445.544L945.397 445.677L948.384 447.325L949.465 449.045C949.679 449.385 950.076 449.564 950.472 449.499L958.061 448.268L960.449 450.652C960.532 450.734 960.628 450.801 960.733 450.85L963.546 452.163C964.036 452.392 964.618 452.19 964.862 451.708L967.737 446.01C967.826 445.833 967.861 445.634 967.836 445.437L967.461 442.395C967.394 441.851 966.901 441.462 966.356 441.524L963.731 441.822L963.713 441.824L958.057 442.57C958.048 442.571 958.038 442.572 958.028 442.574L955.674 442.954L955.801 442.62L961.738 440.539L964.201 440.188L971.074 441.413C971.156 441.427 971.24 441.432 971.322 441.426L976.738 441.032L979.127 442.578L980.474 445.368C980.645 445.722 981.008 445.943 981.401 445.933L983.477 445.878L984.893 446.443L983.89 449.645C983.823 449.857 983.829 450.085 983.907 450.293L985.063 453.395C985.081 453.444 985.103 453.491 985.128 453.536C985.154 453.583 985.184 453.627 985.217 453.668L988.061 457.248C988.218 457.446 988.443 457.577 988.693 457.615L997.571 458.973L1000.68 461.587C1000.83 461.711 1001.01 461.79 1001.2 461.814L1004.36 462.202C1004.53 462.222 1004.69 462.201 1004.85 462.14L1010.82 459.789L1012.32 459.993L1014.85 463.576C1014.97 463.742 1015.13 463.868 1015.32 463.938L1020.92 465.99L1027.72 472.095C1027.98 472.329 1028.34 472.41 1028.68 472.308L1035.11 470.349L1035.15 470.339L1040.95 468.805L1047.49 473.899C1047.62 473.997 1047.77 474.063 1047.92 474.093L1051.84 474.839L1054.52 476.261C1054.6 476.307 1054.7 476.34 1054.79 476.359L1057.58 476.895C1057.74 476.927 1057.91 476.917 1058.07 476.866L1064.85 474.698L1067.13 475.447L1069.3 476.92C1069.61 477.13 1070.01 477.151 1070.34 476.972L1072.87 475.6C1073.23 475.403 1073.43 475.003 1073.38 474.593L1073.12 472.527L1073.29 470.708L1073.29 470.701L1073.76 466.204C1073.81 465.705 1073.49 465.245 1073 465.128L1068.94 464.151L1068.49 463.877L1071.06 462.919L1073.71 464.181L1075.13 466.093L1078.47 472.639C1078.55 472.805 1078.68 472.944 1078.84 473.04L1082.53 475.277C1082.74 475.408 1083 475.453 1083.25 475.402L1085.49 474.939L1087.16 478.734C1087.29 479.013 1087.53 479.22 1087.82 479.298L1089.9 479.842L1093.58 482.753C1093.62 482.781 1093.65 482.806 1093.69 482.828C1093.73 482.849 1093.76 482.868 1093.8 482.884L1095.83 483.78C1095.93 483.823 1096.03 483.851 1096.14 483.861L1099.89 484.218C1099.93 484.221 1099.96 484.223 1100 484.222C1100.03 484.222 1100.07 484.219 1100.1 484.215L1103.82 483.776L1111.1 483.835C1111.21 483.836 1111.31 483.82 1111.42 483.787L1113.54 483.1L1113.55 483.099L1116.73 482.055C1116.8 482.033 1116.86 482.006 1116.92 481.972C1116.97 481.941 1117.02 481.905 1117.07 481.865L1119.17 480.076C1119.34 479.93 1119.45 479.732 1119.5 479.512L1120.06 476.707C1120.13 476.358 1120.01 475.997 1119.74 475.761L1117.64 473.901L1118 472.495L1126.26 472.768C1126.6 472.779 1126.92 472.618 1127.12 472.341L1130.23 467.89L1132.9 467.131L1135.05 468.597C1135.31 468.775 1135.64 468.82 1135.94 468.716L1139.78 467.387L1142.35 467.201L1147.99 468.815L1161.17 476.719L1165.09 480.32C1165.23 480.45 1165.41 480.537 1165.6 480.569L1168.22 481.016C1168.36 481.039 1168.5 481.034 1168.63 481.002L1174.55 479.553L1183.37 485.369C1183.56 485.488 1183.77 485.546 1183.99 485.532L1188.39 485.263L1188.41 485.262L1190.16 485.132L1195.02 487.269C1195.07 487.288 1195.11 487.304 1195.16 487.317C1195.19 487.327 1195.23 487.335 1195.26 487.34L1199.35 488.005L1202.6 491.211C1202.71 491.323 1202.85 491.406 1203 491.454L1206.83 492.663L1210.59 494.243L1219.56 500.625L1223.46 504.022C1223.59 504.14 1223.75 504.219 1223.93 504.251L1225.64 504.569L1229.72 510.041C1229.76 510.094 1229.8 510.143 1229.85 510.187C1229.9 510.228 1229.94 510.264 1230 510.295L1232.65 511.924L1241.78 519.794L1248.16 528.328C1248.18 528.365 1248.21 528.4 1248.25 528.433L1256.15 536.423L1258.34 539.074C1258.43 539.183 1258.55 539.271 1258.67 539.333L1261.03 540.5L1263.21 542.951C1263.26 543.001 1263.31 543.046 1263.36 543.086L1267.38 546.104L1277.13 556.656C1277.18 556.712 1277.24 556.761 1277.3 556.804L1282.21 560.145C1282.5 560.346 1282.88 560.374 1283.21 560.219L1285.52 559.101L1291.68 566.689C1291.76 566.79 1291.87 566.874 1291.98 566.937L1295.91 569.084L1298.41 572.045C1298.54 572.197 1298.71 572.307 1298.91 572.361L1305.53 574.24C1305.61 574.263 1305.69 574.276 1305.78 574.278L1307.42 574.323L1309.36 577.471C1309.37 577.492 1309.38 577.512 1309.4 577.531C1309.43 577.574 1309.46 577.615 1309.5 577.652L1312.38 580.546C1312.41 580.585 1312.46 580.621 1312.5 580.653C1312.53 580.671 1312.55 580.689 1312.58 580.705L1315.42 582.362L1317.78 586.429C1317.81 586.482 1317.85 586.532 1317.89 586.578C1317.96 586.659 1318.04 586.729 1318.13 586.784L1324.27 590.458L1327.14 595.907C1327.18 595.996 1327.25 596.078 1327.32 596.149L1332.85 601.668C1333.08 601.903 1333.42 602.006 1333.75 601.941L1336.67 601.367L1339.9 601.474L1343.32 603.639L1346.54 606.53L1346.54 606.536L1348.72 608.527L1355.6 616.108L1356.78 621.585L1353.93 633.135L1350.82 636.527C1350.78 636.572 1350.74 636.62 1350.71 636.672C1350.69 636.692 1350.68 636.712 1350.67 636.733L1347.34 643.011L1342.7 648.967C1342.61 649.085 1342.55 649.222 1342.51 649.368L1341.35 654.711L1337.33 659.604L1333.56 661.417C1333.28 661.552 1333.07 661.81 1333.01 662.115L1331.85 667.701L1327.87 675.109L1320.66 680.616C1320.61 680.656 1320.56 680.701 1320.52 680.751C1320.5 680.773 1320.48 680.796 1320.46 680.82L1315.24 687.949C1315.17 688.056 1315.11 688.178 1315.08 688.308L1313.2 696.183C1313.18 696.283 1313.17 696.387 1313.18 696.49L1313.73 703.742L1312.82 707.983L1308.96 715.731L1307.39 717.616L1304.62 717.85C1304.49 717.861 1304.36 717.898 1304.25 717.959L1301.14 719.574L1290.58 716.932L1282.69 714.231C1282.57 714.192 1282.45 714.174 1282.33 714.178L1279.77 714.255L1277.35 712.026C1277.29 711.964 1277.21 711.912 1277.13 711.87L1268.75 707.602L1263.36 703.967C1263.23 703.881 1263.08 703.825 1262.93 703.805L1260.68 703.507C1260.36 703.464 1260.04 703.58 1259.82 703.818L1254.53 709.515C1254.29 709.779 1254.21 710.153 1254.31 710.495L1255.53 714.373C1255.55 714.411 1255.56 714.449 1255.58 714.486C1255.59 714.519 1255.61 714.552 1255.63 714.583L1259.68 721.413L1257.6 727.802L1252.82 733.347L1252.82 733.353L1250.57 736.008C1250.54 736.046 1250.51 736.087 1250.48 736.129L1248.92 738.664C1248.85 738.771 1248.81 738.889 1248.78 739.012L1246.44 752.044L1246.44 752.047L1245.5 757.175C1245.5 757.204 1245.49 757.233 1245.49 757.261C1245.48 757.349 1245.49 757.437 1245.5 757.524L1246.64 764.193L1246.16 765.612L1242.8 764.381C1242.72 764.352 1242.63 764.333 1242.55 764.325C1242.45 764.315 1242.35 764.321 1242.25 764.341L1238.1 765.209L1235.77 765.068C1235.66 765.062 1235.56 765.072 1235.46 765.097L1229.88 766.502L1225.07 766.616L1219.53 765.504C1219.27 765.452 1219 765.505 1218.78 765.65L1214.97 768.173L1214.64 767.615L1215.86 766.772C1216.11 766.605 1216.26 766.338 1216.29 766.043L1216.51 763.776C1216.56 763.231 1216.17 762.745 1215.62 762.686L1209.81 762.059C1209.27 762 1208.77 762.392 1208.71 762.938L1208.35 766.072L1208.17 766.672L1208.16 766.667L1208.6 763.303C1208.62 763.174 1208.61 763.043 1208.58 762.917L1207.61 759.277C1207.6 759.235 1207.58 759.194 1207.57 759.154C1207.55 759.108 1207.52 759.064 1207.5 759.022L1202.66 750.909L1202.65 750.906L1200.17 746.778L1197.42 739.466C1197.4 739.417 1197.38 739.37 1197.35 739.324L1194.54 734.372C1194.53 734.344 1194.51 734.315 1194.49 734.288L1189.86 727.756L1189.86 727.752L1187.39 724.31L1184.42 718.904C1184.41 718.876 1184.39 718.849 1184.37 718.823C1184.36 718.801 1184.34 718.779 1184.33 718.758C1184.31 718.744 1184.3 718.731 1184.29 718.718C1184.28 718.706 1184.27 718.695 1184.26 718.683L1177 711.315L1174.98 706.051C1174.9 705.841 1174.75 705.664 1174.56 705.549L1165.34 700.09C1165.32 700.077 1165.29 700.065 1165.27 700.054C1165.24 700.037 1165.2 700.023 1165.17 700.01L1157.04 697.057C1156.9 697.006 1156.75 696.987 1156.6 697.002L1151.64 697.507L1150.44 695.687C1150.28 695.439 1150.01 695.276 1149.72 695.243L1146.96 694.938L1144.45 693.492C1144.3 693.403 1144.12 693.357 1143.95 693.358L1139.98 693.385L1137.1 691.125C1136.91 690.977 1136.68 690.902 1136.44 690.912L1133.69 691.031C1133.46 691.041 1133.24 691.131 1133.07 691.285L1129.63 694.361L1127.75 695.323L1115.25 696.735C1115.2 696.74 1115.15 696.749 1115.1 696.761L1105.82 699.206L1096.25 699.323L1091.18 698.473C1091.15 698.468 1091.12 698.464 1091.09 698.462L1087.32 698.171L1084.13 697.269L1079.21 694.834C1079.16 694.81 1079.11 694.789 1079.06 694.773C1079.01 694.759 1078.96 694.748 1078.91 694.741L1073.16 693.905C1073.1 693.896 1073.05 693.893 1072.99 693.895L1068.76 694.009L1061.79 691.21L1059.08 689.199C1058.98 689.127 1058.87 689.072 1058.75 689.039L1056.12 688.3L1053.21 685.553L1052.72 681.79C1052.7 681.622 1052.64 681.461 1052.54 681.325L1050.38 678.402C1050.22 678.178 1049.97 678.033 1049.69 678.002L1047.07 677.703C1046.95 677.69 1046.84 677.696 1046.72 677.722L1036.06 680.208L1025.81 680.681C1025.71 680.686 1025.6 680.708 1025.5 680.745L1019.44 683.044L1016.11 683.178L1013.23 682.121L1013.5 680.05C1013.54 679.765 1013.45 679.478 1013.27 679.261L1010.95 676.618L1009.54 673.698C1009.49 673.597 1009.42 673.506 1009.35 673.426L1006.78 670.861C1006.44 670.521 1005.91 670.471 1005.51 670.743C1005.11 671.014 1004.97 671.53 1005.16 671.971L1006.63 675.312C1006.64 675.337 1006.65 675.362 1006.66 675.386L1008.02 677.891L1009.05 680.144L1007.48 682.953C1007.45 683.017 1007.42 683.085 1007.4 683.155L1006.62 685.761L1004.65 686.654L1002.06 687.121L990.044 686.738L984.888 685.913C984.831 685.904 984.774 685.9 984.716 685.9L978.06 685.99C978.01 685.991 977.96 685.995 977.911 686.004L965.63 688.032C965.544 688.046 965.46 688.071 965.381 688.107L962.596 689.365L956.32 690.388C956.278 690.395 956.236 690.405 956.194 690.417C956.185 690.42 956.175 690.423 956.166 690.426L946.739 693.553L938.936 694.346L938.911 694.348L936.622 694.523L933.433 694.579L930.192 693.14L922.677 687.089L920.867 683.606C920.781 683.441 920.651 683.303 920.49 683.207L917.427 681.388C917.417 681.382 917.406 681.376 917.395 681.37C917.384 681.364 917.372 681.358 917.361 681.352L914.048 679.711C913.984 679.679 913.916 679.655 913.847 679.637L910.034 678.683C909.948 678.662 909.86 678.652 909.771 678.653L906.74 678.713C906.718 678.714 906.696 678.715 906.674 678.717C906.636 678.72 906.598 678.726 906.56 678.733L902.029 679.658C901.836 679.698 901.66 679.793 901.521 679.932L899.052 682.408C898.847 682.614 898.741 682.899 898.763 683.188L898.951 685.723C898.959 685.83 898.984 685.935 899.025 686.034L901.249 691.369L899.683 695.611L897.657 695.655L890.145 693.725L887.742 692.316L883.711 688.971L882.794 686.215L882.884 682.243C882.889 681.993 882.801 681.75 882.637 681.562L878.856 677.237C878.677 677.033 878.423 676.91 878.151 676.896L874.524 676.721L859.55 673.192C859.48 673.175 859.408 673.166 859.336 673.165L851.326 673.048L847.879 672.407C847.854 672.402 847.829 672.399 847.804 672.396C847.741 672.389 847.679 672.388 847.616 672.393L839.128 673.072L828.015 671.595C827.944 671.586 827.872 671.584 827.801 671.59L814.465 672.68L813.175 666.389C813.12 666.125 812.961 665.893 812.733 665.748C812.506 665.602 812.229 665.555 811.966 665.617L809.935 666.095C809.632 666.166 809.38 666.374 809.252 666.658C809.124 666.941 809.136 667.268 809.283 667.542L810.798 670.355L810.215 671.63L802.934 674.116C802.858 674.142 802.786 674.177 802.719 674.22L798.844 676.696C798.772 676.741 798.707 676.796 798.649 676.858L794.384 681.452L785.555 686.288L781.348 687.241L781.346 687.241L779.347 687.698L769.974 687.993C769.86 687.996 769.747 688.019 769.641 688.061L766.28 689.378L765.261 687.476C765.09 687.156 764.758 686.953 764.394 686.948C764.03 686.943 763.693 687.136 763.512 687.452L761.856 690.346C761.826 690.398 761.801 690.453 761.781 690.51L759.045 698.288L757.031 701.185L757.028 701.19L752.069 708.244L752.062 708.254L749.288 712.091L749.276 712.11L746.151 716.644C746.108 716.705 746.073 716.771 746.045 716.841L742.135 726.646L740.43 729.576L734.658 732.932C734.563 732.987 734.477 733.058 734.405 733.142L732.03 735.887C731.998 735.924 731.969 735.962 731.943 736.003C731.92 736.04 731.899 736.077 731.881 736.116L729.308 741.598L725.625 744.129C725.531 744.194 725.448 744.275 725.381 744.368L722.537 748.306C722.5 748.357 722.469 748.411 722.442 748.468L718.386 757.15L717.009 758.593L714.214 757.803C714.099 757.77 713.979 757.759 713.859 757.769L709.546 758.126C709.522 758.128 709.498 758.131 709.474 758.134L704.848 758.861L702.91 758.678L698.741 756.89C698.587 756.824 698.419 756.798 698.252 756.814L696.064 757.023C695.889 757.039 695.721 757.102 695.578 757.205L690.941 760.517L688.712 761.508L680.445 757.421C680.43 757.414 680.415 757.407 680.4 757.4C680.38 757.391 680.359 757.383 680.338 757.376L674.994 755.467C674.93 755.443 674.863 755.427 674.795 755.418C674.743 755.411 674.691 755.407 674.638 755.408L670.107 755.497C669.967 755.5 669.829 755.532 669.702 755.592L665.697 757.474L659.077 759.6L653.241 760.197L648.827 758.993C648.754 758.973 648.678 758.962 648.602 758.959L643.26 758.757L639.34 757.043C639.253 757.005 639.161 756.98 639.067 756.967L635.598 756.52C635.56 756.516 635.522 756.513 635.485 756.512C635.449 756.512 635.414 756.513 635.378 756.516L630.534 756.963C630.475 756.969 630.416 756.98 630.359 756.996C630.309 757.009 630.261 757.027 630.214 757.048L625.658 759.106L622.114 759.594C622.007 759.608 621.903 759.64 621.807 759.688L619.151 761.001C619.065 761.043 618.986 761.097 618.916 761.162L616.296 763.577L612.711 765.43L598.102 771.198L598.098 771.2L594.217 772.75L592.831 772.832L590.058 769.731C590.032 769.702 590.004 769.674 589.975 769.648C589.93 769.608 589.882 769.573 589.831 769.542L587.518 768.141C587.362 768.046 587.183 767.996 587 767.996H582.734C582.653 767.996 582.572 768.006 582.493 768.026L576.277 769.567L574.309 769.409L572.992 767.563L575.85 763.535L577.531 762.126L578.237 762.134L577.471 764.48C577.326 764.924 577.508 765.41 577.91 765.649L580.91 767.439C581.097 767.551 581.316 767.598 581.533 767.574L589.002 766.738C589.053 766.732 589.103 766.723 589.153 766.709C589.194 766.698 589.235 766.684 589.274 766.668L591.43 765.773C591.845 765.601 592.094 765.174 592.04 764.729L591.634 761.388C591.595 761.073 591.41 760.795 591.134 760.638L587.978 758.848C587.801 758.748 587.598 758.704 587.396 758.722L584.547 758.977L577.287 750.992C577.164 750.856 577.006 750.757 576.831 750.705L570.243 748.753L568.585 747.015L566.299 743.482L564.895 740.483L565.264 738.197L568.245 731.346L570.386 730.731C570.856 730.596 571.159 730.142 571.103 729.656L569.953 719.623L569.925 717.659L571.981 712.321C572.058 712.12 572.069 711.901 572.012 711.694L569.223 701.641L568.887 697.765C568.877 697.644 568.845 697.527 568.792 697.418L567.386 694.495C567.311 694.34 567.198 694.206 567.057 694.108L560.807 689.753C560.682 689.666 560.54 689.609 560.391 689.585L551.621 688.201L545.689 685.912C545.567 685.865 545.437 685.843 545.307 685.846L541.493 685.931L539.131 684.913C538.995 684.854 538.847 684.827 538.7 684.832L533.637 685.011C533.534 685.015 533.433 685.034 533.336 685.068L529.992 686.261C529.607 686.399 529.345 686.756 529.329 687.163L529.256 688.974L525.712 691.059L523.592 691.503C523.087 691.609 522.745 692.082 522.803 692.594L523.42 698.067L523.127 705.344L517.578 710.162C517.519 710.214 517.466 710.272 517.42 710.336L516.081 712.214L508.835 716.278L506.917 716.331L496.096 716.099L493.362 714.369C493.345 714.359 493.329 714.349 493.312 714.339L489.218 712.071C488.955 711.926 488.642 711.906 488.363 712.017C488.085 712.128 487.871 712.358 487.78 712.643L486.322 717.228L485.136 717.759L482.229 716.477C481.967 716.362 481.668 716.364 481.408 716.484C481.147 716.604 480.951 716.83 480.868 717.104L480.598 718.003L479.879 717.035C479.736 716.843 479.53 716.709 479.298 716.656L475.892 715.881C475.595 715.814 475.284 715.885 475.046 716.074L470.671 719.563C470.567 719.647 470.48 719.751 470.416 719.868L466.385 727.296L466.377 727.312L464.003 731.874L459.279 738.519L453.283 744.477L448.469 748.35L445.664 749.497L442.391 749.899C442.35 749.904 442.31 749.911 442.27 749.921L436.121 751.464L431.616 747.529L430.838 743.569C430.815 743.454 430.772 743.343 430.711 743.242L428.492 739.602C428.451 739.535 428.403 739.474 428.348 739.418L425.705 736.751L423.982 734.038C423.848 733.828 423.641 733.675 423.4 733.609L419.435 732.532L414.745 730.162C414.667 730.122 414.583 730.093 414.497 730.075L411.735 729.502L407.34 727.462C407.186 727.391 407.016 727.36 406.846 727.372L401.533 727.76C401.394 727.77 401.259 727.809 401.137 727.874L397.824 729.634C397.741 729.678 397.666 729.733 397.599 729.798L385.911 741.074C385.872 741.111 385.836 741.152 385.804 741.195C385.774 741.234 385.748 741.275 385.725 741.318C385.717 741.333 385.709 741.348 385.702 741.363L383.796 745.36C383.769 745.416 383.748 745.475 383.732 745.535C383.729 745.548 383.726 745.56 383.723 745.573L383.098 748.377C383.069 748.507 383.066 748.642 383.09 748.773L383.778 752.561C383.797 752.666 383.833 752.767 383.884 752.861L385.459 755.748L385.478 755.785L387.678 760.252C387.741 760.38 387.831 760.494 387.942 760.584L390.722 762.859L389.327 768.022C389.275 768.214 389.282 768.418 389.347 768.607L390.003 770.516C390.058 770.675 390.151 770.817 390.275 770.93L394.465 774.757L397.443 781.398C397.461 781.437 397.48 781.474 397.502 781.51C397.517 781.535 397.533 781.559 397.551 781.582L401.16 786.483L400.781 789.629L396.138 803.543L394.423 807.549L390.102 815.471L390.097 815.48L387.458 820.434L384.302 821.671C384.145 821.733 384.006 821.833 383.898 821.963L381.617 824.707C381.503 824.844 381.428 825.009 381.399 825.185L380.856 828.51L373.235 836.249C373.078 836.408 372.979 836.616 372.954 836.838L372.44 841.39L369.722 843.428C369.649 843.483 369.583 843.548 369.528 843.62C369.49 843.67 369.456 843.724 369.427 843.781L367.906 846.823L365.105 848.433C365.042 848.469 364.983 848.512 364.93 848.561C364.894 848.593 364.861 848.628 364.831 848.665L362.206 851.856C362.15 851.923 362.104 851.997 362.068 852.076L359.878 856.875L352.09 869.137L350.236 871.649L346.596 874.859C346.524 874.923 346.461 874.998 346.41 875.08L342.823 880.823L338.353 884.11C338.336 884.121 338.321 884.134 338.305 884.147C338.282 884.166 338.26 884.186 338.239 884.207L334.225 888.203L332.658 888.065C332.262 888.03 331.884 888.233 331.693 888.581L330.309 891.107L326.228 895.706C326.188 895.75 326.153 895.799 326.121 895.85C326.101 895.883 326.083 895.917 326.067 895.952C326.056 895.976 326.046 896 326.037 896.025L324.65 899.806L323.605 898.606C323.303 898.259 322.805 898.163 322.396 898.372L320.177 899.506C319.86 899.668 319.653 899.985 319.633 900.341L319.299 906.351L318.541 908.237L314.57 908.865C314.449 908.884 314.333 908.925 314.227 908.986L312.102 910.209C312.017 910.258 311.939 910.319 311.871 910.391L309.746 912.658C309.682 912.727 309.627 912.805 309.584 912.89L299.053 933.652C298.975 933.806 298.938 933.979 298.946 934.152L299.06 936.546L298.058 938.868C298.045 938.898 298.034 938.928 298.024 938.959C298.011 938.999 298 939.041 297.992 939.083L296.703 946.088L291.506 957.247C291.419 957.434 291.392 957.643 291.429 957.846L291.797 959.901L291.261 962.021L288.855 965.97L285.842 968.644C285.732 968.743 285.644 968.864 285.586 969L283.448 974.014L280.995 977.193C280.912 977.301 280.852 977.424 280.819 977.555L279.417 982.992L278.141 985.116L275.766 985.465C275.499 985.504 275.259 985.65 275.101 985.868L273.49 988.095L270.389 983.618C270.333 983.537 270.265 983.464 270.187 983.403L267.291 981.113L265.047 975.916C264.98 975.76 264.874 975.624 264.739 975.52L260.333 972.126L256.197 966.103L254.331 961.765L253.007 956.329C252.998 956.295 252.988 956.262 252.977 956.229C252.961 956.186 252.943 956.145 252.922 956.104L249.109 948.765C249.073 948.696 249.029 948.631 248.978 948.571L246.249 945.423L245.031 942.246C244.978 942.108 244.894 941.983 244.787 941.881L242.131 939.346C242.087 939.303 242.039 939.265 241.987 939.232L236.862 935.891C236.836 935.874 236.81 935.858 236.782 935.844L228.407 931.429C228.313 931.379 228.211 931.344 228.106 931.327L216.856 929.448C216.76 929.432 216.662 929.43 216.565 929.442L201.002 931.411C200.921 931.421 200.842 931.442 200.766 931.471L194.783 933.796L191.326 934.493L186.243 932.346L184.09 931.015L184.082 931.01L182.909 930.299L185.678 929.218C185.787 929.175 185.888 929.113 185.977 929.035L189.821 925.634C189.945 925.524 190.04 925.385 190.097 925.229L193.215 916.718L198.185 916.429C198.51 916.41 198.806 916.233 198.978 915.956L200.509 913.479C200.529 913.445 200.548 913.41 200.565 913.374C200.586 913.33 200.603 913.284 200.617 913.236L202.148 908.046C202.183 907.929 202.195 907.806 202.186 907.684L201.936 904.552C201.927 904.447 201.903 904.344 201.862 904.247L200.237 900.34C200.189 900.225 200.12 900.12 200.033 900.03L197.224 897.12L192.358 885.686C192.271 885.481 192.118 885.311 191.923 885.203L187.314 882.644L186.258 881.329L189.359 879.138C189.48 879.052 189.58 878.941 189.653 878.813L192.278 874.16C192.342 874.045 192.384 873.919 192.4 873.788L192.869 869.91C192.892 869.72 192.859 869.526 192.775 869.353L189.837 863.306L188.956 858.167C188.933 858.036 188.885 857.911 188.813 857.799L186.969 854.905C186.912 854.816 186.842 854.736 186.76 854.669L182.393 851.092L177.054 845.729C176.961 845.636 176.852 845.562 176.731 845.512L171.133 843.17L166.732 837.416C166.674 837.34 166.605 837.272 166.528 837.216L163.872 835.277C163.805 835.228 163.733 835.188 163.657 835.157L159.157 833.338C159.075 833.305 158.99 833.283 158.903 833.273L156.536 832.984L154.896 831.469L155.864 834.911C155.9 834.919 155.936 834.925 155.973 834.93L158.53 835.242L162.792 836.965L165.231 838.746L169.707 844.597C169.813 844.736 169.954 844.844 170.115 844.912L175.776 847.28L181.011 852.539C181.022 852.55 181.034 852.561 181.045 852.571C181.051 852.577 181.057 852.582 181.062 852.587C181.07 852.594 181.078 852.6 181.086 852.607L185.369 856.115L187.018 858.704L187.89 863.784C187.899 863.833 187.91 863.88 187.926 863.926C187.94 863.969 187.957 864.011 187.976 864.052L190.848 869.963L190.438 873.35L188.021 877.634L184.236 880.31C184.011 880.469 183.861 880.714 183.823 880.987C183.784 881.26 183.86 881.537 184.033 881.752L185.877 884.049C185.958 884.15 186.058 884.235 186.172 884.298L190.652 886.785L195.456 898.073C195.463 898.091 195.472 898.109 195.48 898.126C195.491 898.147 195.501 898.167 195.513 898.187C195.553 898.255 195.601 898.319 195.657 898.376L198.463 901.283L199.955 904.869L200.177 907.658L198.737 912.542L197.55 914.462L192.444 914.76C192.046 914.783 191.7 915.04 191.563 915.414L188.306 924.304L184.784 927.419L180.294 929.174C179.939 929.312 179.694 929.64 179.662 930.019C179.629 930.399 179.814 930.763 180.14 930.961L183.038 932.716L183.046 932.721L185.257 934.088C185.301 934.115 185.346 934.138 185.394 934.158L190.832 936.455C191.017 936.534 191.221 936.554 191.419 936.515L195.263 935.74C195.319 935.728 195.374 935.712 195.427 935.691L201.376 933.38L216.671 931.445L227.617 933.273L235.808 937.591L240.817 940.857L243.244 943.172L244.444 946.303C244.486 946.412 244.546 946.512 244.622 946.6L247.389 949.792L251.092 956.919L252.407 962.32C252.421 962.374 252.438 962.427 252.46 962.478L254.398 966.983C254.424 967.043 254.456 967.101 254.493 967.154L258.774 973.388C258.798 973.424 258.825 973.459 258.854 973.491C258.895 973.536 258.94 973.577 258.988 973.615L263.314 976.946L265.555 982.138C265.62 982.29 265.723 982.423 265.853 982.526L268.83 984.879L272.651 990.395C272.836 990.661 273.138 990.822 273.463 990.825C273.787 990.828 274.093 990.674 274.283 990.411L276.474 987.382L278.9 987.026C279.197 986.982 279.458 986.808 279.612 986.551L281.206 983.897C281.256 983.815 281.293 983.725 281.317 983.632L282.704 978.253L285.11 975.134C285.161 975.067 285.205 974.993 285.238 974.916L287.338 969.991L290.295 967.366C290.369 967.3 290.433 967.224 290.485 967.139L293.048 962.933C293.1 962.847 293.139 962.754 293.163 962.657L293.788 960.181C293.823 960.043 293.828 959.9 293.803 959.76L293.453 957.805L298.569 946.816C298.605 946.74 298.631 946.659 298.646 946.575L299.939 939.557L300.988 937.125C301.048 936.986 301.076 936.834 301.069 936.682L300.956 934.321L311.303 913.922L313.229 911.868L315.065 910.811L319.413 910.124C319.76 910.069 320.054 909.836 320.185 909.509L321.216 906.944C321.237 906.891 321.254 906.837 321.266 906.781C321.276 906.731 321.283 906.679 321.286 906.627L321.598 901.025L322.61 900.508L324.253 902.395C324.485 902.662 324.841 902.786 325.188 902.722C325.536 902.658 325.824 902.415 325.946 902.083L327.85 896.891L331.88 892.35C331.93 892.294 331.973 892.232 332.009 892.167L333.133 890.115L334.513 890.236C334.807 890.262 335.097 890.157 335.306 889.949L339.598 885.677L344.162 882.321C344.264 882.246 344.351 882.152 344.418 882.045L348.029 876.263L351.638 873.078C351.692 873.031 351.739 872.979 351.781 872.922L353.719 870.297C353.733 870.278 353.747 870.259 353.759 870.239L361.603 857.889C361.628 857.851 361.65 857.81 361.669 857.768L363.833 853.026L366.259 850.076L369.164 848.407C369.335 848.309 369.472 848.163 369.56 847.987L371.111 844.887L373.985 842.731C374.205 842.566 374.348 842.317 374.379 842.044L374.903 837.406L382.504 829.687C382.65 829.539 382.746 829.351 382.779 829.146L383.329 825.776L385.271 823.439L388.532 822.161C388.754 822.074 388.937 821.911 389.049 821.701L391.858 816.429L391.862 816.42L396.202 808.465C396.217 808.437 396.231 808.409 396.243 808.38L397.993 804.293C398.004 804.268 398.014 804.242 398.022 804.216L402.71 790.166C402.732 790.102 402.747 790.036 402.755 789.969L403.193 786.329C403.223 786.076 403.156 785.821 403.005 785.616L399.225 780.482L396.205 773.749C396.183 773.7 396.157 773.652 396.127 773.607C396.082 773.539 396.028 773.476 395.967 773.42L391.812 769.625L391.338 768.247L392.821 762.756C392.924 762.376 392.794 761.971 392.489 761.721L389.376 759.174L387.253 754.864C387.247 754.852 387.241 754.84 387.234 754.828L385.717 752.045L385.094 748.614L385.65 746.118L387.43 742.387L398.886 731.334L401.889 729.739L406.733 729.385L410.998 731.364C411.068 731.397 411.141 731.421 411.216 731.436L413.961 732.006L418.624 734.363C418.684 734.393 418.748 734.418 418.813 734.435L422.502 735.438L424.075 737.914C424.096 737.947 424.119 737.979 424.143 738.009C424.164 738.035 424.186 738.059 424.209 738.082L426.845 740.743L428.91 744.13L429.72 748.25C429.762 748.468 429.876 748.665 430.043 748.81L435.199 753.314C435.446 753.53 435.782 753.611 436.1 753.531L442.696 751.876L446.041 751.466C446.129 751.455 446.215 751.432 446.298 751.399L449.361 750.146C449.45 750.109 449.533 750.06 449.609 749.999L454.578 746.002C454.605 745.981 454.631 745.957 454.656 745.933L460.75 739.878C460.771 739.856 460.792 739.834 460.811 739.811C460.828 739.791 460.844 739.769 460.86 739.748L465.673 732.977C465.684 732.961 465.695 732.944 465.706 732.927C465.72 732.905 465.733 732.882 465.745 732.859L468.143 728.25L468.151 728.235L472.077 721.001L475.917 717.938L478.494 718.524L480.179 720.793C480.405 721.096 480.782 721.246 481.154 721.181C481.209 721.172 481.262 721.158 481.313 721.14L480.172 723.055C479.913 723.49 480.019 724.049 480.419 724.358C480.818 724.667 481.386 724.63 481.741 724.271L484.96 721.02C485.267 720.71 485.337 720.238 485.136 719.853C485.276 719.854 485.417 719.825 485.547 719.766L487.547 718.871C487.807 718.755 488.006 718.533 488.092 718.261L489.316 714.412L492.317 716.075L495.261 717.938C495.415 718.036 495.593 718.089 495.775 718.093L506.9 718.331C506.908 718.331 506.916 718.331 506.925 718.331C506.933 718.331 506.941 718.331 506.948 718.331L509.136 718.271C509.298 718.266 509.457 718.223 509.598 718.143L517.254 713.848C517.383 713.776 517.494 713.677 517.579 713.557L518.979 711.595L524.765 706.571C524.973 706.391 525.097 706.132 525.108 705.856L525.421 698.071C525.423 698.021 525.421 697.97 525.416 697.919L524.892 693.274L526.283 692.983C526.389 692.961 526.491 692.921 526.585 692.866L530.741 690.421C531.034 690.249 531.22 689.939 531.233 689.599L531.3 687.918L533.862 687.004L538.546 686.839L540.902 687.854C541.034 687.91 541.177 687.938 541.32 687.935L545.153 687.849L551 690.105C551.066 690.131 551.134 690.149 551.204 690.16L559.852 691.525L565.698 695.599L566.91 698.12L567.239 701.906C567.244 701.967 567.255 702.027 567.271 702.087L569.996 711.91L567.99 717.121C567.944 717.24 567.921 717.367 567.923 717.494L567.954 719.701C567.954 719.735 567.957 719.768 567.96 719.801L569.02 729.043L567.24 729.554C566.953 729.636 566.718 729.843 566.599 730.116L563.38 737.514C563.359 737.562 563.342 737.611 563.329 737.662C563.321 737.692 563.315 737.723 563.31 737.754L562.872 740.468C562.84 740.666 562.868 740.869 562.953 741.051L564.516 744.392C564.535 744.433 564.558 744.473 564.582 744.512L566.957 748.181C566.991 748.233 567.03 748.282 567.073 748.327L568.979 750.326C569.1 750.453 569.251 750.545 569.419 750.595L575.995 752.544L583.401 760.69C583.611 760.922 583.918 761.041 584.23 761.013L587.263 760.742L589.709 762.129L589.963 764.217L588.638 764.766L581.645 765.549L579.62 764.341L580.561 761.461C580.659 761.158 580.608 760.827 580.423 760.568C580.237 760.309 579.94 760.154 579.622 760.15L577.184 760.121C576.945 760.119 576.713 760.201 576.529 760.355L574.466 762.085C574.401 762.14 574.343 762.203 574.293 762.273L570.949 766.986C570.703 767.333 570.704 767.798 570.951 768.145L572.951 770.949C573.122 771.189 573.391 771.341 573.685 771.365L576.279 771.574C576.335 771.579 576.392 771.578 576.449 771.573C576.499 771.569 576.55 771.56 576.6 771.548L582.856 769.996H586.721L588.667 771.175L591.661 774.525C591.865 774.752 592.161 774.874 592.465 774.857L594.496 774.738C594.542 774.735 594.587 774.729 594.631 774.72C594.692 774.708 594.751 774.691 594.809 774.668L598.836 773.058L598.84 773.057L613.492 767.271C613.523 767.259 613.554 767.245 613.584 767.23L617.334 765.292C617.413 765.251 617.487 765.199 617.553 765.139L620.166 762.73L622.547 761.553L626.074 761.068C626.169 761.055 626.262 761.028 626.35 760.989L630.885 758.94L635.452 758.518L638.669 758.933L642.632 760.666C642.711 760.7 642.793 760.724 642.877 760.737C642.916 760.743 642.956 760.747 642.995 760.749L648.411 760.953L652.895 762.176C652.95 762.191 653.006 762.201 653.062 762.207C653.128 762.213 653.194 762.213 653.26 762.206L659.385 761.579C659.454 761.572 659.522 761.558 659.589 761.536L666.37 759.358C666.411 759.345 666.45 759.33 666.489 759.311L670.359 757.493L674.494 757.412L679.611 759.24L688.247 763.509C688.513 763.64 688.825 763.647 689.096 763.526L691.846 762.303C691.908 762.276 691.966 762.242 692.021 762.203L696.521 758.988L698.188 758.829L702.266 760.578C702.361 760.619 702.463 760.645 702.566 760.655L704.785 760.864C704.868 760.872 704.952 760.869 705.034 760.856L709.748 760.116L713.844 759.777L717.045 760.682C717.401 760.782 717.785 760.678 718.041 760.409L719.947 758.411C720.021 758.333 720.083 758.243 720.129 758.145L724.214 749.4L726.901 745.679L730.664 743.092C730.811 742.992 730.928 742.854 731.003 742.693L733.633 737.091L735.808 734.577L741.664 731.172C741.813 731.085 741.938 730.96 742.025 730.81L743.9 727.588C743.917 727.559 743.933 727.529 743.946 727.499C743.953 727.484 743.959 727.47 743.965 727.456L747.861 717.686L750.909 713.263L750.922 713.245L753.69 709.415L753.698 709.404L758.667 702.335L758.67 702.331L760.764 699.318C760.815 699.244 760.856 699.164 760.886 699.079L763.637 691.26L764.351 690.012L764.936 691.105C765.176 691.552 765.711 691.749 766.183 691.564L770.21 689.986L779.506 689.694C779.571 689.692 779.635 689.684 779.697 689.669L781.79 689.192L781.791 689.191L786.134 688.208C786.224 688.187 786.312 688.154 786.393 688.109L795.487 683.128C795.582 683.077 795.667 683.01 795.74 682.932L800.028 678.312L803.694 675.97L811.268 673.384C811.528 673.295 811.74 673.103 811.854 672.853L812.272 671.94L812.684 673.95C812.786 674.446 813.241 674.787 813.745 674.746L827.857 673.592L838.97 675.069C839.04 675.078 839.111 675.08 839.182 675.074L847.644 674.398L851.044 675.029C851.1 675.04 851.156 675.045 851.212 675.046L859.197 675.164L874.155 678.689C874.186 678.696 874.219 678.702 874.251 678.706C874.279 678.71 874.307 678.713 874.336 678.714L877.63 678.874L880.875 682.586L880.79 686.344C880.79 686.37 880.79 686.396 880.791 686.422C880.793 686.447 880.795 686.471 880.798 686.496C880.807 686.559 880.821 686.622 880.841 686.682L881.904 689.874C881.963 690.051 882.071 690.209 882.214 690.328L886.527 693.907C886.569 693.941 886.613 693.973 886.66 694L889.254 695.521C889.276 695.534 889.299 695.546 889.322 695.557C889.382 695.587 889.446 695.61 889.511 695.627L897.292 697.626C897.38 697.648 897.471 697.659 897.562 697.657L900.406 697.596C900.817 697.587 901.181 697.328 901.323 696.943L903.261 691.693C903.349 691.456 903.343 691.195 903.246 690.961L900.933 685.414L900.791 683.497L902.724 681.558L906.871 680.711L909.677 680.656L913.257 681.551L916.439 683.128L919.224 684.781L920.999 688.197C921.062 688.32 921.151 688.428 921.259 688.515L929.04 694.78C929.107 694.835 929.182 694.88 929.261 694.915L932.824 696.496C932.957 696.555 933.102 696.585 933.247 696.582L936.685 696.522L936.708 696.521C936.72 696.521 936.732 696.52 936.744 696.519L939.088 696.34C939.096 696.34 939.105 696.339 939.113 696.338L947.051 695.532C947.083 695.529 947.115 695.524 947.147 695.518C947.187 695.51 947.226 695.499 947.265 695.486L956.72 692.349L963.048 691.318C963.134 691.304 963.219 691.279 963.299 691.243L966.085 689.984L978.162 687.989L984.657 687.901L989.791 688.723C989.833 688.729 989.875 688.733 989.917 688.735L1002.1 689.124C1002.18 689.126 1002.25 689.121 1002.31 689.108L1005.13 688.6C1005.21 688.586 1005.29 688.561 1005.36 688.527L1007.86 687.394C1008.13 687.275 1008.33 687.047 1008.41 686.769L1009.28 683.831L1011.04 680.676C1011.19 680.415 1011.21 680.103 1011.1 679.826L1011.46 680.239L1011.15 682.653C1011.09 683.117 1011.35 683.561 1011.79 683.722L1015.61 685.124C1015.66 685.145 1015.72 685.16 1015.78 685.17C1015.85 685.183 1015.92 685.187 1015.99 685.184L1019.68 685.035C1019.79 685.031 1019.89 685.009 1019.99 684.971L1026.06 682.672L1036.25 682.201C1036.31 682.198 1036.37 682.19 1036.43 682.176L1047.01 679.709L1049.03 679.94L1050.77 682.303L1051.27 686.162C1051.3 686.391 1051.41 686.602 1051.58 686.761L1054.92 689.923C1054.95 689.947 1054.97 689.969 1055 689.99C1055.1 690.067 1055.22 690.125 1055.34 690.159L1058.04 690.915L1060.7 692.893C1060.73 692.919 1060.77 692.943 1060.81 692.964C1060.85 692.984 1060.88 693.002 1060.92 693.018L1068.2 695.942C1068.25 695.96 1068.29 695.974 1068.34 695.985C1068.42 696.007 1068.51 696.016 1068.6 696.014L1072.96 695.896L1078.46 696.697L1083.32 699.102C1083.38 699.13 1083.43 699.152 1083.49 699.169L1086.87 700.123C1086.93 700.141 1087 700.152 1087.06 700.157L1090.89 700.453L1096.01 701.31C1096.06 701.32 1096.12 701.325 1096.18 701.324L1105.96 701.204C1106.05 701.203 1106.13 701.192 1106.21 701.171L1115.54 698.714L1128.16 697.29C1128.28 697.276 1128.39 697.241 1128.5 697.186L1130.66 696.082C1130.73 696.043 1130.81 695.994 1130.87 695.937L1134.13 693.014L1136.16 692.926L1139.02 695.174C1139.2 695.314 1139.42 695.389 1139.65 695.387L1143.69 695.36L1146.14 696.775C1146.26 696.844 1146.39 696.888 1146.53 696.903L1149.03 697.18L1150.3 699.113C1150.51 699.424 1150.87 699.596 1151.24 699.558L1156.58 699.015L1164.4 701.858L1173.24 707.092L1175.21 712.226C1175.26 712.355 1175.33 712.472 1175.43 712.57L1182.74 719.989L1185.67 725.326C1185.68 725.342 1185.69 725.357 1185.7 725.373C1185.71 725.391 1185.72 725.409 1185.73 725.427L1188.23 728.912L1188.23 728.917L1192.83 735.404L1195.58 740.244L1198.33 747.567C1198.34 747.583 1198.34 747.6 1198.35 747.616C1198.37 747.655 1198.39 747.694 1198.41 747.731L1200.94 751.934L1200.94 751.937L1205.71 759.927L1206.59 763.241L1206.15 766.653C1206.15 766.686 1206.14 766.719 1206.14 766.751C1206.14 766.768 1206.14 766.784 1206.14 766.801C1206.14 766.913 1206.16 767.024 1206.2 767.129L1207.33 770.172C1207.48 770.576 1207.87 770.838 1208.3 770.825C1208.73 770.811 1209.1 770.524 1209.22 770.112L1210.29 766.562C1210.3 766.506 1210.32 766.449 1210.32 766.391L1210.58 764.154L1214.43 764.568L1214.35 765.387L1212.73 766.495C1212.3 766.793 1212.17 767.376 1212.44 767.829L1213.78 770.097C1213.92 770.333 1214.15 770.501 1214.42 770.562C1214.69 770.623 1214.97 770.572 1215.19 770.421L1219.54 767.546L1224.79 768.599C1224.86 768.613 1224.94 768.62 1225.01 768.618L1230.04 768.499C1230.11 768.497 1230.19 768.487 1230.26 768.469L1235.8 767.074L1238.11 767.213C1238.2 767.219 1238.29 767.212 1238.38 767.194L1242.38 766.358L1246.42 767.84C1246.68 767.933 1246.95 767.92 1247.2 767.805C1247.44 767.689 1247.63 767.481 1247.71 767.227L1248.62 764.602C1248.64 764.538 1248.66 764.472 1248.67 764.405C1248.68 764.307 1248.68 764.206 1248.66 764.107L1247.5 757.361L1248.41 752.404L1248.41 752.401L1250.72 739.553L1252.14 737.244L1254.34 734.652L1254.34 734.646L1259.24 728.955C1259.33 728.854 1259.4 728.738 1259.44 728.612L1261.72 721.602C1261.81 721.328 1261.77 721.03 1261.63 720.782L1257.41 713.663L1256.4 710.449L1260.93 705.557L1262.43 705.757L1267.68 709.294C1267.71 709.317 1267.75 709.338 1267.78 709.356L1276.1 713.59L1278.72 716.003C1278.91 716.18 1279.16 716.275 1279.42 716.267L1282.21 716.182L1289.98 718.838C1289.99 718.843 1290.01 718.848 1290.02 718.852C1290.03 718.856 1290.05 718.859 1290.06 718.862L1301.03 721.606C1301.26 721.666 1301.51 721.636 1301.73 721.523L1304.99 719.826L1307.98 719.574C1308.25 719.551 1308.49 719.422 1308.67 719.216L1310.57 716.919C1310.62 716.86 1310.66 716.795 1310.7 716.726L1314.67 708.762C1314.68 708.733 1314.69 708.702 1314.71 708.671C1314.72 708.624 1314.74 708.576 1314.75 708.527L1315.72 704.022C1315.74 703.928 1315.74 703.831 1315.74 703.735L1315.19 696.494L1316.98 688.967L1321.99 682.117L1329.25 676.567C1329.37 676.48 1329.46 676.371 1329.53 676.246L1333.68 668.52C1333.73 668.435 1333.76 668.344 1333.78 668.249L1334.87 663.005L1338.39 661.31C1338.52 661.247 1338.64 661.156 1338.73 661.044L1343.04 655.794C1343.15 655.672 1343.21 655.527 1343.25 655.373L1344.42 650.016L1348.97 644.17C1349 644.125 1349.03 644.076 1349.06 644.025L1352.38 637.784L1355.57 634.298C1355.69 634.174 1355.77 634.025 1355.81 633.862L1358.77 621.841C1358.81 621.694 1358.81 621.54 1358.78 621.391L1357.5 615.425C1357.48 615.325 1357.44 615.229 1357.39 615.141C1357.36 615.077 1357.31 615.018 1357.26 614.963L1350.17 607.148C1350.15 607.125 1350.13 607.103 1350.1 607.082L1347.88 605.054L1347.88 605.049L1344.6 602.096C1344.58 602.081 1344.56 602.067 1344.55 602.053C1344.52 602.032 1344.49 602.013 1344.46 601.994L1340.74 599.639C1340.59 599.543 1340.42 599.49 1340.24 599.484L1336.62 599.364C1336.54 599.361 1336.47 599.367 1336.39 599.382L1333.88 599.876L1328.84 594.841L1325.91 589.278C1325.88 589.232 1325.86 589.187 1325.82 589.146C1325.81 589.126 1325.79 589.107 1325.78 589.088C1325.71 589.009 1325.63 588.941 1325.54 588.886L1319.38 585.201L1317.01 581.128C1316.93 580.979 1316.8 580.855 1316.65 580.768L1313.7 579.044L1311 576.324L1308.84 572.814C1308.67 572.527 1308.36 572.348 1308.02 572.339L1305.96 572.282L1299.74 570.52L1297.32 567.65C1297.24 567.556 1297.14 567.478 1297.03 567.419L1293.11 565.276L1286.58 557.226C1286.29 556.866 1285.79 556.754 1285.37 556.956L1282.86 558.167L1278.52 555.215L1268.79 544.68C1268.75 544.635 1268.7 544.595 1268.65 544.558L1264.64 541.546L1262.39 539.025C1262.31 538.929 1262.2 538.851 1262.09 538.794L1259.75 537.636L1257.67 535.115C1257.66 535.107 1257.65 535.099 1257.65 535.091C1257.64 535.083 1257.63 535.074 1257.62 535.065L1257.61 535.049L1249.72 527.076L1243.32 518.51C1243.28 518.452 1243.23 518.398 1243.17 518.351L1233.89 510.357C1233.88 510.349 1233.87 510.341 1233.86 510.334L1233.85 510.319C1233.82 510.299 1233.79 510.28 1233.76 510.262L1231.21 508.692L1227.01 503.06C1226.86 502.858 1226.64 502.72 1226.39 502.674L1224.56 502.335L1220.83 499.084C1220.81 499.063 1220.78 499.043 1220.75 499.024L1211.66 492.55C1211.64 492.532 1211.61 492.515 1211.58 492.5C1211.55 492.478 1211.51 492.459 1211.47 492.442L1207.56 490.801C1207.53 490.789 1207.51 490.779 1207.48 490.77L1203.83 489.619L1200.53 486.358C1200.39 486.212 1200.2 486.116 1199.99 486.082L1195.71 485.387L1190.73 483.201C1190.58 483.135 1190.42 483.107 1190.26 483.119L1188.27 483.267L1188.26 483.268L1184.2 483.516L1175.29 477.643C1175.06 477.49 1174.77 477.441 1174.5 477.507L1168.36 479.01L1166.23 478.647L1162.44 475.176C1162.42 475.152 1162.39 475.129 1162.36 475.108C1162.34 475.089 1162.31 475.072 1162.28 475.056L1148.91 467.033C1148.83 466.988 1148.75 466.953 1148.67 466.929L1142.73 465.229C1142.68 465.216 1142.64 465.206 1142.59 465.199C1142.52 465.19 1142.45 465.188 1142.38 465.193L1139.51 465.402C1139.42 465.408 1139.34 465.426 1139.25 465.454L1135.76 466.662L1133.64 465.216C1133.4 465.048 1133.09 464.998 1132.81 465.079L1129.34 466.063C1129.12 466.126 1128.92 466.264 1128.79 466.453L1125.79 470.751L1117.27 470.47C1116.8 470.454 1116.38 470.765 1116.27 471.218L1115.55 473.992C1115.45 474.357 1115.57 474.743 1115.85 474.992L1117.99 476.878L1117.6 478.78L1115.92 480.215L1112.93 481.197L1112.92 481.198L1110.96 481.834L1103.77 481.775C1103.73 481.775 1103.69 481.777 1103.65 481.782L1099.97 482.217L1096.49 481.885L1094.72 481.106L1090.98 478.143C1090.87 478.057 1090.75 477.995 1090.61 477.96L1088.8 477.485L1086.99 473.393C1086.8 472.961 1086.34 472.722 1085.88 472.817L1083.23 473.363L1080.12 471.478L1076.87 465.109C1076.86 465.085 1076.85 465.062 1076.84 465.039C1076.82 465.014 1076.8 464.989 1076.79 464.965L1075.16 462.787C1075.06 462.657 1074.94 462.553 1074.79 462.483L1071.54 460.932C1071.29 460.815 1071.01 460.803 1070.76 460.897L1065.88 462.716C1065.53 462.85 1065.28 463.175 1065.24 463.555C1065.2 463.934 1065.38 464.302 1065.71 464.503L1068.02 465.936C1068.11 465.992 1068.21 466.034 1068.31 466.059L1071.68 466.868L1071.3 470.501L1071.3 470.508L1071.11 472.447C1071.11 472.5 1071.11 472.553 1071.11 472.606C1071.11 472.628 1071.11 472.65 1071.12 472.671L1071.31 474.169L1069.92 474.924L1068.14 473.714C1068.06 473.662 1067.98 473.621 1067.89 473.591L1065.17 472.696C1064.97 472.63 1064.76 472.63 1064.55 472.694L1058.81 474.531L1059.14 474.044C1059.35 473.741 1059.37 473.35 1059.2 473.024L1057.92 470.518C1057.75 470.191 1057.42 469.982 1057.05 469.974C1056.69 469.965 1056.35 470.158 1056.16 470.477L1054.51 473.371C1054.41 473.541 1054.37 473.733 1054.38 473.923L1052.64 473.002C1052.55 472.955 1052.46 472.922 1052.36 472.903L1048.53 472.173L1041.78 466.922C1041.54 466.73 1041.22 466.665 1040.91 466.745L1034.6 468.416L1034.58 468.42L1034.57 468.426L1028.64 470.23L1022.12 464.373C1022.02 464.288 1021.91 464.222 1021.79 464.178L1016.31 462.168L1013.7 458.484C1013.54 458.258 1013.3 458.108 1013.02 458.07L1010.83 457.772C1010.78 457.765 1010.72 457.762 1010.66 457.764C1010.55 457.768 1010.44 457.791 1010.33 457.833L1004.35 460.186L1001.74 459.865L998.643 457.262C998.503 457.144 998.333 457.066 998.151 457.039L989.383 455.697L986.882 452.548L985.901 449.916L987.079 446.156C987.236 445.657 986.981 445.122 986.495 444.928L984.026 443.944C983.965 443.92 983.901 443.901 983.836 443.89C983.768 443.877 983.699 443.872 983.63 443.874L981.995 443.917L980.807 441.456C980.727 441.29 980.603 441.15 980.449 441.051L977.543 439.171C977.36 439.052 977.144 438.997 976.927 439.013L971.302 439.422L964.394 438.191C964.29 438.172 964.183 438.17 964.078 438.185L961.359 438.573C961.329 438.577 961.3 438.583 961.271 438.59C961.237 438.598 961.203 438.608 961.169 438.62L954.7 440.887C954.422 440.984 954.201 441.2 954.096 441.475L953.19 443.862C953.063 444.196 953.124 444.572 953.35 444.849C953.576 445.126 953.932 445.261 954.284 445.204L958.319 444.553L958.347 444.548L963.957 443.809L963.975 443.807L965.598 443.623L965.814 445.38L963.513 449.941L961.738 449.112L959.112 446.491C958.885 446.265 958.563 446.161 958.246 446.212L950.806 447.419L949.939 446.042C949.849 445.898 949.724 445.78 949.576 445.699L946.17 443.82C946.043 443.749 945.902 443.708 945.757 443.698L943.712 443.554L939.728 442.618C939.442 442.551 939.142 442.612 938.906 442.786L936.094 444.857L933.157 443.543C933.129 443.531 933.1 443.519 933.07 443.509L930.695 442.703C930.503 442.638 930.296 442.633 930.1 442.688L925.819 443.907L924.044 442.753C923.847 442.625 923.611 442.57 923.377 442.599L920.939 442.898C920.884 442.905 920.829 442.916 920.775 442.932L912.345 445.448L908.796 445.276C908.767 445.275 908.738 445.275 908.708 445.276C908.667 445.278 908.627 445.282 908.587 445.288L903.42 446.133L899.467 442.388C899.414 442.339 899.356 442.295 899.294 442.257L897.175 440.983L894.475 437.476L898.021 435.117C898.265 434.954 898.425 434.693 898.46 434.402L899.993 421.515L900.378 418.258L902.174 414.686C902.271 414.495 902.303 414.278 902.266 414.067L901.797 411.352C901.783 411.267 901.757 411.184 901.721 411.106L900.003 407.355L900.861 401.986C900.868 401.944 900.872 401.901 900.874 401.858L900.989 398.012L902.61 396.165L906.072 395.592L908.199 395.904L911.245 397.414C911.332 397.457 911.425 397.488 911.521 397.504L919.145 398.801L923.303 400.377C923.459 400.436 923.626 400.455 923.79 400.433L928.607 399.789L930.921 399.898L934.455 400.994C934.577 401.032 934.706 401.046 934.834 401.036L938.384 400.738L938.398 400.737L941.537 400.515L947.048 402.642C947.164 402.687 947.288 402.71 947.413 402.709L953.786 402.68L963.29 405.087L967.095 407.479C967.24 407.57 967.406 407.622 967.577 407.631L973.711 407.941L976.632 410.673C976.995 411.014 977.554 411.035 977.942 410.722L981.074 408.202L991.148 407.454L1002.03 407.81C1002.4 407.822 1002.75 407.627 1002.94 407.304L1004.07 405.31L1006.04 405.225L1009.9 407.167C1010.07 407.252 1010.26 407.287 1010.45 407.268L1014.01 406.92L1016.34 408.811C1016.55 408.977 1016.81 409.055 1017.08 409.028L1020.53 408.667L1024.23 410.29C1024.27 410.308 1024.31 410.324 1024.36 410.336C1024.4 410.348 1024.44 410.357 1024.48 410.363L1028.52 410.973L1031.63 412.212C1031.72 412.247 1031.81 412.269 1031.91 412.278L1037.94 412.875C1037.98 412.88 1038.03 412.881 1038.08 412.879C1038.1 412.878 1038.12 412.877 1038.14 412.875C1038.16 412.873 1038.18 412.87 1038.2 412.867L1040.89 412.42C1041.11 412.383 1041.31 412.273 1041.46 412.108L1043.81 409.543C1043.83 409.521 1043.84 409.498 1043.86 409.474C1043.9 409.429 1043.93 409.38 1043.95 409.33L1046.08 405.243C1046.15 405.111 1046.19 404.966 1046.19 404.818L1046.31 401.63L1050.34 391.987L1054.64 388.22L1056.52 387.417C1056.61 387.381 1056.68 387.334 1056.76 387.277L1064.22 381.281C1064.23 381.274 1064.24 381.267 1064.25 381.26C1064.31 381.207 1064.37 381.147 1064.41 381.082L1066.48 378.188C1066.51 378.143 1066.54 378.095 1066.56 378.045C1066.57 378.016 1066.59 377.987 1066.6 377.958L1068.47 372.947C1068.5 372.871 1068.52 372.792 1068.53 372.712L1068.91 369.49C1068.92 369.365 1068.91 369.238 1068.88 369.116L1068.1 366.193C1067.99 365.789 1067.64 365.495 1067.22 365.456L1063.07 365.067C1062.96 365.056 1062.84 365.065 1062.73 365.092L1058.42 366.166C1058.23 366.212 1058.07 366.311 1057.93 366.451L1055.41 369.139L1052.27 369.743L1049.27 368.698C1049.14 368.652 1049 368.634 1048.86 368.646L1046.67 368.825C1046.5 368.839 1046.33 368.9 1046.18 369.001L1042.49 371.582L1040.76 372.017L1034.61 370.735L1033.46 368.265L1035 365.302L1037.84 361.802C1037.89 361.742 1037.93 361.677 1037.97 361.609L1040.13 357.162L1043.95 352.727C1044 352.673 1044.04 352.614 1044.07 352.551L1045.91 349.151C1046.01 348.967 1046.05 348.756 1046.03 348.548L1045.62 345.356C1045.59 345.077 1045.44 344.826 1045.21 344.665C1044.98 344.503 1044.69 344.445 1044.41 344.506L1042 345.039L1040.29 343.855C1040.08 343.709 1039.82 343.649 1039.57 343.688L1036.45 344.166C1036.14 344.213 1035.87 344.401 1035.72 344.675L1033.01 349.639L1031.01 349.244C1030.77 349.197 1030.52 349.238 1030.32 349.36L1027.38 351.06C1027.19 351.17 1027.04 351.34 1026.95 351.544L1025.94 354.005L1023.81 355.084L1018.86 355.983C1018.71 356.009 1018.58 356.065 1018.46 356.147L1007.4 363.873C1007.22 363.999 1007.09 364.18 1007.02 364.389L1006.36 366.448C1006.36 366.461 1006.35 366.474 1006.35 366.488C1006.35 366.506 1006.34 366.525 1006.34 366.545L1005.11 372.313L1004.39 372.561L1003.46 370.668C1003.29 370.32 1002.94 370.102 1002.55 370.107L1000.8 370.132L998.52 368.803L995.438 365.314C995.181 365.023 994.778 364.907 994.405 365.017L991.318 365.931L987.609 362.578C987.394 362.383 987.104 362.292 986.815 362.328L984.104 362.666L981.47 362.126L978.861 359.746C978.797 359.689 978.727 359.639 978.651 359.6L976.432 358.437C976.083 358.253 975.658 358.293 975.348 358.537L972.991 360.399L970.808 360.915L969.046 358.598C968.908 358.416 968.712 358.288 968.491 358.233L965.366 357.458C965.199 357.416 965.025 357.419 964.859 357.464L962.457 358.126L959.917 356.614C959.68 356.473 959.394 356.436 959.129 356.512L954.343 357.893L947.724 357.258L945.291 356.846C945.226 356.835 945.161 356.831 945.095 356.833L938.125 357.035L935.117 356.181C934.864 356.11 934.594 356.14 934.363 356.266L931.469 357.853L929.669 356.864C929.525 356.785 929.364 356.742 929.199 356.74L926.636 356.711C926.442 356.709 926.252 356.763 926.088 356.868L923.088 358.777C922.929 358.878 922.802 359.022 922.721 359.193L921.855 361.025L919.219 360.859C918.846 360.836 918.492 361.022 918.299 361.341L915.595 365.829L913.349 366.747L907.858 368.052L905.581 368.165L896.93 367.957C896.834 367.954 896.739 367.966 896.647 367.99L894.034 368.691L890.582 368.408C890.434 368.395 890.286 368.416 890.147 368.468L887.772 369.363C887.686 369.396 887.605 369.44 887.531 369.494L883.824 372.228L882.149 372.744L879.381 372.466C879.268 372.455 879.154 372.463 879.044 372.49L874.764 373.533L874.763 373.534L869.562 374.797L865.321 374.043L860.995 372.49C860.947 372.473 860.898 372.46 860.849 372.45C860.823 372.445 860.796 372.441 860.77 372.438L858.433 372.172L854.878 369.311C854.754 369.212 854.609 369.143 854.453 369.111L852.325 368.671L848.052 365.886L841.335 358.778L839.028 353.967C838.976 353.86 838.907 353.763 838.822 353.681L836.915 351.834L835.744 348.845C835.687 348.698 835.596 348.568 835.479 348.463L829.334 342.979L825.744 337.268L824.314 331.547C824.293 331.462 824.261 331.381 824.219 331.305L816.408 317.192L814.816 310.739L815.032 301.925C815.036 301.736 814.987 301.549 814.89 301.387L813.64 299.298C813.411 298.916 812.958 298.731 812.527 298.844L811.188 299.197L811.303 298.812L813.69 298.506C814.048 298.46 814.353 298.225 814.489 297.891L816.395 293.208C816.41 293.171 816.423 293.132 816.434 293.093L817.122 290.557C817.211 290.23 817.128 289.88 816.902 289.628L813.777 286.139C813.661 286.009 813.513 285.912 813.348 285.857L810.172 284.8L806.608 281.151L805.605 278.588L805.833 274.299L807.959 270.041C808.011 269.936 808.044 269.823 808.058 269.707L808.277 267.769C808.291 267.638 808.28 267.505 808.244 267.378L807.689 265.463L811.539 256.878C811.59 256.765 811.619 256.644 811.626 256.52L811.814 252.791C811.815 252.755 811.815 252.719 811.813 252.683L811.594 248.895C811.582 248.683 811.503 248.481 811.369 248.318L808.823 245.218L804.988 238.664C804.855 238.437 804.637 238.271 804.383 238.203L801.665 237.478L799.164 235.596C798.954 235.438 798.691 235.369 798.43 235.404L795.852 235.749L793.923 233.435L793.413 231.137C793.357 230.884 793.204 230.662 792.987 230.519L789.143 227.984C789.053 227.925 788.954 227.881 788.85 227.853L785.642 226.999L779.902 224.926C779.802 224.89 779.698 224.87 779.592 224.867L775.654 224.747C775.545 224.743 775.436 224.758 775.331 224.79L769.602 226.545L765.42 226.792L763.156 225.684C762.907 225.562 762.618 225.549 762.359 225.649L759.35 226.803L757.085 227.552L751.957 228.584C751.881 228.599 751.807 228.623 751.736 228.656L748.298 230.237C748.182 230.29 748.077 230.365 747.989 230.458L742.239 236.543C742.142 236.646 742.068 236.768 742.022 236.901L740.36 241.66L738.105 243.604L734.924 244.785L730.677 246.107L724.472 247.478L716.378 247.623L713.681 247.022C713.597 247.003 713.51 246.996 713.423 246.999L710.027 247.138L704.82 244.51C704.768 244.484 704.714 244.462 704.658 244.446L699.595 242.925C699.463 242.885 699.324 242.873 699.187 242.889L697.068 243.145L692.398 240.23C692.274 240.153 692.135 240.103 691.99 240.086L685.865 239.34C685.743 239.325 685.619 239.332 685.5 239.363L682.365 240.153L675.777 239.381L664.294 235.493L661.281 233.379L655.082 227.58C655.076 227.574 655.07 227.569 655.064 227.563C655.057 227.557 655.051 227.552 655.044 227.546C655.033 227.537 655.022 227.528 655.011 227.52L647.23 221.495C647.22 221.487 647.21 221.479 647.2 221.472C647.189 221.464 647.178 221.457 647.167 221.449L643.905 219.309L641.619 214.378C641.614 214.367 641.609 214.356 641.604 214.345C641.597 214.332 641.59 214.319 641.582 214.306L636.488 205.298C636.451 205.233 636.407 205.172 636.357 205.116L631.294 199.567C631.075 199.328 630.755 199.209 630.434 199.249L626.947 199.674L625.524 197.103C625.441 196.953 625.32 196.827 625.174 196.736L619.414 193.179L615.673 189.696C615.619 189.646 615.56 189.602 615.497 189.565L612.028 187.537C611.9 187.462 611.756 187.417 611.609 187.404L608.484 187.135C608.342 187.123 608.199 187.141 608.065 187.188L606.243 187.831L597.87 187.017C597.754 187.006 597.638 187.015 597.526 187.043L594.713 187.759C594.633 187.78 594.556 187.81 594.483 187.849L591.733 189.34C591.634 189.394 591.544 189.465 591.468 189.548L587.718 193.694C587.63 193.792 587.562 193.906 587.518 194.031L585.933 198.493L583.508 197.736C583.367 197.692 583.218 197.679 583.072 197.7L578.415 198.347L575.017 194.888C574.781 194.647 574.44 194.542 574.11 194.607L570.641 195.294C570.553 195.312 570.468 195.341 570.387 195.381L566.037 197.557L562.243 197.803L558.309 196.789L553.905 193.477C553.497 193.17 552.923 193.22 552.574 193.593L550.66 195.639L549.174 195.172L548.34 192.809C548.23 192.498 547.973 192.26 547.653 192.176L542.626 190.842L539.845 188.131C539.772 188.06 539.688 188 539.596 187.954L536.75 186.522L532.563 183.666C532.522 183.638 532.478 183.613 532.433 183.591L527.277 181.115C527.078 181.019 526.854 180.992 526.638 181.038L524.926 181.397L525.082 180.378C525.138 180.012 524.988 179.645 524.691 179.424L520.441 176.263C520.401 176.233 520.359 176.207 520.315 176.183L516.218 173.995L513.896 172.052L512.483 169.691C512.398 169.548 512.278 169.429 512.135 169.344L510.072 168.121C509.902 168.02 509.706 167.972 509.508 167.983L501.195 168.43C501.011 168.44 500.833 168.5 500.682 168.605L498.31 170.239L497.272 169.279L497.888 167.381C498.007 167.015 497.905 166.614 497.627 166.349L495.481 164.301L494.209 162.098C494.204 162.089 494.199 162.081 494.193 162.072C494.19 162.067 494.187 162.062 494.183 162.056L492.683 159.73C492.643 159.668 492.597 159.611 492.544 159.559L485.138 152.28C485.038 152.182 484.919 152.106 484.788 152.057L481.635 150.877L479.239 148.589L478.609 145.034C478.556 144.74 478.376 144.485 478.117 144.338L475.273 142.728C475.076 142.617 474.847 142.575 474.624 142.61L471.405 143.117C471.387 143.12 471.37 143.124 471.352 143.127L466.63 144.137L466.602 144.142L463.147 144.779L459.971 143.834C459.892 143.81 459.811 143.797 459.728 143.793L453.543 143.53L443.635 140.494C443.176 140.354 442.682 140.559 442.458 140.983L440.52 144.653C440.295 145.078 440.405 145.602 440.78 145.902L443.393 147.989L443.541 148.569L442.515 148.526L441.292 146.507C441.07 146.14 440.637 145.955 440.218 146.049L437.33 146.697L439.49 145.263C439.777 145.073 439.946 144.748 439.937 144.404C439.927 144.059 439.742 143.744 439.445 143.569L432.007 139.184C431.982 139.169 431.957 139.156 431.931 139.143L424.025 135.355C423.903 135.297 423.77 135.264 423.634 135.258L412.041 134.782ZM359.657 168.216L359.842 164.216C360.135 164.472 360.555 164.536 360.915 164.372L363.504 163.188L364.736 163.572L363.504 163.566C363.188 163.565 362.89 163.713 362.7 163.965L360.637 166.709C360.623 166.728 360.609 166.747 360.597 166.766L359.657 168.216ZM362.917 161.096L363.132 161.167C363.118 161.171 363.104 161.176 363.09 161.181C363.067 161.19 363.044 161.199 363.021 161.21L362.801 161.31L362.917 161.096ZM482.672 718.858L482.18 719.684L482.457 718.764L482.672 718.858ZM1115.28 704.586C1114.86 704.546 1114.46 704.774 1114.28 705.154L1113.28 707.271C1113.25 707.338 1113.23 707.408 1113.21 707.48C1113.2 707.549 1113.19 707.62 1113.19 707.691L1113.16 711.978L1111.65 714.455C1111.41 714.839 1111.46 715.332 1111.77 715.66L1113.65 717.659C1113.75 717.769 1113.88 717.855 1114.02 717.909L1119.61 720.056C1119.71 720.095 1119.82 720.117 1119.93 720.122C1120 720.124 1120.07 720.12 1120.14 720.108L1124.01 719.452C1124.36 719.392 1124.66 719.148 1124.78 718.811L1125.19 717.707C1125.27 717.487 1125.27 717.245 1125.19 717.024L1123.35 711.893C1123.31 711.803 1123.27 711.718 1123.21 711.641L1118.53 705.228C1118.36 704.997 1118.1 704.849 1117.81 704.823L1115.28 704.586ZM1115.19 707.926L1115.79 706.642L1117.18 706.772L1121.51 712.705L1123.19 717.358L1123.11 717.577L1120.07 718.091L1114.95 716.124L1113.75 714.847L1115.01 712.783C1115.1 712.628 1115.15 712.451 1115.16 712.269L1115.19 707.926ZM477.003 722.129C476.754 721.891 476.399 721.798 476.065 721.883L471.377 723.076C470.989 723.175 470.698 723.495 470.636 723.891L470.198 726.695C470.139 727.07 470.298 727.445 470.607 727.665C470.916 727.884 471.323 727.91 471.657 727.731L477.626 724.54C477.909 724.389 478.102 724.112 478.146 723.794C478.189 723.476 478.078 723.157 477.846 722.935L477.003 722.129ZM472.484 725.022L472.51 724.852L473.066 724.71L472.484 725.022ZM1201.71 770.862C1201.64 770.844 1201.56 770.834 1201.49 770.833C1201.46 770.832 1201.42 770.833 1201.39 770.835L1199.14 771.014C1198.91 771.032 1198.7 771.127 1198.53 771.283L1196.35 773.342C1196.18 773.502 1196.07 773.718 1196.04 773.95L1195.41 779.11C1195.39 779.263 1195.41 779.419 1195.46 779.565L1196.78 783.263C1196.83 783.41 1196.92 783.544 1197.03 783.652L1199.75 786.247C1199.79 786.289 1199.84 786.326 1199.89 786.359L1202.76 788.255L1208.31 796.039C1208.39 796.157 1208.5 796.255 1208.63 796.327L1213.66 799.19C1213.79 799.264 1213.94 799.308 1214.08 799.319L1218.51 799.635L1223.38 801.744L1223.38 801.745L1228.04 803.772C1228.26 803.868 1228.51 803.881 1228.74 803.81L1235.7 801.632L1243.74 799.125L1245.85 798.882L1254.73 800.275L1257.66 801.456C1257.7 801.473 1257.74 801.487 1257.79 801.499L1265.14 803.326L1268.53 806.024C1268.82 806.25 1269.2 806.304 1269.54 806.166L1271.63 805.302C1271.97 805.163 1272.2 804.853 1272.24 804.492L1272.71 800.434C1272.72 800.35 1272.72 800.266 1272.71 800.182L1272.43 798.154C1272.41 798.047 1272.38 797.942 1272.33 797.845L1269.86 792.894C1269.82 792.808 1269.77 792.728 1269.7 792.657L1262.98 785.468C1262.86 785.334 1262.69 785.236 1262.52 785.187L1260.14 784.531C1260.03 784.5 1259.91 784.489 1259.8 784.498L1244.38 785.73L1240.74 783.996C1240.66 783.954 1240.56 783.926 1240.47 783.911C1240.44 783.905 1240.4 783.901 1240.36 783.9L1238.5 783.804L1236.41 781.147C1236.3 781.004 1236.15 780.894 1235.98 780.83L1233.35 779.846C1233.14 779.767 1232.91 779.761 1232.69 779.83L1228.68 781.116L1225.68 781.525L1223.59 780.988L1218.48 777.677C1218.43 777.646 1218.38 777.619 1218.33 777.597L1212.45 775.083L1209.68 772.925C1209.6 772.864 1209.51 772.815 1209.42 772.78C1209.38 772.766 1209.34 772.754 1209.3 772.744L1207.27 772.237L1207.27 772.237L1201.71 770.862ZM1197.98 774.55L1199.65 772.98L1201.39 772.842L1206.79 774.177L1206.79 774.178L1208.61 774.633L1211.32 776.74C1211.39 776.793 1211.46 776.837 1211.54 776.871L1217.47 779.402L1222.64 782.756C1222.71 782.797 1222.78 782.831 1222.85 782.857C1222.88 782.868 1222.91 782.877 1222.94 782.885L1225.38 783.511C1225.5 783.543 1225.63 783.551 1225.76 783.533L1229.04 783.086C1229.1 783.078 1229.16 783.065 1229.21 783.047L1232.97 781.841L1235.01 782.605L1237.21 785.398C1237.39 785.625 1237.66 785.763 1237.95 785.778L1240.06 785.887L1243.76 787.651C1243.92 787.727 1244.09 787.759 1244.27 787.745L1259.78 786.506L1261.71 787.04L1268.14 793.917L1270.47 798.591L1270.71 800.33L1270.33 803.677L1269.32 804.093L1266.22 801.626C1266.16 801.581 1266.1 801.542 1266.03 801.51C1265.97 801.479 1265.9 801.455 1265.84 801.438L1258.34 799.575L1255.37 798.378C1255.3 798.349 1255.23 798.329 1255.15 798.317L1246.03 796.885C1245.94 796.871 1245.85 796.87 1245.76 796.88L1243.42 797.149C1243.35 797.156 1243.29 797.169 1243.23 797.188L1235.11 799.723L1235.41 800.677L1235.11 799.723L1228.49 801.79L1224.18 799.91L1224.18 799.91L1219.15 797.732C1219.12 797.718 1219.09 797.707 1219.05 797.697C1219.03 797.69 1219.01 797.684 1218.99 797.678C1218.93 797.665 1218.88 797.656 1218.82 797.652L1214.45 797.34L1209.81 794.698L1204.28 786.942C1204.21 786.841 1204.12 786.755 1204.02 786.687L1201.06 784.739L1198.58 782.369L1197.43 779.117L1197.98 774.55ZM238.405 983.607C237.946 983.321 237.343 983.451 237.043 983.9L235.668 985.959C235.579 986.093 235.523 986.247 235.506 986.408L235.201 989.26L231.004 993.182C230.83 993.344 230.72 993.564 230.693 993.801L230.302 997.305L227.604 1003.98C227.598 1003.99 227.592 1004.01 227.587 1004.02C227.583 1004.04 227.579 1004.05 227.575 1004.06L227.57 1004.08L226.57 1007.57C226.526 1007.72 226.519 1007.88 226.549 1008.03L227.237 1011.64C227.297 1011.96 227.508 1012.23 227.802 1012.36L230.927 1013.79C231.071 1013.86 231.229 1013.89 231.388 1013.88L236.169 1013.67C236.325 1013.67 236.477 1013.62 236.613 1013.55L239.145 1012.13L242.62 1011.82C242.78 1011.81 242.933 1011.76 243.068 1011.67L248.756 1008.06C248.808 1008.03 248.856 1007.99 248.901 1007.95L255.182 1002.1C255.229 1002.06 255.272 1002.01 255.31 1001.96L258.06 998.17C258.235 997.928 258.294 997.622 258.219 997.333C258.145 997.044 257.946 996.804 257.676 996.677L255.645 995.723C255.512 995.661 255.367 995.628 255.22 995.628H252.611L251.325 994.68L249.617 990.382C249.572 990.269 249.507 990.166 249.426 990.076L246.395 986.765C246.253 986.611 246.068 986.505 245.863 986.462L241.505 985.543L238.405 983.607ZM237.468 986.865L238.168 985.817L240.596 987.333C240.696 987.396 240.805 987.44 240.92 987.464L245.136 988.352L247.826 991.291L249.572 995.684C249.641 995.858 249.757 996.009 249.908 996.12L251.688 997.433C251.86 997.56 252.068 997.628 252.282 997.628H254.997L255.731 997.973L253.749 1000.71L247.606 1006.42L242.201 1009.85L238.755 1010.16C238.615 1010.17 238.479 1010.21 238.356 1010.28L235.844 1011.69L231.541 1011.87L229.105 1010.76L228.558 1007.89L229.478 1004.68L232.208 997.927C232.242 997.843 232.265 997.754 232.275 997.663L232.64 994.391L236.839 990.467C237.014 990.303 237.125 990.081 237.15 989.842L237.468 986.865Z" fill="#0978AB"/>
</svg>
