<svg width="1400" height="1139" viewBox="0 0 1400 1139" fill="none" xmlns="http://www.w3.org/2000/svg">
<path fill-rule="evenodd" clip-rule="evenodd" d="M329.323 749.978L331.595 750.003L337.217 746.147L335.973 743.563L338.803 745.685L341.452 747.221L345.26 744.676L346.195 738.492L344.292 736.43L343.603 732.566L341.4 731.947L337.226 732.518L334.604 732.878L328.422 734.809L325.146 734.978L323.691 737.378L325.328 742.063L324.717 747.649L326.823 747.763L329.323 749.978ZM249.187 947.441L251.2 950.508L252.114 950.146L249.187 947.441ZM299.89 926.43L302.897 922.931L302.941 920.5L297.047 917.224L294.237 918.985L292.184 923.849L289.495 926.788L288.467 929.178L286.739 943.146L288.891 951.526L291.679 949.174L294.52 948.762L293.775 945.912L295.952 939.358L297.957 935.93L297.858 932.136L299.725 929.725L299.89 926.43ZM261.505 962.464L260.026 960.479L258.459 958.327L256.199 958.556L258.517 960.519L260.784 963.748L262.028 966.331L264.088 964.925L263.914 961.555L261.505 962.464ZM169.81 184.218L172.157 182.374L170.646 180.817L169.81 184.218ZM161.74 178.451L163.156 183.307L163.706 181.772L165.711 180.618L163.946 178.305L161.74 178.451ZM166.125 186.095L168.496 188.73L169.514 188.616L168.761 186.104L166.125 186.095ZM169.656 237.747L171.76 240.052L174.186 238.717L171.844 237.01L169.656 237.747ZM527.647 381.547L530.387 386.634L536.777 380.84L536.464 378.146L533.175 375.01L528.488 373.847L525.374 370.961L516.472 370.568L511.62 370.467L513.954 371.566L512.349 373.575L514.96 374.907L516.963 377.226L517.954 379.82L521.329 379.323L524.923 380.931L527.647 381.547ZM1075.63 472.161L1076.34 468.269L1075.07 468.118L1075.63 472.161ZM1138.5 476.285L1141.39 478.023L1143.58 476.987L1146.2 477.21L1149.97 474.331L1145.11 470.893L1141.63 469.751L1136.48 470.319L1134.3 471.694L1134.67 473.967L1136.7 474.281L1138.5 476.285ZM1168.52 484.126L1170.84 487.813L1173.71 487.527L1176.73 485.047L1177.12 482.258L1174.48 480.515L1172.11 480.879L1168.52 484.126ZM1246.12 534.361L1249.65 532.216L1247.53 531.731L1246.12 534.361ZM1337.71 606.601L1341.61 609.775L1342.78 608.163L1345.14 607.806L1340.81 604.889L1338.01 602.38L1337.35 604.495L1337.71 606.601ZM1311.23 653.153L1316.12 653.279L1318.04 651.406L1311.28 650.031L1309.25 648.783L1311.23 653.153ZM215.433 658.816L213.296 657.778L207.861 653.37L206.272 650.798L199.062 649.31L194.784 647.066L191.139 643.37L188.589 642.682L185.331 640.832L181.595 639.924L174.759 636.74L169.007 639.096L167.504 643.237L165.723 648.137L163.152 652.515L158.618 656.105L154.378 655.213L150.96 656.577L145.747 657.064L143.694 656.026L139.693 651.837L136.452 647.625L133.808 649.175L131.773 651.982L132.427 654.157L135.164 655.513L138.157 659.9L140.579 662.025L143.055 663.05L147.851 662.743L152.487 665.649L158.501 666.659L166.584 672.169L172.926 678.826L177.385 681.485L186.563 684.181L196.192 688.047L201.488 690.516L206.484 694.429L209.437 694.601L211.867 694.112L220.711 691.083L233.291 688.966L240.706 685.895L241.476 683.173L242.848 681.026L243.439 677.972L246.731 678.136L246.335 676.036L246.533 670.882L244.709 668.905L241.142 667.905L238.917 666.699L232.386 665.273L220.154 658.77L215.433 658.816ZM189.432 669.413L183.458 669.835L182.181 669.279L175.1 669.225L172.381 668.458L169.198 666.269L162.685 662.572L166.116 661.631L175.449 660.86L179.096 661.601L184.99 661.351L187.198 661.964L199.179 662.304L201.329 663.849L199.107 665.767L189.432 669.413ZM172.262 687.96L175.463 687.954L177.658 685.191L172.168 684.671L170.16 685.234L172.262 687.96ZM170.897 696.27L173.188 696.796L173.898 695.088L170.163 694.097L170.897 696.27ZM702.114 466.555L698.098 466.978L695.774 469.091L694.084 471.204L693.872 473.318L691.548 471.839L690.279 470.36L687.954 470.782L687.531 473.741L687.32 477.546L686.686 480.716L684.573 482.195L680.979 485.154L678.655 487.69L674.427 487.056L674.85 488.535L678.866 490.86C678.866 490.86 679.5 493.184 679.289 494.242C679.077 495.299 677.598 497.201 677.598 497.201L678.021 502.061L679.5 503.33L682.459 499.737L684.784 497.835L685.207 492.974V485.788H687.109L689.856 483.252L691.547 481.35L694.083 481.138L696.619 480.715L698.309 478.602C698.309 478.602 700.634 478.179 701.48 478.179H703.804V474.586L703.17 472.473L704.438 471.204L703.804 468.88L702.114 466.555Z" fill="#C6ECFF"/>
<path d="M331.595 750.003L331.589 750.503C331.692 750.504 331.793 750.473 331.878 750.415L331.595 750.003ZM329.323 749.978L328.991 750.352C329.081 750.432 329.197 750.476 329.317 750.478L329.323 749.978ZM337.217 746.147L337.5 746.559C337.703 746.419 337.775 746.152 337.667 745.93L337.217 746.147ZM335.973 743.563L336.273 743.163C336.089 743.024 335.833 743.03 335.655 743.176C335.477 743.323 335.422 743.572 335.522 743.78L335.973 743.563ZM338.803 745.685L338.503 746.085C338.519 746.097 338.535 746.107 338.552 746.117L338.803 745.685ZM341.452 747.221L341.201 747.653C341.366 747.749 341.571 747.742 341.73 747.636L341.452 747.221ZM345.26 744.676L345.538 745.091C345.655 745.013 345.733 744.89 345.754 744.75L345.26 744.676ZM346.195 738.492L346.689 738.566C346.712 738.416 346.665 738.264 346.562 738.153L346.195 738.492ZM344.292 736.43L343.8 736.517C343.816 736.611 343.86 736.699 343.925 736.769L344.292 736.43ZM343.603 732.566L344.095 732.478C344.062 732.289 343.923 732.136 343.738 732.084L343.603 732.566ZM341.4 731.947L341.535 731.465C341.469 731.447 341.4 731.442 341.332 731.451L341.4 731.947ZM337.226 732.518L337.158 732.022L337.158 732.022L337.226 732.518ZM334.604 732.878L334.536 732.382C334.508 732.386 334.481 732.392 334.455 732.4L334.604 732.878ZM328.422 734.809L328.448 735.308C328.49 735.306 328.531 735.298 328.571 735.286L328.422 734.809ZM325.146 734.978L325.12 734.478C324.955 734.487 324.804 734.577 324.718 734.719L325.146 734.978ZM323.691 737.378L323.263 737.118C323.186 737.246 323.17 737.402 323.219 737.543L323.691 737.378ZM325.328 742.063L325.825 742.117C325.833 742.043 325.825 741.968 325.8 741.898L325.328 742.063ZM324.717 747.649L324.22 747.594C324.205 747.731 324.247 747.868 324.336 747.972C324.425 748.077 324.553 748.141 324.69 748.148L324.717 747.649ZM326.823 747.763L327.155 747.388C327.07 747.314 326.963 747.27 326.85 747.263L326.823 747.763ZM251.2 950.508L250.782 950.782C250.912 950.98 251.164 951.06 251.384 950.973L251.2 950.508ZM249.187 947.441L249.526 947.074C249.341 946.902 249.057 946.896 248.864 947.059C248.671 947.223 248.63 947.504 248.769 947.715L249.187 947.441ZM252.114 950.146L252.298 950.611C252.458 950.547 252.574 950.406 252.605 950.237C252.637 950.068 252.58 949.895 252.453 949.778L252.114 950.146ZM302.897 922.931L303.276 923.257C303.352 923.168 303.395 923.056 303.397 922.94L302.897 922.931ZM299.89 926.43L299.511 926.104C299.438 926.188 299.396 926.294 299.391 926.405L299.89 926.43ZM302.941 920.5L303.441 920.509C303.444 920.324 303.345 920.152 303.184 920.063L302.941 920.5ZM297.047 917.224L297.29 916.787C297.131 916.698 296.936 916.703 296.781 916.8L297.047 917.224ZM294.237 918.985L293.971 918.561C293.884 918.616 293.816 918.696 293.776 918.79L294.237 918.985ZM292.184 923.849L292.553 924.186C292.591 924.144 292.622 924.096 292.645 924.043L292.184 923.849ZM289.495 926.788L289.126 926.45C289.088 926.491 289.058 926.539 289.036 926.59L289.495 926.788ZM288.467 929.178L288.008 928.98C287.989 929.024 287.977 929.069 287.971 929.116L288.467 929.178ZM286.739 943.146L286.243 943.084C286.235 943.146 286.239 943.209 286.255 943.27L286.739 943.146ZM288.891 951.526L288.407 951.65C288.449 951.817 288.575 951.95 288.739 952.002C288.903 952.054 289.082 952.019 289.213 951.908L288.891 951.526ZM291.679 949.174L291.607 948.679C291.515 948.692 291.428 948.731 291.357 948.792L291.679 949.174ZM294.52 948.762L294.592 949.257C294.733 949.236 294.858 949.157 294.937 949.038C295.015 948.919 295.04 948.773 295.004 948.635L294.52 948.762ZM293.775 945.912L293.3 945.754C293.27 945.846 293.267 945.945 293.291 946.038L293.775 945.912ZM295.952 939.358L295.52 939.105C295.503 939.135 295.488 939.167 295.477 939.2L295.952 939.358ZM297.957 935.93L298.389 936.182C298.436 936.102 298.459 936.01 298.457 935.917L297.957 935.93ZM297.858 932.136L297.463 931.83C297.392 931.921 297.355 932.033 297.358 932.149L297.858 932.136ZM299.725 929.725L300.12 930.031C300.183 929.95 300.219 929.852 300.224 929.75L299.725 929.725ZM260.026 960.479L259.622 960.773L259.625 960.777L260.026 960.479ZM261.505 962.464L261.104 962.762C261.237 962.941 261.473 963.01 261.681 962.931L261.505 962.464ZM258.459 958.327L258.863 958.032C258.759 957.889 258.585 957.811 258.409 957.829L258.459 958.327ZM256.199 958.556L256.149 958.058C255.949 958.078 255.781 958.216 255.721 958.408C255.662 958.599 255.723 958.808 255.876 958.937L256.199 958.556ZM258.517 960.519L258.926 960.231C258.902 960.196 258.873 960.165 258.84 960.137L258.517 960.519ZM260.784 963.748L261.234 963.531C261.223 963.506 261.209 963.483 261.193 963.46L260.784 963.748ZM262.028 966.331L261.577 966.548C261.641 966.679 261.758 966.776 261.899 966.814C262.039 966.851 262.19 966.826 262.31 966.744L262.028 966.331ZM264.088 964.925L264.37 965.338C264.514 965.239 264.596 965.073 264.587 964.899L264.088 964.925ZM263.914 961.555L264.413 961.529C264.405 961.369 264.321 961.224 264.188 961.136C264.054 961.049 263.887 961.031 263.737 961.087L263.914 961.555ZM172.157 182.374L172.466 182.767C172.577 182.679 172.646 182.549 172.656 182.407C172.665 182.266 172.614 182.127 172.516 182.025L172.157 182.374ZM169.81 184.218L169.324 184.098C169.273 184.306 169.36 184.522 169.539 184.638C169.718 184.754 169.951 184.743 170.119 184.611L169.81 184.218ZM170.646 180.817L171.005 180.468C170.878 180.338 170.691 180.287 170.515 180.334C170.34 180.382 170.204 180.521 170.16 180.697L170.646 180.817ZM163.156 183.307L162.676 183.447C162.737 183.655 162.924 183.8 163.141 183.806C163.357 183.813 163.554 183.679 163.627 183.475L163.156 183.307ZM161.74 178.451L161.707 177.952C161.556 177.962 161.417 178.04 161.33 178.164C161.243 178.288 161.218 178.445 161.26 178.591L161.74 178.451ZM163.706 181.772L163.457 181.338C163.354 181.398 163.275 181.491 163.235 181.603L163.706 181.772ZM165.711 180.618L165.96 181.051C166.085 180.979 166.173 180.857 166.201 180.716C166.229 180.575 166.196 180.429 166.108 180.314L165.711 180.618ZM163.946 178.305L164.343 178.001C164.242 177.868 164.08 177.795 163.913 177.806L163.946 178.305ZM168.496 188.73L168.124 189.064C168.232 189.184 168.391 189.245 168.552 189.227L168.496 188.73ZM166.125 186.095L166.127 185.595C165.929 185.594 165.749 185.71 165.669 185.89C165.588 186.071 165.621 186.282 165.753 186.429L166.125 186.095ZM169.514 188.616L169.57 189.113C169.717 189.096 169.849 189.015 169.931 188.891C170.013 188.768 170.035 188.614 169.993 188.472L169.514 188.616ZM168.761 186.104L169.24 185.96C169.177 185.749 168.983 185.604 168.763 185.604L168.761 186.104ZM171.76 240.052L171.391 240.389C171.546 240.559 171.799 240.601 172.001 240.49L171.76 240.052ZM169.656 237.747L169.496 237.273C169.336 237.327 169.214 237.458 169.172 237.622C169.13 237.785 169.173 237.959 169.287 238.084L169.656 237.747ZM174.186 238.717L174.427 239.155C174.577 239.072 174.674 238.919 174.685 238.748C174.696 238.578 174.619 238.413 174.48 238.313L174.186 238.717ZM171.844 237.01L172.138 236.606C172.007 236.51 171.838 236.484 171.684 236.536L171.844 237.01ZM530.387 386.634L529.947 386.871C530.02 387.006 530.151 387.1 530.302 387.126C530.454 387.152 530.609 387.107 530.723 387.004L530.387 386.634ZM527.647 381.547L528.087 381.31C528.019 381.182 527.898 381.091 527.757 381.059L527.647 381.547ZM536.777 380.84L537.113 381.21C537.232 381.102 537.292 380.942 537.274 380.782L536.777 380.84ZM536.464 378.146L536.961 378.088C536.947 377.972 536.893 377.864 536.809 377.784L536.464 378.146ZM533.175 375.01L533.52 374.648C533.457 374.588 533.38 374.545 533.295 374.524L533.175 375.01ZM528.488 373.847L528.148 374.213C528.21 374.271 528.286 374.312 528.368 374.332L528.488 373.847ZM525.374 370.961L525.714 370.594C525.627 370.513 525.514 370.466 525.396 370.461L525.374 370.961ZM516.472 370.568L516.494 370.068L516.482 370.068L516.472 370.568ZM511.62 370.467L511.63 369.967C511.394 369.962 511.187 370.123 511.133 370.352C511.079 370.582 511.193 370.818 511.407 370.919L511.62 370.467ZM513.954 371.566L514.345 371.878C514.44 371.758 514.476 371.602 514.441 371.453C514.406 371.303 514.305 371.179 514.167 371.113L513.954 371.566ZM512.349 373.575L511.958 373.263C511.865 373.38 511.829 373.533 511.86 373.68C511.892 373.827 511.988 373.952 512.122 374.02L512.349 373.575ZM514.96 374.907L515.338 374.58C515.296 374.531 515.245 374.491 515.187 374.461L514.96 374.907ZM516.963 377.226L517.43 377.047C517.409 376.993 517.379 376.943 517.341 376.899L516.963 377.226ZM517.954 379.82L517.487 379.998C517.57 380.217 517.795 380.348 518.027 380.314L517.954 379.82ZM521.329 379.323L521.533 378.866C521.446 378.827 521.35 378.814 521.256 378.828L521.329 379.323ZM524.923 380.931L524.719 381.387C524.749 381.401 524.78 381.411 524.813 381.418L524.923 380.931ZM1076.34 468.269L1076.84 468.358C1076.86 468.223 1076.83 468.083 1076.75 467.972C1076.66 467.861 1076.54 467.788 1076.4 467.772L1076.34 468.269ZM1075.63 472.161L1075.14 472.229C1075.17 472.473 1075.38 472.655 1075.62 472.661C1075.87 472.666 1076.08 472.492 1076.13 472.25L1075.63 472.161ZM1075.07 468.118L1075.13 467.621C1074.98 467.603 1074.82 467.657 1074.72 467.768C1074.61 467.878 1074.56 468.033 1074.58 468.186L1075.07 468.118ZM1141.39 478.023L1141.14 478.451C1141.28 478.538 1141.46 478.546 1141.61 478.474L1141.39 478.023ZM1138.5 476.285L1138.13 476.619C1138.16 476.656 1138.2 476.688 1138.24 476.713L1138.5 476.285ZM1143.58 476.987L1143.62 476.488C1143.53 476.481 1143.44 476.497 1143.36 476.535L1143.58 476.987ZM1146.2 477.21L1146.16 477.708C1146.28 477.718 1146.41 477.682 1146.51 477.607L1146.2 477.21ZM1149.97 474.331L1150.27 474.728C1150.4 474.631 1150.47 474.48 1150.47 474.321C1150.46 474.163 1150.39 474.014 1150.26 473.923L1149.97 474.331ZM1145.11 470.893L1145.4 470.485C1145.36 470.456 1145.31 470.433 1145.27 470.418L1145.11 470.893ZM1141.63 469.751L1141.79 469.276C1141.72 469.253 1141.65 469.246 1141.58 469.254L1141.63 469.751ZM1136.48 470.319L1136.43 469.822C1136.35 469.83 1136.28 469.855 1136.21 469.896L1136.48 470.319ZM1134.3 471.694L1134.03 471.271C1133.86 471.378 1133.77 471.576 1133.81 471.774L1134.3 471.694ZM1134.67 473.967L1134.17 474.047C1134.21 474.26 1134.38 474.428 1134.59 474.461L1134.67 473.967ZM1136.7 474.281L1137.07 473.947C1136.99 473.861 1136.89 473.804 1136.78 473.787L1136.7 474.281ZM1170.84 487.813L1170.42 488.079C1170.52 488.24 1170.7 488.329 1170.89 488.31L1170.84 487.813ZM1168.52 484.126L1168.18 483.755C1168 483.917 1167.96 484.187 1168.09 484.392L1168.52 484.126ZM1173.71 487.527L1173.76 488.024C1173.86 488.014 1173.95 487.976 1174.03 487.913L1173.71 487.527ZM1176.73 485.047L1177.04 485.433C1177.14 485.353 1177.2 485.24 1177.22 485.116L1176.73 485.047ZM1177.12 482.258L1177.61 482.327C1177.64 482.136 1177.56 481.947 1177.39 481.84L1177.12 482.258ZM1174.48 480.515L1174.75 480.097C1174.65 480.029 1174.52 480.002 1174.4 480.021L1174.48 480.515ZM1172.11 480.879L1172.04 480.385C1171.94 480.399 1171.85 480.442 1171.78 480.508L1172.11 480.879ZM1249.65 532.216L1249.9 532.643C1250.08 532.537 1250.17 532.337 1250.14 532.136C1250.11 531.935 1249.96 531.774 1249.76 531.728L1249.65 532.216ZM1246.12 534.361L1245.68 534.124C1245.57 534.323 1245.61 534.569 1245.78 534.724C1245.94 534.879 1246.19 534.905 1246.38 534.788L1246.12 534.361ZM1247.53 531.731L1247.64 531.243C1247.42 531.193 1247.2 531.296 1247.09 531.494L1247.53 531.731ZM1341.61 609.775L1341.3 610.163C1341.4 610.249 1341.54 610.288 1341.68 610.27C1341.81 610.253 1341.94 610.179 1342.02 610.068L1341.61 609.775ZM1337.71 606.601L1337.21 606.684C1337.23 606.804 1337.3 606.912 1337.39 606.989L1337.71 606.601ZM1342.78 608.163L1342.71 607.668C1342.57 607.688 1342.45 607.761 1342.38 607.869L1342.78 608.163ZM1345.14 607.806L1345.21 608.3C1345.42 608.269 1345.58 608.117 1345.63 607.916C1345.67 607.715 1345.59 607.506 1345.42 607.391L1345.14 607.806ZM1340.81 604.889L1340.48 605.261C1340.5 605.277 1340.51 605.291 1340.53 605.303L1340.81 604.889ZM1338.01 602.38L1338.34 602.007C1338.21 601.894 1338.04 601.852 1337.87 601.898C1337.71 601.943 1337.58 602.069 1337.53 602.232L1338.01 602.38ZM1337.35 604.495L1336.87 604.347C1336.85 604.421 1336.85 604.5 1336.86 604.578L1337.35 604.495ZM1316.12 653.279L1316.1 653.779C1316.24 653.782 1316.37 653.731 1316.47 653.637L1316.12 653.279ZM1311.23 653.153L1310.77 653.359C1310.85 653.534 1311.02 653.648 1311.21 653.653L1311.23 653.153ZM1318.04 651.406L1318.39 651.764C1318.52 651.634 1318.57 651.442 1318.52 651.265C1318.47 651.087 1318.32 650.953 1318.14 650.916L1318.04 651.406ZM1311.28 650.031L1311.02 650.457C1311.07 650.487 1311.13 650.509 1311.18 650.521L1311.28 650.031ZM1309.25 648.783L1309.51 648.356C1309.32 648.242 1309.08 648.262 1308.92 648.408C1308.75 648.553 1308.7 648.789 1308.79 648.989L1309.25 648.783ZM213.296 657.778L212.981 658.166C213.011 658.19 213.043 658.211 213.077 658.227L213.296 657.778ZM215.433 658.816L215.214 659.265C215.284 659.299 215.36 659.316 215.438 659.316L215.433 658.816ZM207.861 653.37L207.436 653.632C207.465 653.68 207.502 653.723 207.546 653.758L207.861 653.37ZM206.272 650.798L206.697 650.535C206.625 650.418 206.508 650.336 206.373 650.308L206.272 650.798ZM199.062 649.31L198.83 649.752C198.871 649.774 198.915 649.79 198.961 649.799L199.062 649.31ZM194.784 647.066L194.428 647.417C194.464 647.454 194.506 647.485 194.552 647.509L194.784 647.066ZM191.139 643.37L191.495 643.019C191.433 642.955 191.355 642.91 191.269 642.887L191.139 643.37ZM188.589 642.682L188.342 643.116C188.379 643.137 188.418 643.153 188.459 643.164L188.589 642.682ZM185.331 640.832L185.578 640.397C185.537 640.374 185.494 640.357 185.449 640.346L185.331 640.832ZM181.595 639.924L181.384 640.377C181.414 640.391 181.445 640.402 181.477 640.41L181.595 639.924ZM174.759 636.74L174.97 636.286C174.844 636.228 174.698 636.224 174.569 636.277L174.759 636.74ZM169.007 639.096L168.817 638.633C168.687 638.686 168.585 638.793 168.537 638.925L169.007 639.096ZM167.504 643.237L167.974 643.407L167.974 643.407L167.504 643.237ZM165.723 648.137L166.154 648.39C166.17 648.364 166.182 648.336 166.193 648.308L165.723 648.137ZM163.152 652.515L163.462 652.907C163.511 652.868 163.552 652.821 163.583 652.768L163.152 652.515ZM158.618 656.105L158.515 656.594C158.66 656.625 158.812 656.589 158.928 656.497L158.618 656.105ZM154.378 655.213L154.481 654.723C154.384 654.703 154.284 654.712 154.193 654.748L154.378 655.213ZM150.96 656.577L151.006 657.075C151.054 657.07 151.101 657.059 151.145 657.041L150.96 656.577ZM145.747 657.064L145.521 657.51C145.605 657.552 145.7 657.57 145.793 657.562L145.747 657.064ZM143.694 656.026L143.332 656.371C143.372 656.412 143.418 656.446 143.468 656.472L143.694 656.026ZM139.693 651.837L139.297 652.142C139.308 652.156 139.319 652.169 139.331 652.182L139.693 651.837ZM136.452 647.625L136.848 647.32C136.695 647.12 136.416 647.066 136.199 647.193L136.452 647.625ZM133.808 649.175L133.555 648.743C133.495 648.778 133.444 648.825 133.403 648.881L133.808 649.175ZM131.773 651.982L131.368 651.688C131.277 651.815 131.249 651.976 131.294 652.126L131.773 651.982ZM132.427 654.157L131.948 654.301C131.988 654.433 132.081 654.543 132.205 654.605L132.427 654.157ZM135.164 655.513L135.577 655.231C135.529 655.16 135.463 655.103 135.386 655.065L135.164 655.513ZM138.157 659.9L137.744 660.182C137.768 660.216 137.796 660.248 137.827 660.276L138.157 659.9ZM140.579 662.025L140.249 662.401C140.29 662.437 140.337 662.466 140.388 662.487L140.579 662.025ZM143.055 663.05L142.864 663.512C142.934 663.541 143.011 663.554 143.087 663.549L143.055 663.05ZM147.851 662.743L148.117 662.319C148.028 662.263 147.924 662.237 147.819 662.244L147.851 662.743ZM152.487 665.649L152.221 666.072C152.277 666.107 152.339 666.131 152.404 666.142L152.487 665.649ZM158.501 666.659L158.783 666.246C158.723 666.205 158.655 666.178 158.584 666.166L158.501 666.659ZM166.584 672.169L166.946 671.824C166.922 671.798 166.895 671.775 166.866 671.756L166.584 672.169ZM172.926 678.826L172.564 679.171C172.595 679.203 172.631 679.232 172.67 679.255L172.926 678.826ZM177.385 681.485L177.129 681.914C177.165 681.936 177.204 681.953 177.244 681.964L177.385 681.485ZM186.563 684.181L186.749 683.717C186.734 683.711 186.719 683.706 186.704 683.701L186.563 684.181ZM196.192 688.047L196.403 687.594C196.395 687.59 196.387 687.586 196.378 687.583L196.192 688.047ZM201.488 690.516L201.796 690.122C201.766 690.099 201.734 690.079 201.699 690.063L201.488 690.516ZM206.484 694.429L206.176 694.822C206.256 694.885 206.353 694.922 206.455 694.928L206.484 694.429ZM209.437 694.601L209.408 695.1C209.451 695.102 209.494 695.099 209.536 695.091L209.437 694.601ZM211.867 694.112L211.966 694.602C211.987 694.598 212.008 694.592 212.029 694.585L211.867 694.112ZM220.711 691.083L220.628 690.59C220.601 690.594 220.575 690.601 220.549 690.61L220.711 691.083ZM233.291 688.966L233.374 689.459C233.411 689.453 233.447 689.442 233.482 689.428L233.291 688.966ZM240.706 685.895L240.897 686.357C241.039 686.298 241.145 686.178 241.187 686.031L240.706 685.895ZM241.476 683.173L241.055 682.903C241.028 682.945 241.008 682.99 240.995 683.037L241.476 683.173ZM242.848 681.026L243.269 681.295C243.303 681.242 243.327 681.183 243.339 681.121L242.848 681.026ZM243.439 677.972L243.464 677.472C243.215 677.46 242.995 677.632 242.948 677.877L243.439 677.972ZM246.731 678.136L246.706 678.635C246.859 678.643 247.007 678.58 247.108 678.464C247.208 678.349 247.251 678.194 247.222 678.043L246.731 678.136ZM246.335 676.036L245.835 676.017C245.834 676.054 245.837 676.092 245.844 676.128L246.335 676.036ZM246.533 670.882L247.033 670.901C247.038 670.769 246.99 670.64 246.9 670.543L246.533 670.882ZM244.709 668.905L245.076 668.566C245.014 668.498 244.933 668.448 244.844 668.423L244.709 668.905ZM241.142 667.905L240.904 668.344C240.936 668.362 240.971 668.376 241.007 668.386L241.142 667.905ZM238.917 666.699L239.155 666.259C239.114 666.237 239.07 666.22 239.024 666.21L238.917 666.699ZM232.386 665.273L232.151 665.714C232.192 665.736 232.235 665.751 232.279 665.761L232.386 665.273ZM220.154 658.77L220.389 658.328C220.315 658.289 220.233 658.269 220.149 658.27L220.154 658.77ZM183.458 669.835L183.258 670.293C183.332 670.325 183.413 670.339 183.493 670.333L183.458 669.835ZM189.432 669.413L189.467 669.911C189.515 669.908 189.563 669.898 189.608 669.881L189.432 669.413ZM182.181 669.279L182.381 668.82C182.319 668.793 182.252 668.779 182.185 668.779L182.181 669.279ZM175.1 669.225L174.964 669.706C175.007 669.718 175.052 669.724 175.096 669.725L175.1 669.225ZM172.381 668.458L172.098 668.87C172.143 668.901 172.193 668.924 172.245 668.939L172.381 668.458ZM169.198 666.269L169.481 665.857C169.469 665.849 169.457 665.841 169.445 665.834L169.198 666.269ZM162.685 662.572L162.553 662.09C162.358 662.143 162.214 662.309 162.189 662.51C162.164 662.711 162.262 662.907 162.438 663.007L162.685 662.572ZM166.116 661.631L166.075 661.132C166.044 661.135 166.014 661.14 165.984 661.149L166.116 661.631ZM175.449 660.86L175.549 660.37C175.502 660.36 175.455 660.357 175.408 660.361L175.449 660.86ZM179.096 661.601L178.996 662.091C179.036 662.099 179.077 662.102 179.117 662.1L179.096 661.601ZM184.99 661.351L185.124 660.869C185.073 660.855 185.021 660.849 184.969 660.851L184.99 661.351ZM187.198 661.964L187.064 662.445C187.103 662.456 187.143 662.462 187.184 662.463L187.198 661.964ZM199.179 662.304L199.471 661.898C199.39 661.839 199.293 661.807 199.193 661.804L199.179 662.304ZM201.329 663.849L201.656 664.227C201.772 664.127 201.835 663.979 201.828 663.826C201.822 663.673 201.745 663.532 201.621 663.443L201.329 663.849ZM199.107 665.767L199.283 666.235C199.338 666.214 199.389 666.184 199.434 666.145L199.107 665.767ZM175.463 687.954L175.464 688.454C175.616 688.453 175.76 688.384 175.854 688.265L175.463 687.954ZM172.262 687.96L171.866 688.265C171.961 688.388 172.108 688.46 172.263 688.46L172.262 687.96ZM177.658 685.191L178.049 685.502C178.164 685.358 178.19 685.164 178.118 684.995C178.046 684.826 177.888 684.71 177.705 684.693L177.658 685.191ZM172.168 684.671L172.215 684.173C172.154 684.167 172.092 684.173 172.033 684.189L172.168 684.671ZM170.16 685.234L170.025 684.752C169.865 684.797 169.738 684.919 169.685 685.076C169.633 685.234 169.663 685.407 169.764 685.539L170.16 685.234ZM173.188 696.796L173.076 697.283C173.314 697.338 173.556 697.213 173.65 696.988L173.188 696.796ZM170.897 696.27L170.423 696.43C170.479 696.594 170.616 696.718 170.785 696.757L170.897 696.27ZM173.898 695.088L174.36 695.28C174.415 695.146 174.41 694.996 174.346 694.866C174.282 694.737 174.166 694.641 174.026 694.604L173.898 695.088ZM170.163 694.097L170.291 693.613C170.113 693.566 169.924 693.621 169.798 693.755C169.672 693.89 169.63 694.082 169.689 694.257L170.163 694.097ZM698.098 466.978L698.046 466.48C697.94 466.492 697.84 466.536 697.762 466.608L698.098 466.978ZM702.114 466.555L702.518 466.261C702.413 466.116 702.239 466.039 702.062 466.057L702.114 466.555ZM695.774 469.091L695.438 468.721C695.418 468.739 695.4 468.758 695.383 468.778L695.774 469.091ZM694.084 471.204L693.693 470.891C693.633 470.967 693.596 471.058 693.586 471.154L694.084 471.204ZM693.872 473.318L693.604 473.74C693.75 473.833 693.934 473.843 694.09 473.767C694.246 473.692 694.352 473.54 694.369 473.368L693.872 473.318ZM691.548 471.839L691.168 472.164C691.201 472.202 691.238 472.234 691.279 472.261L691.548 471.839ZM690.279 470.36L690.658 470.034C690.543 469.899 690.364 469.836 690.19 469.868L690.279 470.36ZM687.954 470.782L687.865 470.29C687.653 470.328 687.489 470.498 687.459 470.711L687.954 470.782ZM687.531 473.741L687.036 473.67C687.034 473.684 687.033 473.699 687.032 473.713L687.531 473.741ZM687.32 477.546L687.81 477.644C687.815 477.621 687.818 477.597 687.819 477.573L687.32 477.546ZM686.686 480.716L686.973 481.125C687.078 481.052 687.151 480.94 687.176 480.814L686.686 480.716ZM684.573 482.195L684.286 481.785C684.276 481.793 684.265 481.8 684.255 481.809L684.573 482.195ZM680.979 485.154L680.661 484.768C680.643 484.783 680.626 484.799 680.61 484.816L680.979 485.154ZM678.655 487.69L678.581 488.184C678.745 488.209 678.911 488.15 679.024 488.028L678.655 487.69ZM674.427 487.056L674.501 486.561C674.333 486.536 674.163 486.598 674.051 486.726C673.939 486.854 673.899 487.03 673.946 487.193L674.427 487.056ZM674.85 488.535L674.369 488.672C674.405 488.797 674.487 488.902 674.599 488.967L674.85 488.535ZM678.866 490.86L679.348 490.728C679.314 490.601 679.23 490.493 679.116 490.427L678.866 490.86ZM679.289 494.242L679.779 494.34L679.779 494.339L679.289 494.242ZM677.598 497.201L677.203 496.894C677.126 496.993 677.089 497.118 677.1 497.244L677.598 497.201ZM678.021 502.061L677.523 502.104C677.534 502.234 677.596 502.355 677.695 502.44L678.021 502.061ZM679.5 503.33L679.174 503.709C679.276 503.797 679.409 503.839 679.543 503.828C679.677 503.816 679.8 503.751 679.886 503.648L679.5 503.33ZM682.459 499.737L682.142 499.35C682.117 499.37 682.094 499.394 682.073 499.419L682.459 499.737ZM684.784 497.835L685.101 498.222C685.205 498.136 685.27 498.012 685.282 497.878L684.784 497.835ZM685.207 492.974L685.705 493.017C685.706 493.003 685.707 492.988 685.707 492.974H685.207ZM685.207 485.788V485.288C684.931 485.288 684.707 485.512 684.707 485.788H685.207ZM687.109 485.788V486.288C687.235 486.288 687.356 486.24 687.448 486.155L687.109 485.788ZM689.856 483.252L690.195 483.619C690.207 483.608 690.219 483.596 690.23 483.584L689.856 483.252ZM691.547 481.35L691.505 480.851C691.377 480.862 691.259 480.922 691.173 481.017L691.547 481.35ZM694.083 481.138L694.125 481.636C694.138 481.635 694.152 481.633 694.165 481.631L694.083 481.138ZM696.619 480.715L696.701 481.208C696.823 481.188 696.932 481.123 697.009 481.027L696.619 480.715ZM698.309 478.602L698.219 478.11C698.101 478.131 697.994 478.195 697.918 478.289L698.309 478.602ZM703.804 478.179V478.679C704.08 478.679 704.304 478.455 704.304 478.179H703.804ZM703.804 474.586H704.304C704.304 474.537 704.297 474.489 704.283 474.442L703.804 474.586ZM703.17 472.473L702.816 472.119C702.686 472.249 702.638 472.44 702.691 472.616L703.17 472.473ZM704.438 471.204L704.792 471.557C704.918 471.43 704.968 471.245 704.92 471.072L704.438 471.204ZM703.804 468.88L704.286 468.748C704.27 468.69 704.244 468.635 704.208 468.586L703.804 468.88ZM331.6 749.503L329.328 749.478L329.317 750.478L331.589 750.503L331.6 749.503ZM336.934 745.734L331.312 749.59L331.878 750.415L337.5 746.559L336.934 745.734ZM335.522 743.78L336.766 746.364L337.667 745.93L336.423 743.346L335.522 743.78ZM339.103 745.285L336.273 743.163L335.673 743.963L338.503 746.085L339.103 745.285ZM341.703 746.788L339.054 745.252L338.552 746.117L341.201 747.653L341.703 746.788ZM344.982 744.26L341.174 746.805L341.73 747.636L345.538 745.091L344.982 744.26ZM345.701 738.417L344.766 744.601L345.754 744.75L346.689 738.566L345.701 738.417ZM343.925 736.769L345.828 738.831L346.562 738.153L344.659 736.091L343.925 736.769ZM343.111 732.654L343.8 736.517L344.784 736.342L344.095 732.478L343.111 732.654ZM341.265 732.428L343.468 733.047L343.738 732.084L341.535 731.465L341.265 732.428ZM337.294 733.013L341.468 732.442L341.332 731.451L337.158 732.022L337.294 733.013ZM334.672 733.373L337.294 733.013L337.158 732.022L334.536 732.382L334.672 733.373ZM328.571 735.286L334.753 733.355L334.455 732.4L328.273 734.331L328.571 735.286ZM325.172 735.477L328.448 735.308L328.396 734.309L325.12 734.478L325.172 735.477ZM324.119 737.637L325.574 735.237L324.718 734.719L323.263 737.118L324.119 737.637ZM325.8 741.898L324.163 737.213L323.219 737.543L324.856 742.228L325.8 741.898ZM325.214 747.703L325.825 742.117L324.831 742.008L324.22 747.594L325.214 747.703ZM326.85 747.263L324.744 747.149L324.69 748.148L326.796 748.262L326.85 747.263ZM329.655 749.603L327.155 747.388L326.491 748.137L328.991 750.352L329.655 749.603ZM251.618 950.233L249.605 947.166L248.769 947.715L250.782 950.782L251.618 950.233ZM251.93 949.681L251.016 950.043L251.384 950.973L252.298 950.611L251.93 949.681ZM248.848 947.808L251.775 950.513L252.453 949.778L249.526 947.074L248.848 947.808ZM302.518 922.605L299.511 926.104L300.269 926.756L303.276 923.257L302.518 922.605ZM302.441 920.491L302.397 922.922L303.397 922.94L303.441 920.509L302.441 920.491ZM296.804 917.661L302.698 920.937L303.184 920.063L297.29 916.787L296.804 917.661ZM294.502 919.408L297.312 917.647L296.781 916.8L293.971 918.561L294.502 919.408ZM292.645 924.043L294.698 919.179L293.776 918.79L291.723 923.654L292.645 924.043ZM289.864 927.125L292.553 924.186L291.815 923.511L289.126 926.45L289.864 927.125ZM288.926 929.375L289.954 926.985L289.036 926.59L288.008 928.98L288.926 929.375ZM287.235 943.207L288.963 929.239L287.971 929.116L286.243 943.084L287.235 943.207ZM289.375 951.401L287.223 943.021L286.255 943.27L288.407 951.65L289.375 951.401ZM291.357 948.792L288.569 951.144L289.213 951.908L292.001 949.556L291.357 948.792ZM294.448 948.267L291.607 948.679L291.751 949.669L294.592 949.257L294.448 948.267ZM293.291 946.038L294.036 948.888L295.004 948.635L294.259 945.785L293.291 946.038ZM295.477 939.2L293.3 945.754L294.249 946.069L296.426 939.515L295.477 939.2ZM297.525 935.677L295.52 939.105L296.384 939.61L298.389 936.182L297.525 935.677ZM297.358 932.149L297.457 935.943L298.457 935.917L298.358 932.123L297.358 932.149ZM299.33 929.419L297.463 931.83L298.253 932.442L300.12 930.031L299.33 929.419ZM299.391 926.405L299.226 929.7L300.224 929.75L300.389 926.455L299.391 926.405ZM259.625 960.777L261.104 962.762L261.906 962.165L260.427 960.18L259.625 960.777ZM258.055 958.621L259.622 960.773L260.43 960.184L258.863 958.032L258.055 958.621ZM256.249 959.053L258.509 958.824L258.409 957.829L256.149 958.058L256.249 959.053ZM258.84 960.137L256.522 958.174L255.876 958.937L258.194 960.9L258.84 960.137ZM261.193 963.46L258.926 960.231L258.108 960.806L260.375 964.035L261.193 963.46ZM262.478 966.114L261.234 963.531L260.333 963.965L261.577 966.548L262.478 966.114ZM263.806 964.512L261.746 965.918L262.31 966.744L264.37 965.338L263.806 964.512ZM263.415 961.58L263.589 964.95L264.587 964.899L264.413 961.529L263.415 961.58ZM261.681 962.931L264.09 962.022L263.737 961.087L261.328 961.996L261.681 962.931ZM171.848 181.981L169.501 183.825L170.119 184.611L172.466 182.767L171.848 181.981ZM170.287 181.165L171.798 182.722L172.516 182.025L171.005 180.468L170.287 181.165ZM170.295 184.337L171.131 180.936L170.16 180.697L169.324 184.098L170.295 184.337ZM163.636 183.167L162.22 178.311L161.26 178.591L162.676 183.447L163.636 183.167ZM163.235 181.603L162.685 183.138L163.627 183.475L164.177 181.94L163.235 181.603ZM165.462 180.184L163.457 181.338L163.955 182.205L165.96 181.051L165.462 180.184ZM163.548 178.608L165.313 180.921L166.108 180.314L164.343 178.001L163.548 178.608ZM161.773 178.95L163.979 178.804L163.913 177.806L161.707 177.952L161.773 178.95ZM168.868 188.395L166.497 185.76L165.753 186.429L168.124 189.064L168.868 188.395ZM169.458 188.119L168.44 188.233L168.552 189.227L169.57 189.113L169.458 188.119ZM168.282 186.247L169.035 188.759L169.993 188.472L169.24 185.96L168.282 186.247ZM166.123 186.595L168.759 186.604L168.763 185.604L166.127 185.595L166.123 186.595ZM172.129 239.715L170.025 237.41L169.287 238.084L171.391 240.389L172.129 239.715ZM173.945 238.279L171.519 239.614L172.001 240.49L174.427 239.155L173.945 238.279ZM171.549 237.414L173.891 239.121L174.48 238.313L172.138 236.606L171.549 237.414ZM169.816 238.221L172.004 237.484L171.684 236.536L169.496 237.273L169.816 238.221ZM530.827 386.397L528.087 381.31L527.207 381.784L529.947 386.871L530.827 386.397ZM536.441 380.469L530.051 386.263L530.723 387.004L537.113 381.21L536.441 380.469ZM535.967 378.203L536.28 380.897L537.274 380.782L536.961 378.088L535.967 378.203ZM532.83 375.372L536.119 378.508L536.809 377.784L533.52 374.648L532.83 375.372ZM528.368 374.332L533.055 375.495L533.295 374.524L528.608 373.361L528.368 374.332ZM525.034 371.327L528.148 374.213L528.828 373.48L525.714 370.594L525.034 371.327ZM516.45 371.067L525.352 371.46L525.396 370.461L516.494 370.068L516.45 371.067ZM511.61 370.967L516.462 371.068L516.482 370.068L511.63 369.967L511.61 370.967ZM514.167 371.113L511.833 370.014L511.407 370.919L513.741 372.018L514.167 371.113ZM512.74 373.887L514.345 371.878L513.563 371.254L511.958 373.263L512.74 373.887ZM515.187 374.461L512.576 373.129L512.122 374.02L514.733 375.352L515.187 374.461ZM517.341 376.899L515.338 374.58L514.582 375.234L516.585 377.553L517.341 376.899ZM518.421 379.641L517.43 377.047L516.496 377.404L517.487 379.998L518.421 379.641ZM521.256 378.828L517.881 379.325L518.027 380.314L521.402 379.817L521.256 378.828ZM525.127 380.474L521.533 378.866L521.125 379.779L524.719 381.387L525.127 380.474ZM527.757 381.059L525.033 380.443L524.813 381.418L527.537 382.034L527.757 381.059ZM1075.85 468.179L1075.14 472.071L1076.13 472.25L1076.84 468.358L1075.85 468.179ZM1075.01 468.614L1076.28 468.765L1076.4 467.772L1075.13 467.621L1075.01 468.614ZM1076.13 472.092L1075.57 468.049L1074.58 468.186L1075.14 472.229L1076.13 472.092ZM1141.65 477.594L1138.76 475.856L1138.24 476.713L1141.14 478.451L1141.65 477.594ZM1143.36 476.535L1141.18 477.571L1141.61 478.474L1143.79 477.438L1143.36 476.535ZM1146.25 476.712L1143.62 476.488L1143.54 477.485L1146.16 477.708L1146.25 476.712ZM1149.66 473.934L1145.9 476.813L1146.51 477.607L1150.27 474.728L1149.66 473.934ZM1144.82 471.301L1149.68 474.739L1150.26 473.923L1145.4 470.485L1144.82 471.301ZM1141.48 470.226L1144.95 471.368L1145.27 470.418L1141.79 469.276L1141.48 470.226ZM1136.54 470.816L1141.69 470.248L1141.58 469.254L1136.43 469.822L1136.54 470.816ZM1134.57 472.117L1136.75 470.742L1136.21 469.896L1134.03 471.271L1134.57 472.117ZM1135.16 473.887L1134.79 471.614L1133.81 471.774L1134.17 474.047L1135.16 473.887ZM1136.78 473.787L1134.74 473.473L1134.59 474.461L1136.62 474.775L1136.78 473.787ZM1138.87 475.951L1137.07 473.947L1136.33 474.615L1138.13 476.619L1138.87 475.951ZM1171.27 487.546L1168.94 483.859L1168.09 484.392L1170.42 488.079L1171.27 487.546ZM1173.66 487.029L1170.79 487.315L1170.89 488.31L1173.76 488.024L1173.66 487.029ZM1176.41 484.661L1173.4 487.141L1174.03 487.913L1177.04 485.433L1176.41 484.661ZM1176.62 482.188L1176.23 484.977L1177.22 485.116L1177.61 482.327L1176.62 482.188ZM1174.2 480.932L1176.84 482.675L1177.39 481.84L1174.75 480.097L1174.2 480.932ZM1172.19 481.373L1174.55 481.009L1174.4 480.021L1172.04 480.385L1172.19 481.373ZM1168.85 484.497L1172.45 481.25L1171.78 480.508L1168.18 483.755L1168.85 484.497ZM1249.39 531.789L1245.86 533.934L1246.38 534.788L1249.9 532.643L1249.39 531.789ZM1247.42 532.218L1249.53 532.703L1249.76 531.728L1247.64 531.243L1247.42 532.218ZM1246.56 534.597L1247.97 531.967L1247.09 531.494L1245.68 534.124L1246.56 534.597ZM1341.93 609.387L1338.02 606.213L1337.39 606.989L1341.3 610.163L1341.93 609.387ZM1342.38 607.869L1341.21 609.481L1342.02 610.068L1343.19 608.456L1342.38 607.869ZM1345.06 607.311L1342.71 607.668L1342.86 608.657L1345.21 608.3L1345.06 607.311ZM1340.53 605.303L1344.86 608.22L1345.42 607.391L1341.09 604.474L1340.53 605.303ZM1337.67 602.752L1340.48 605.261L1341.15 604.516L1338.34 602.007L1337.67 602.752ZM1337.83 604.643L1338.49 602.528L1337.53 602.232L1336.87 604.347L1337.83 604.643ZM1338.2 606.518L1337.85 604.412L1336.86 604.578L1337.21 606.684L1338.2 606.518ZM1316.13 652.779L1311.24 652.653L1311.21 653.653L1316.1 653.779L1316.13 652.779ZM1317.69 651.048L1315.77 652.921L1316.47 653.637L1318.39 651.764L1317.69 651.048ZM1311.18 650.521L1317.94 651.896L1318.14 650.916L1311.38 649.541L1311.18 650.521ZM1308.99 649.209L1311.02 650.457L1311.54 649.604L1309.51 648.356L1308.99 649.209ZM1311.68 652.946L1309.7 648.576L1308.79 648.989L1310.77 653.359L1311.68 652.946ZM213.077 658.227L215.214 659.265L215.651 658.366L213.514 657.328L213.077 658.227ZM207.546 653.758L212.981 658.166L213.611 657.389L208.176 652.981L207.546 653.758ZM205.847 651.061L207.436 653.632L208.286 653.107L206.697 650.535L205.847 651.061ZM198.961 649.799L206.171 651.287L206.373 650.308L199.163 648.82L198.961 649.799ZM194.552 647.509L198.83 649.752L199.294 648.867L195.016 646.623L194.552 647.509ZM190.783 643.721L194.428 647.417L195.14 646.715L191.495 643.019L190.783 643.721ZM188.459 643.164L191.009 643.852L191.269 642.887L188.719 642.199L188.459 643.164ZM185.084 641.267L188.342 643.116L188.836 642.247L185.578 640.397L185.084 641.267ZM181.477 640.41L185.213 641.318L185.449 640.346L181.713 639.438L181.477 640.41ZM174.548 637.193L181.384 640.377L181.806 639.47L174.97 636.286L174.548 637.193ZM169.196 639.558L174.948 637.202L174.569 636.277L168.817 638.633L169.196 639.558ZM167.974 643.407L169.477 639.266L168.537 638.925L167.034 643.066L167.974 643.407ZM166.193 648.308L167.974 643.407L167.034 643.066L165.253 647.966L166.193 648.308ZM163.583 652.768L166.154 648.39L165.292 647.884L162.721 652.262L163.583 652.768ZM158.928 656.497L163.462 652.907L162.842 652.123L158.308 655.713L158.928 656.497ZM154.275 655.702L158.515 656.594L158.721 655.615L154.481 654.723L154.275 655.702ZM151.145 657.041L154.563 655.677L154.193 654.748L150.775 656.112L151.145 657.041ZM145.793 657.562L151.006 657.075L150.913 656.079L145.7 656.566L145.793 657.562ZM143.468 656.472L145.521 657.51L145.973 656.618L143.92 655.579L143.468 656.472ZM139.331 652.182L143.332 656.371L144.056 655.68L140.055 651.491L139.331 652.182ZM136.056 647.93L139.297 652.142L140.089 651.532L136.848 647.32L136.056 647.93ZM134.061 649.606L136.705 648.056L136.199 647.193L133.555 648.743L134.061 649.606ZM132.178 652.275L134.213 649.468L133.403 648.881L131.368 651.688L132.178 652.275ZM132.906 654.013L132.252 651.838L131.294 652.126L131.948 654.301L132.906 654.013ZM135.386 655.065L132.649 653.709L132.205 654.605L134.942 655.961L135.386 655.065ZM138.57 659.618L135.577 655.231L134.751 655.794L137.744 660.182L138.57 659.618ZM140.909 661.649L138.487 659.524L137.827 660.276L140.249 662.401L140.909 661.649ZM143.246 662.588L140.77 661.563L140.388 662.487L142.864 663.512L143.246 662.588ZM147.819 662.244L143.023 662.551L143.087 663.549L147.883 663.242L147.819 662.244ZM152.753 665.225L148.117 662.319L147.585 663.166L152.221 666.072L152.753 665.225ZM158.584 666.166L152.57 665.156L152.404 666.142L158.418 667.152L158.584 666.166ZM166.866 671.756L158.783 666.246L158.219 667.072L166.302 672.582L166.866 671.756ZM173.288 678.481L166.946 671.824L166.222 672.514L172.564 679.171L173.288 678.481ZM177.641 681.055L173.182 678.396L172.67 679.255L177.129 681.914L177.641 681.055ZM186.704 683.701L177.526 681.005L177.244 681.964L186.422 684.66L186.704 683.701ZM196.378 687.583L186.749 683.717L186.377 684.645L196.006 688.511L196.378 687.583ZM201.699 690.063L196.403 687.594L195.981 688.5L201.277 690.969L201.699 690.063ZM206.792 694.035L201.796 690.122L201.18 690.909L206.176 694.822L206.792 694.035ZM209.466 694.102L206.513 693.93L206.455 694.928L209.408 695.1L209.466 694.102ZM211.768 693.622L209.338 694.111L209.536 695.091L211.966 694.602L211.768 693.622ZM220.549 690.61L211.705 693.639L212.029 694.585L220.873 691.556L220.549 690.61ZM233.208 688.473L220.628 690.59L220.794 691.576L233.374 689.459L233.208 688.473ZM240.515 685.433L233.1 688.504L233.482 689.428L240.897 686.357L240.515 685.433ZM240.995 683.037L240.225 685.759L241.187 686.031L241.957 683.309L240.995 683.037ZM242.427 680.756L241.055 682.903L241.897 683.442L243.269 681.295L242.427 680.756ZM242.948 677.877L242.357 680.931L243.339 681.121L243.93 678.067L242.948 677.877ZM246.756 677.636L243.464 677.472L243.414 678.471L246.706 678.635L246.756 677.636ZM245.844 676.128L246.24 678.228L247.222 678.043L246.826 675.943L245.844 676.128ZM246.033 670.863L245.835 676.017L246.835 676.055L247.033 670.901L246.033 670.863ZM244.341 669.244L246.165 671.221L246.9 670.543L245.076 668.566L244.341 669.244ZM241.007 668.386L244.574 669.386L244.844 668.423L241.277 667.423L241.007 668.386ZM238.679 667.138L240.904 668.344L241.38 667.465L239.155 666.259L238.679 667.138ZM232.279 665.761L238.81 667.187L239.024 666.21L232.493 664.784L232.279 665.761ZM219.919 659.211L232.151 665.714L232.621 664.831L220.389 658.328L219.919 659.211ZM215.438 659.316L220.159 659.27L220.149 658.27L215.428 658.316L215.438 659.316ZM183.493 670.333L189.467 669.911L189.397 668.914L183.423 669.336L183.493 670.333ZM181.981 669.737L183.258 670.293L183.658 669.376L182.381 668.82L181.981 669.737ZM175.096 669.725L182.177 669.779L182.185 668.779L175.104 668.725L175.096 669.725ZM172.245 668.939L174.964 669.706L175.236 668.744L172.517 667.976L172.245 668.939ZM168.915 666.681L172.098 668.87L172.664 668.046L169.481 665.857L168.915 666.681ZM162.438 663.007L168.951 666.704L169.445 665.834L162.932 662.137L162.438 663.007ZM165.984 661.149L162.553 662.09L162.817 663.054L166.248 662.113L165.984 661.149ZM175.408 660.361L166.075 661.132L166.157 662.129L175.49 661.358L175.408 660.361ZM179.196 661.111L175.549 660.37L175.349 661.35L178.996 662.091L179.196 661.111ZM184.969 660.851L179.075 661.101L179.117 662.1L185.011 661.85L184.969 660.851ZM187.332 661.482L185.124 660.869L184.856 661.832L187.064 662.445L187.332 661.482ZM199.193 661.804L187.212 661.464L187.184 662.463L199.165 662.804L199.193 661.804ZM201.621 663.443L199.471 661.898L198.887 662.71L201.037 664.255L201.621 663.443ZM199.434 666.145L201.656 664.227L201.002 663.47L198.78 665.388L199.434 666.145ZM189.608 669.881L199.283 666.235L198.931 665.299L189.256 668.945L189.608 669.881ZM175.462 687.454L172.261 687.46L172.263 688.46L175.464 688.454L175.462 687.454ZM177.266 684.88L175.071 687.643L175.854 688.265L178.049 685.502L177.266 684.88ZM172.121 685.168L177.611 685.689L177.705 684.693L172.215 684.173L172.121 685.168ZM170.295 685.715L172.303 685.152L172.033 684.189L170.025 684.752L170.295 685.715ZM172.658 687.654L170.556 684.928L169.764 685.539L171.866 688.265L172.658 687.654ZM173.3 696.308L171.009 695.782L170.785 696.757L173.076 697.283L173.3 696.308ZM173.436 694.896L172.726 696.604L173.65 696.988L174.36 695.28L173.436 694.896ZM170.035 694.58L173.77 695.571L174.026 694.604L170.291 693.613L170.035 694.58ZM171.371 696.11L170.637 693.937L169.689 694.257L170.423 696.43L171.371 696.11ZM698.15 467.475L702.166 467.052L702.062 466.057L698.046 466.48L698.15 467.475ZM696.11 469.461L698.434 467.348L697.762 466.608L695.438 468.721L696.11 469.461ZM694.474 471.516L696.164 469.403L695.383 468.778L693.693 470.891L694.474 471.516ZM694.369 473.368L694.581 471.254L693.586 471.154L693.374 473.268L694.369 473.368ZM691.279 472.261L693.604 473.74L694.14 472.896L691.816 471.417L691.279 472.261ZM689.899 470.685L691.168 472.164L691.927 471.513L690.658 470.034L689.899 470.685ZM688.043 471.274L690.368 470.852L690.19 469.868L687.865 470.29L688.043 471.274ZM688.026 473.811L688.449 470.852L687.459 470.711L687.036 473.67L688.026 473.811ZM687.819 477.573L688.03 473.768L687.032 473.713L686.821 477.518L687.819 477.573ZM687.176 480.814L687.81 477.644L686.83 477.448L686.196 480.618L687.176 480.814ZM684.86 482.604L686.973 481.125L686.399 480.306L684.286 481.785L684.86 482.604ZM681.297 485.54L684.891 482.581L684.255 481.809L680.661 484.768L681.297 485.54ZM679.024 488.028L681.348 485.491L680.61 484.816L678.286 487.352L679.024 488.028ZM674.353 487.55L678.581 488.184L678.729 487.195L674.501 486.561L674.353 487.55ZM675.331 488.397L674.908 486.918L673.946 487.193L674.369 488.672L675.331 488.397ZM679.116 490.427L675.1 488.102L674.599 488.967L678.615 491.292L679.116 490.427ZM679.779 494.339C679.846 494.007 679.841 493.608 679.81 493.226C679.779 492.837 679.716 492.429 679.648 492.063C679.58 491.695 679.506 491.363 679.448 491.123C679.419 491.003 679.395 490.905 679.377 490.837C679.368 490.803 679.361 490.776 679.356 490.758C679.354 490.748 679.352 490.741 679.351 490.736C679.35 490.734 679.349 490.732 679.349 490.731C679.349 490.73 679.349 490.729 679.349 490.729C679.349 490.729 679.348 490.729 679.348 490.728C679.348 490.728 679.348 490.728 679.348 490.728C679.348 490.728 679.348 490.728 678.866 490.86C678.384 490.991 678.384 490.991 678.384 490.991C678.384 490.991 678.384 490.991 678.384 490.991C678.384 490.991 678.384 490.991 678.384 490.991C678.384 490.991 678.384 490.992 678.384 490.992C678.384 490.993 678.384 490.994 678.385 490.996C678.386 491 678.388 491.006 678.39 491.014C678.394 491.031 678.4 491.055 678.409 491.086C678.425 491.15 678.448 491.242 678.475 491.356C678.53 491.584 678.601 491.899 678.665 492.245C678.729 492.592 678.786 492.964 678.814 493.307C678.842 493.659 678.838 493.948 678.799 494.144L679.779 494.339ZM677.598 497.201C677.993 497.508 677.993 497.508 677.993 497.508C677.993 497.507 677.993 497.507 677.993 497.507C677.993 497.507 677.993 497.507 677.993 497.507C677.993 497.507 677.994 497.506 677.994 497.506C677.995 497.504 677.996 497.503 677.998 497.501C678.001 497.497 678.006 497.491 678.011 497.483C678.023 497.468 678.04 497.446 678.061 497.418C678.103 497.362 678.164 497.281 678.236 497.181C678.382 496.982 678.579 496.704 678.783 496.391C678.986 496.079 679.201 495.726 679.38 495.379C679.555 495.039 679.712 494.673 679.779 494.34L678.799 494.143C678.759 494.339 678.652 494.607 678.491 494.921C678.333 495.227 678.138 495.549 677.945 495.844C677.753 496.139 677.567 496.403 677.428 496.593C677.359 496.687 677.302 496.763 677.263 496.815C677.243 496.841 677.228 496.861 677.218 496.875C677.213 496.881 677.209 496.886 677.207 496.89C677.205 496.891 677.204 496.892 677.204 496.893C677.204 496.893 677.203 496.894 677.203 496.894C677.203 496.894 677.203 496.894 677.203 496.894C677.203 496.894 677.203 496.894 677.203 496.894C677.203 496.894 677.203 496.894 677.598 497.201ZM678.519 502.017L678.096 497.157L677.1 497.244L677.523 502.104L678.519 502.017ZM679.826 502.95L678.347 501.681L677.695 502.44L679.174 503.709L679.826 502.95ZM682.073 499.419L679.114 503.012L679.886 503.648L682.845 500.055L682.073 499.419ZM684.467 497.448L682.142 499.35L682.776 500.124L685.101 498.222L684.467 497.448ZM684.709 492.93L684.286 497.791L685.282 497.878L685.705 493.017L684.709 492.93ZM684.707 485.788V492.974H685.707V485.788H684.707ZM687.109 485.288H685.207V486.288H687.109V485.288ZM689.517 482.884L686.77 485.42L687.448 486.155L690.195 483.619L689.517 482.884ZM691.173 481.017L689.482 482.919L690.23 483.584L691.921 481.682L691.173 481.017ZM694.041 480.639L691.505 480.851L691.589 481.848L694.125 481.636L694.041 480.639ZM696.537 480.222L694.001 480.645L694.165 481.631L696.701 481.208L696.537 480.222ZM697.918 478.289L696.228 480.402L697.009 481.027L698.699 478.914L697.918 478.289ZM701.48 477.679C701.011 477.679 700.179 477.792 699.501 477.896C699.154 477.949 698.834 478.003 698.601 478.043C698.484 478.063 698.389 478.079 698.323 478.091C698.29 478.097 698.264 478.102 698.247 478.105C698.238 478.106 698.231 478.108 698.227 478.108C698.224 478.109 698.223 478.109 698.221 478.109C698.221 478.11 698.22 478.11 698.22 478.11C698.22 478.11 698.22 478.11 698.22 478.11C698.22 478.11 698.22 478.11 698.22 478.11C698.219 478.11 698.219 478.11 698.309 478.602C698.398 479.094 698.398 479.094 698.398 479.094C698.398 479.094 698.398 479.094 698.398 479.094C698.399 479.094 698.399 479.094 698.399 479.094C698.399 479.094 698.399 479.093 698.4 479.093C698.401 479.093 698.403 479.093 698.405 479.092C698.409 479.092 698.415 479.091 698.424 479.089C698.441 479.086 698.466 479.082 698.498 479.076C698.562 479.064 698.655 479.048 698.77 479.028C698.999 478.989 699.313 478.937 699.653 478.884C700.349 478.777 701.102 478.679 701.48 478.679V477.679ZM703.804 477.679H701.48V478.679H703.804V477.679ZM703.304 474.586V478.179H704.304V474.586H703.304ZM702.691 472.616L703.325 474.729L704.283 474.442L703.649 472.329L702.691 472.616ZM704.084 470.85L702.816 472.119L703.524 472.826L704.792 471.557L704.084 470.85ZM703.322 469.011L703.956 471.335L704.92 471.072L704.286 468.748L703.322 469.011ZM701.71 466.849L703.4 469.174L704.208 468.586L702.518 466.261L701.71 466.849ZM211.743 664.078L208.005 659.962L207.265 660.634L211.003 664.75L211.743 664.078Z" fill="#0978AB"/>
</svg>
