<svg width="1400" height="1139" viewBox="0 0 1400 1139" fill="none" xmlns="http://www.w3.org/2000/svg">
<mask id="mask0_19_1285" style="mask-type:alpha" maskUnits="userSpaceOnUse" x="106" y="170" width="1155" height="582">
<path d="M764.366 688.552L765.146 682.65L766.366 680.831L764.406 678.952L765.515 672.398L762.787 672.418L758.502 673.682L753.84 671.562L751.261 676.359L745.054 666.115L746.733 662.498L742.861 657.06L741.374 654.124L739.698 650.197L737.671 649.051L733.324 651.073L729.707 650.479L727.457 648.398L728.245 645.43L726.141 641.335L720.874 638.053L718.539 632.243L715.844 626.063L713.813 622.921L712.083 616.288L710.52 609.651L711.145 607.109L706.144 592.86L703.77 587.927L699.209 587.846L693.77 585.582L690.768 583.368L689.005 579.605L689.571 574.194L683.55 564.185L680.797 561.623L675.932 559.018L672.706 558.154L670.377 559.887L670.266 562.758L669.459 564.546M996.033 521.06L994.071 523.353L990.544 525.963L983.699 528.328L980.385 531.727L978.048 533.617L971.178 537.261L967.312 543.48M696.538 559.296L695.331 553.75L695.35 546.156L696.803 542.668L699.772 539.151L703.353 536.551L706.552 535.983L709.097 536.525L711.741 537.825L716.505 539.676L719.315 540.804L721.04 543.476L723.195 544.951L730.305 545.745L734.519 545.329L741.663 547.896L744.408 545.736L744.354 542.953L747.878 541.707L750.939 542.832L755.988 541.737L759.014 541.081L759.385 538.29L757.98 535.53L760.834 534.634L765.508 531.428L769.377 530.598L777.14 530.205L779.273 531.348L781.356 534.349L782.451 538.886L784.286 542.144L786.609 544.634L789.006 546.363L786.373 550.206L786.664 552.31L789.046 553.365L789.802 557.655L788.52 561.475L790.945 564.891L792.34 567.229L794.825 569.463L796.903 572.211L798.574 576.063L797.242 579.232L798.091 582.062L797.127 584.779L797.829 586.286M797.826 586.287L799.883 588.022L803.09 588.05L811.795 584.018L815.315 584.192L821.073 585.642L824.372 593.547L826.148 598.873L828.062 601.363L835.078 602.8L835.669 605.156L835.003 610.001L842.791 615.346L844.329 620.938L844.896 626.55L845.187 631.793L844.322 635.352L842.06 636.149L835.484 636.176L832.634 642.129L828.991 645.903L823.758 645.487L819.809 650.954L816.14 653.212L813.075 651.577L810.554 651.958L807.379 653.532M808.318 653.58L811.194 657.12L812.078 666.331M1006.06 672.174L1005.12 665.86L1003.14 662.766L1003.42 658.881L999.986 654.374L999.366 652.358L995.534 646.046M1259.99 704.591L1257.94 701.743L1255.31 699.913L1249.33 699.55L1244.34 697.744L1241.38 695.833L1239.57 691.971L1237.27 689.547L1233.38 680.139L1233 676.685L1231.21 673.62L1228.97 669.808L1229.25 663.815L1228.28 660.367L1227.88 654.382L1227.76 651.008L1225.62 647.235L1224.23 643.453L1226.22 640.564L1227.02 636.675L1227.21 630.599L1225.25 620.663L1222.49 615.631L1218.59 612.887L1214.99 608.116L1213.44 605.095L1209.6 601.422L1205.96 592.097L1203.99 589.165L1199.89 585.159L1198.6 582.557L1196.91 567.22L1197.98 564.846L1201.18 564.474L1204.52 560.98M654.42 228.993L653.068 229.272L649.399 228.501L644.243 229.533L640.606 230.196L636.497 230.9L633.762 233.046L628.689 232.835L625.311 237.06L622.073 237.07L618.927 232.916L614.113 234.027L608.042 238.02M536.441 264.792L529.875 255.99L529.135 249.508L533.167 243.85L535.509 242.28L541.117 242.579L545.517 241.892L551.124 242.193L554.571 242.8L558.796 243.545L563.261 245.813L568.356 245.957L575.734 249.514L581.47 255.638L585.478 256.481L587.203 253.914L590.098 250.393L590.029 247.172L591.215 243.111L592.198 234.721L598.349 235.45L602.035 236.554L607.699 237.894M181.636 170.578L184.272 170.589L183.447 174.41L185.69 175.529L190.152 174.054L193.581 175.057L196.7 177.08L201.482 177.876M201.484 177.877L204.12 177.889L206.377 179.6L213.741 187.584L216.793 187.332L218.86 188.289L222.82 190.122L225.784 189.704L229.06 194.511L232.232 195.523L235.006 197.473L241.57 201.348L243.669 203.487L246.168 204.852L249.068 208.321L260.101 207.942L271.209 213.471L274.493 218.702L279.198 223.051L281.313 225.95L280.05 229.443L280.036 232.143L281.015 233.806M309.729 231.035L311.099 234.63L316.639 232.293L317.489 235.478L320.602 234.47L321.846 236.548L327.659 238.087L332.044 240.172L334.909 242.63L337.131 246.456L345.323 251.313L349.82 251.284L353.774 249.92L357.35 246.961L361.523 247.532L363.595 245.624L366.289 247.4L372.351 246.082L374.917 246.862L377.526 249.331L381.115 250.255L388.057 256.247L392.762 259.013L396.516 258.573L399.518 263.227L402.57 263.068L404.322 265.304L406.76 264.317L406.6 268.203M281.016 233.807L285.407 232.933L288.579 234.032L291.626 233.615L294.062 235.83L297.805 236.07L300 238.798L305.231 234.36L309.728 231.037M419.242 271.528L416.668 273.784L414.342 272.406L415.28 269.092L408.874 267.39L406.602 268.203M419.242 271.526L423.602 271.482L426.524 277.768L430.008 278.022L430.721 275.979L429.055 273.74L432.296 274.508L434.659 277.406L437.527 276.747L439.084 274.432L443.439 275.595L443.807 273.308L446.287 274.178L450.838 276.351L453.223 276.717L457.014 279.244L462.024 279.382L468.283 282.107L471.376 283.723L474.559 285.591L477.62 285.943L480.808 288.064L486.146 287.689L492.309 290.082L492.955 292.345L495.27 293.475L496.352 296.234L499.738 295.907L500.811 298.329L502.723 303.94L503.756 304.676L505.073 310.301L507.364 310.334L510.627 312.118L513.589 311.882L514.438 308.151L516.807 307.929L519.493 306.772L520.052 308.87L519.935 311.151L521.259 313.485L523.753 315.033L524.48 317.211L521.024 325.182L521.465 329.938L519.435 333.95L518.64 336.246L519.572 339.853L517.184 346.743L519.524 348.885L521.353 351.123L517.433 353.826L517.881 354.998M516.472 371.231L519.535 360.699L517.88 354.997M530.388 387.295L530.847 389.935L529.77 393.012L531.389 395.044L532.523 398.453L532.545 404.041L534.618 405.284L534.727 408.774L531.925 410.384L532.817 412.389L536.227 413.411L538.74 416.057L541.136 420.984L545.133 421.824L543.656 423.968L542.492 428.633L543.758 432.32L543.341 436.295L538.308 442.06L536.231 443.709L533.123 444.621L530.974 446.946L528.717 448.094L526.247 447.388L522.062 449.422L517.683 450.278L509.754 447.501L504.929 447.441L497.004 448.548L493.911 450.137L490.79 450.546L488.744 449.917L484.21 451.371L479.348 449.626L476.726 449.602L477.031 451.705L473.345 453.309L469.473 454.074L463.019 453.042L458.207 449.947L456.826 449.583L451.737 448.241L447.916 447.571L444.54 447.988L440.709 446.897L438.292 448.388M386.603 742.368L383.946 740.494L379.751 741.103L378.019 745.787L372.213 745.932L373.532 748.177L371.932 751.507L367.809 751.526L365.216 751.46L366.383 748.356L364.46 745.62L362.276 745.76L359.744 742.195L356.158 743.551L353.359 739.402L356.155 736.801L361.924 735.137L362.706 732.839L361.913 728.05L364.227 726.473L365.91 723.997L364.609 721.569L363.456 719.235L361.096 719.125L358.554 721.806L354.864 718.599L352.707 716.974L351.845 712.983L353.387 709.076L361.283 697.574L368.997 695.48L376.276 694.162L372.963 688.366L380.187 686.37L384.077 683.328L386.253 681.329L392.911 679.083L396.107 672.637L404.045 667.288L402.28 663.216L407.195 661.11L408.874 659.258L408.282 656.931L407.566 654.413L409.653 652.829L411.368 654.037L413.327 660.331L421.838 658.093L426.135 654.332L429.228 649.786L428.243 644.58L426.908 637.522L427.815 633.196L425.746 631.389L422.596 630.115L420.211 622.24L417.212 616.827L413.487 612.867L410.771 608.798L407.575 607.58L404.464 606.166L403.941 602.044L399.094 600.559L396.766 598.506L397.324 597.227M397.321 597.225L394.494 595.437L391.004 594.257L388.916 591.692L391.14 589.528L390.582 587.432L387.778 586.742L385.676 583.671L381.337 582.344L381.732 577.862L379.369 574.545L376.624 576.132L373.137 575.079C369.097 573.481 370.487 573.753 369.374 573.189L363.232 574.018L361.195 573.562L359.703 571.237L351.625 569.077L350.512 565.054L347.927 563.094M319.048 479.014L318.594 481.051L319.932 483.716L318.733 486.279L319.986 488.947L320.944 493.311L320.587 495.767L321.599 498.949L324.449 504.446L325.629 507.623L328.614 511.851L329.784 514.607L330.016 517.047L329.49 519.592L331.348 522.836L332.827 530.984L333.255 540.931L333.823 543.364L337.647 547.486L338.592 551.429L337.601 555.589L338.245 557.598L344.48 560.309L347.927 563.091M397.359 482.96L399.989 483.321L403.784 489.808L406.307 492.701L410.646 493.777L416.914 504.597L416.537 510.007L412.491 513.818L411.978 517.122L412.286 519.225L414.98 522.283L414.361 528.035L411.124 530.392L408.89 535.763L409.312 539.128L407.44 542.042L406.834 544.841L402.469 549.251L399.827 555.223L400.118 559.661L402.271 563.479L403.648 569.729L404.981 575.857L406.334 581.028L406.015 583.373L405.321 586.144L405.334 588.575L404.754 595.548L401.711 597.972L399.885 598.361L397.323 597.225M1156.68 698.599L1157.32 695.555L1159.81 692.574L1160.79 689.142L1161.13 682.942L1162.28 680.482L1163.51 677.586L1163.97 673.546L1164.96 668.156L1167.99 661.855L1170.66 658.134L1173.86 652.582L1173.04 642.967L1172.24 641.222L1165.01 633.251L1156.82 623.888L1153.9 620.407L1152.92 611.736L1151.06 608.48L1145.41 604.946L1143.47 602.547L1143.57 589.827L1146.39 578.456L1148.7 573.074M1125.67 521.005L1124.65 525.35L1126.74 531.147L1125.77 534.028L1122.6 537.272L1125.24 538.759L1125.36 549.303L1121.15 556.357L1118.73 558.411L1115.92 558.809L1113.26 560.164L1113.47 563.367L1110.09 563.578L1106.55 570.454L1106.19 574.762L1102.94 571.597L1099.81 571.635L1098.28 576.97L1099.08 579.912L1094.93 585.785L1092.95 589.437L1090.28 591.749L1088.07 590.259M1185.1 538.578L1180.69 543.773L1178.16 544.222L1174.68 549.744L1171.47 550.118L1168.64 553.018L1167.32 555.564L1164.22 558.382L1160.36 560.029L1157.28 563.354L1155.81 567.758L1153.41 568.825L1150.94 569.923L1148.7 573.07M1088.07 590.258L1080.87 594.652L1078.92 600.329L1075.89 600.453L1072.94 601.25L1071.21 603.72L1069.93 609.473L1066.37 614.412L1065.62 621.087L1066.07 623.696L1067.56 627.388L1065.18 632.313L1060.53 637.942L1059.99 641.07L1060.22 643.161L1058.02 651.474L1062.73 656.811L1063.68 658.993L1063.71 661.185L1061.3 664.085L1059.75 667.564L1053.31 671.362L1049.55 679.594M117.853 489.721L116.79 494.503L110.792 499.421L109.771 507.723L110.07 509.318M772.94 421.429L770 421.988V424.637L766.732 424.241L763.242 423.208L758.388 426.08L751.928 425.033L745.632 424.624L740.581 423.741L737.578 421.99L736.408 422.771M737.048 422.349L730.236 420.113L726.601 418.862L721.456 417.27L717.11 421.113L708.698 418.05L705.067 418.784L700.68 421.15L695.586 423.878L687.33 419.15L684.569 418.361L676.798 417.202L672.414 423.892L663.456 422.314L656.355 422.708L652.107 421.865L647.634 418.326L645.263 418.289L641.457 414.315L637.073 415.164L632.821 412.802L627.561 409.534L622.794 400.264L620.374 397.951L615.274 396.959L610.617 395.335L607.512 394.251L602.449 395.031L600.058 394.237L596.021 390.54L595.337 387.248L592.776 390.17L589.2 389.401L587.478 391.968L585.12 392.525L582.421 396.886L578.092 396.387L575.465 392.392L570.407 389.546L567.456 390.116L567.502 396.022L569.363 398.053L571.828 404.199L571.876 406.308L569.382 412.353L571.801 418.461L572.127 421.745L574.127 424.15L571.956 429.343L571.179 432.567L572.25 435.076L572.674 439.033L575.062 443.708L576.694 443.795M899.841 403.594L894.252 403.598L892.152 404.56L889.861 404.174L888.905 405.515L885.542 413.424L878.792 415.232L875.49 415.853L871.18 422.81L867.492 425.494M867.492 425.493L862.56 421.577L854.175 422.19M854.176 422.191L851.217 421.342L846.761 421.039L842.238 420.733L837.356 422.418L833.784 421.297L830.831 416.959L826.857 417.195L826.077 414.35L825.167 412.097L819.29 410.32L817.038 412.3L813.044 411.356L811.229 413.919L808.535 414.726L804.724 414.539L805.046 418.415L802.176 418.803L800.072 419.43L802.318 422.007L801.519 424.636L798.801 425.163L795.73 427.437L793.711 428.148L788.558 428.491L779.753 428.225L772.851 425.564L772.942 421.428M680.209 502.573L683.651 488.835L682.58 485.903L683.128 483.698L688.992 480.968L691.534 477.037L697.882 473.117L701.839 466.156L702.595 463.407L701.946 456.163L705.415 451.877L709.466 451.378L714.382 447.571L717.167 447.265L721.114 445.756L722.334 443.202L726.765 440.418L727.974 437.357L730.714 434.69L731.267 432.571L730.949 429.285L731.531 427.036L737.044 421.926M518.224 496.343L521.396 498.297L524.352 498.147L526.497 499.619L531.242 503.818L536.227 503.792L538.956 504.914L541.827 504.767L544.206 505.306L549.114 509.417L554.358 509.726L557.742 513.703L558.598 517.988L561.699 520.706L565.678 521.042L576.709 519.371L580.766 519.454L588.16 521.407L594.657 521.016L598.58 522.705L601.664 524.75L616.788 508.825L618.343 506.346L622.779 496.212L627.262 492.407L630.289 491.671L633.237 491.105L636.826 492.973L639.514 492.244L645.806 498.192L650.471 498.942L656.231 495.452L660.231 496.722L662.26 496.851L665.19 499.578L668.29 501.003L670.819 502.167L674.715 502.513L676.934 503.567L680.21 502.575M202.388 392.803C202.804 391.619 201.718 391.648 202.741 389.251L204.842 386.939L207.578 383.838L210.647 382.35L213.182 379.721L215.802 374.508L218.074 374.404L221.326 375.643L225.647 376.831C228.701 378.044 231.448 378.566 234.443 380.368L236.563 380.715L240.783 378.868L249.076 373.984M117.388 489.416C118.942 490.473 121.052 490.113 122.169 488.603L127.718 481.085L129.593 482.71C130.261 483.284 130.821 483.884 131.7 483.853L134.325 483.79C134.849 483.769 135.362 483.63 135.825 483.384L139.01 481.655C139.526 482.333 139.523 483.248 140.357 483.416L142.92 483.947C144 484.168 145.12 483.866 145.943 483.134C146.767 482.403 147.198 481.326 147.107 480.228L146.888 477.728L148.326 477.197C149.776 476.676 150.716 475.267 150.639 473.728L150.545 472.009L151.108 471.259L152.827 471.165C154.465 471.068 155.816 469.848 156.077 468.227L156.296 466.914L158.734 465.07L159.015 465.258C159.602 463.928 161.811 464.315 163.212 464.637L164.733 462.852L167.014 462.102C167.561 461.923 168.054 461.612 168.452 461.196L171.89 457.54C172.161 457.257 172.383 456.929 172.546 456.571C172.789 456.554 173.03 456.512 173.265 456.446C173.37 456.42 173.475 456.388 173.578 456.352C173.807 456.271 174.027 456.166 174.234 456.039C174.331 455.981 174.424 455.919 174.515 455.851C174.802 455.641 175.055 453.594 175.265 453.308C175.784 451.694 175.876 451.721 175.89 449.695C176.877 449.216 177.583 448.302 177.796 447.226L178.751 444.268L180.108 444.257C181.217 444.732 182.493 443.855 183.483 443.166L185.952 442.194L190.14 442.257C190.751 442.267 191.355 442.116 191.89 441.819L194.484 440.413C194.784 440.246 195.058 440.035 195.297 439.788L197.922 437.1C198.191 436.826 198.412 436.509 198.578 436.162C199.318 434.628 199.475 433.24 200.23 431.718L200.855 428.56L202.734 425.569C203.315 424.625 203.563 424.657 203.15 423.629C202.738 422.601 200.965 422.127 200.341 420.65L202.609 418.07C202.941 417.689 203.186 417.241 203.328 416.757L204.234 413.601L205.422 411.382L205.016 407.382L206.985 406.069C208.559 405.009 209.003 402.888 207.985 401.288L206.891 399.507L206.672 398.069C206.573 397.355 205.659 396.689 205.168 396.163L202.148 392.414M995.152 646.439L990.683 636.595L988.714 627.001C988.602 626.508 988.326 626.067 987.933 625.751L979.995 619.126L976.776 608.532C976.706 608.273 976.588 608.03 976.432 607.813L970.463 600.094L972.151 593.188C972.219 592.901 972.229 592.603 972.182 592.313L967.713 563.438C967.602 562.66 967.092 561.997 966.369 561.688L961.588 560.616L960.744 557.72L961.963 552.189L967.182 543.72M567.009 746.028L572.363 744.565L578.037 746.535L584.269 743.998L589.274 744.806C589.747 744.796 590.209 744.673 590.618 744.448L595.368 741.913C595.973 741.585 596.431 741.053 596.649 740.422L600.149 730.638C600.227 730.436 600.28 730.226 600.305 730.012L601.805 715.126L609.243 705.879C609.762 705.247 609.957 704.426 609.774 703.642L607.43 693.74C607.269 693.052 604.141 691.555 603.522 691.173L597.979 688.045L597.024 682.226C597.016 682.166 597.005 682.106 596.993 682.047L594.368 669.966C594.268 669.525 594.054 669.113 593.743 668.773L584.792 659.677L568.947 655.415C565.468 654.102 560.759 651.86 556.417 649.685L550.931 640.077C550.901 640.037 550.869 639.997 550.837 639.958L546.712 634.022L541.149 621.523L541.368 612.157C541.377 611.977 541.366 611.798 541.337 611.62L539.556 602.224C539.539 602.143 539.518 602.064 539.493 601.985L543.444 596.055M106.786 464.345L110.356 464.916L114.302 466.826L117.734 465.629L120.153 470.201L117.505 472.135L116.437 476.048L116.851 478.568L115.355 482.327L116.543 485.331" stroke="#0978AB" stroke-width="0.8"/>
</mask>
<g mask="url(#mask0_19_1285)">
<path d="M739 133.504L381 110.504L165 84.5039L41 143.504L154 209.504V237.504L110 297.504L159 411.504L128 473.504L104 495.504L136 509.504L117 659.504L90 676.504L104 1049.5L293 1063.5L704 805.504L1279 932.504L1392 641.504L1215 350.504L739 133.504Z" fill="#0978AB"/>
</g>
</svg>
