<svg width="1400" height="1139" viewBox="0 0 1400 1139" fill="none" xmlns="http://www.w3.org/2000/svg">
<path d="M839.856 894.373C840.704 894.373 841.527 894.576 842.323 894.981C843.119 895.378 843.726 895.896 844.142 896.534C844.544 897.142 844.812 897.851 844.946 898.661C845.065 899.216 845.125 900.101 845.125 901.317H836.362C836.399 902.54 836.686 903.523 837.222 904.265C837.757 905.001 838.587 905.368 839.711 905.368C840.76 905.368 841.597 905.019 842.222 904.322C842.58 903.917 842.833 903.448 842.981 902.915H844.957C844.905 903.358 844.73 903.853 844.433 904.4C844.142 904.941 843.815 905.383 843.45 905.728C842.84 906.329 842.085 906.734 841.184 906.944C840.701 907.064 840.154 907.124 839.543 907.124C838.055 907.124 836.794 906.58 835.759 905.492C834.725 904.397 834.208 902.866 834.208 900.9C834.208 898.965 834.729 897.393 835.771 896.185C836.812 894.977 838.174 894.373 839.856 894.373ZM843.06 899.707C842.978 898.83 842.788 898.128 842.49 897.603C841.94 896.628 841.021 896.14 839.733 896.14C838.81 896.14 838.036 896.478 837.411 897.153C836.786 897.821 836.455 898.672 836.418 899.707H843.06Z" fill="black"/>
<path d="M821.996 890.111H823.949V896.11C824.388 895.532 824.913 895.093 825.523 894.793C826.134 894.485 826.796 894.332 827.51 894.332C828.999 894.332 830.204 894.849 831.127 895.885C832.057 896.913 832.522 898.432 832.522 900.443C832.522 902.348 832.064 903.931 831.149 905.192C830.234 906.452 828.965 907.083 827.343 907.083C826.435 907.083 825.668 906.861 825.043 906.419C824.671 906.156 824.273 905.736 823.849 905.158V906.7H821.996V890.111ZM827.22 905.293C828.306 905.293 829.118 904.858 829.653 903.988C830.197 903.117 830.468 901.969 830.468 900.544C830.468 899.276 830.197 898.226 829.653 897.393C829.118 896.56 828.325 896.144 827.276 896.144C826.36 896.144 825.557 896.485 824.865 897.168C824.18 897.85 823.838 898.976 823.838 900.544C823.838 901.677 823.979 902.596 824.262 903.301C824.79 904.629 825.776 905.293 827.22 905.293Z" fill="black"/>
<path d="M817.062 894.699H819.105V906.696H817.062V894.699ZM817.062 890.164H819.105V892.46H817.062V890.164Z" fill="black"/>
<path d="M809.505 894.643H811.414V896.725C811.57 896.32 811.954 895.829 812.564 895.251C813.174 894.666 813.877 894.373 814.674 894.373C814.711 894.373 814.774 894.377 814.863 894.384C814.953 894.392 815.105 894.407 815.321 894.429V896.568C815.202 896.545 815.09 896.53 814.986 896.523C814.889 896.515 814.781 896.511 814.662 896.511C813.65 896.511 812.873 896.841 812.329 897.502C811.786 898.154 811.515 898.908 811.515 899.764V906.696H809.505V894.643Z" fill="black"/>
<path d="M798.265 903.492C798.265 904.077 798.477 904.538 798.901 904.876C799.325 905.214 799.828 905.383 800.408 905.383C801.115 905.383 801.8 905.217 802.462 904.887C803.578 904.34 804.136 903.443 804.136 902.198V900.566C803.891 900.723 803.574 900.855 803.187 900.96C802.8 901.065 802.421 901.14 802.049 901.185L800.832 901.342C800.103 901.44 799.556 901.594 799.191 901.804C798.574 902.156 798.265 902.719 798.265 903.492ZM803.132 899.395C803.593 899.335 803.902 899.14 804.058 898.81C804.147 898.63 804.192 898.371 804.192 898.034C804.192 897.343 803.946 896.844 803.455 896.537C802.972 896.222 802.276 896.064 801.368 896.064C800.319 896.064 799.575 896.349 799.135 896.919C798.89 897.235 798.73 897.703 798.655 898.326H796.78C796.817 896.841 797.294 895.809 798.209 895.231C799.132 894.646 800.2 894.354 801.413 894.354C802.819 894.354 803.961 894.624 804.839 895.164C805.71 895.704 806.145 896.544 806.145 897.685V904.629C806.145 904.839 806.186 905.007 806.268 905.135C806.358 905.263 806.54 905.326 806.815 905.326C806.904 905.326 807.005 905.323 807.117 905.315C807.228 905.3 807.347 905.281 807.474 905.259V906.756C807.161 906.846 806.923 906.902 806.759 906.924C806.596 906.947 806.372 906.958 806.09 906.958C805.398 906.958 804.895 906.711 804.583 906.215C804.419 905.953 804.304 905.581 804.237 905.101C803.827 905.641 803.24 906.11 802.473 906.508C801.707 906.906 800.862 907.104 799.939 907.104C798.83 907.104 797.922 906.767 797.216 906.092C796.516 905.409 796.166 904.557 796.166 903.537C796.166 902.419 796.512 901.552 797.204 900.937C797.896 900.322 798.804 899.943 799.928 899.801L803.132 899.395Z" fill="black"/>
<path d="M787.381 889.717C789.458 889.717 791.069 890.268 792.215 891.371C793.361 892.474 793.997 893.727 794.123 895.13H791.958C791.712 894.065 791.221 893.221 790.484 892.598C789.755 891.975 788.728 891.664 787.404 891.664C785.789 891.664 784.483 892.238 783.486 893.386C782.496 894.526 782.001 896.278 782.001 898.641C782.001 900.577 782.448 902.149 783.341 903.357C784.241 904.557 785.58 905.157 787.359 905.157C788.996 905.157 790.243 904.523 791.098 903.256C791.552 902.588 791.891 901.71 792.114 900.622H794.28C794.086 902.363 793.446 903.822 792.36 905C791.058 906.418 789.301 907.127 787.091 907.127C785.186 907.127 783.586 906.545 782.291 905.383C780.587 903.844 779.735 901.47 779.735 898.259C779.735 895.82 780.375 893.821 781.655 892.26C783.039 890.565 784.948 889.717 787.381 889.717Z" fill="black"/>
<path d="M766.284 894.643H768.193V896.725C768.349 896.32 768.733 895.829 769.343 895.251C769.953 894.666 770.656 894.373 771.453 894.373C771.49 894.373 771.553 894.377 771.642 894.384C771.732 894.392 771.884 894.407 772.1 894.429V896.568C771.981 896.545 771.869 896.53 771.765 896.523C771.668 896.515 771.561 896.511 771.441 896.511C770.429 896.511 769.652 896.841 769.109 897.502C768.565 898.154 768.294 898.908 768.294 899.764V906.696H766.284V894.643Z" fill="black"/>
<path d="M755.044 903.492C755.044 904.077 755.256 904.538 755.68 904.876C756.105 905.214 756.607 905.383 757.187 905.383C757.894 905.383 758.579 905.217 759.241 904.887C760.357 904.34 760.916 903.443 760.916 902.198V900.566C760.67 900.723 760.354 900.855 759.967 900.96C759.58 901.065 759.2 901.14 758.828 901.185L757.611 901.342C756.882 901.44 756.335 901.594 755.971 901.804C755.353 902.156 755.044 902.719 755.044 903.492ZM759.911 899.395C760.372 899.335 760.681 899.14 760.837 898.81C760.927 898.63 760.971 898.371 760.971 898.034C760.971 897.343 760.726 896.844 760.235 896.537C759.751 896.222 759.055 896.064 758.147 896.064C757.098 896.064 756.354 896.349 755.915 896.919C755.669 897.235 755.509 897.703 755.435 898.326H753.559C753.597 896.841 754.073 895.809 754.988 895.231C755.911 894.646 756.979 894.354 758.192 894.354C759.598 894.354 760.741 894.624 761.619 895.164C762.489 895.704 762.925 896.544 762.925 897.685V904.629C762.925 904.839 762.966 905.007 763.048 905.135C763.137 905.263 763.319 905.326 763.594 905.326C763.684 905.326 763.784 905.323 763.896 905.315C764.007 905.3 764.127 905.281 764.253 905.259V906.756C763.941 906.846 763.702 906.902 763.539 906.924C763.375 906.947 763.152 906.958 762.869 906.958C762.177 906.958 761.675 906.711 761.362 906.215C761.198 905.953 761.083 905.581 761.016 905.101C760.607 905.641 760.019 906.11 759.252 906.508C758.486 906.906 757.641 907.104 756.718 907.104C755.61 907.104 754.702 906.767 753.995 906.092C753.295 905.409 752.946 904.557 752.946 903.537C752.946 902.419 753.292 901.552 753.984 900.937C754.676 900.322 755.584 899.943 756.707 899.801L759.911 899.395Z" fill="black"/>
<path d="M734.673 890.164H737.854L742.564 904.142L747.241 890.164H750.389V906.696H748.28V896.939C748.28 896.601 748.287 896.042 748.302 895.262C748.317 894.482 748.324 893.645 748.324 892.753L743.647 906.696H741.448L736.738 892.753V893.259C736.738 893.664 736.745 894.283 736.76 895.116C736.782 895.941 736.793 896.549 736.793 896.939V906.696H734.673V890.164Z" fill="black"/>
<path d="M994.036 155.907C995.368 155.907 996.279 155.401 996.77 154.388C997.269 153.367 997.518 152.235 997.518 150.989C997.518 149.864 997.34 148.948 996.983 148.243C996.417 147.133 995.442 146.577 994.058 146.577C992.83 146.577 991.937 147.05 991.379 147.995C990.821 148.941 990.542 150.081 990.542 151.417C990.542 152.7 990.821 153.769 991.379 154.624C991.937 155.479 992.823 155.907 994.036 155.907ZM994.114 144.811C995.654 144.811 996.957 145.328 998.021 146.364C999.085 147.399 999.617 148.922 999.617 150.933C999.617 152.876 999.148 154.482 998.21 155.75C997.273 157.018 995.818 157.651 993.846 157.651C992.201 157.651 990.895 157.093 989.928 155.975C988.961 154.849 988.477 153.341 988.477 151.45C988.477 149.425 988.987 147.812 990.006 146.611C991.026 145.411 992.395 144.811 994.114 144.811Z" fill="black"/>
<path d="M982.471 144.811C983.818 144.811 984.912 145.141 985.753 145.801C986.601 146.461 987.111 147.598 987.282 149.211H985.329C985.21 148.468 984.938 147.853 984.514 147.365C984.09 146.87 983.409 146.622 982.471 146.622C981.191 146.622 980.276 147.253 979.725 148.513C979.368 149.331 979.189 150.34 979.189 151.541C979.189 152.748 979.442 153.765 979.948 154.59C980.454 155.416 981.251 155.828 982.337 155.828C983.171 155.828 983.829 155.573 984.313 155.063C984.804 154.545 985.143 153.84 985.329 152.947H987.282C987.059 154.545 986.501 155.716 985.608 156.459C984.715 157.194 983.572 157.561 982.181 157.561C980.618 157.561 979.372 156.988 978.441 155.84C977.511 154.684 977.046 153.244 977.046 151.518C977.046 149.402 977.556 147.755 978.575 146.577C979.595 145.4 980.893 144.811 982.471 144.811Z" fill="black"/>
<path d="M972.771 145.213H974.814V157.21H972.771V145.213ZM972.771 140.678H974.814V142.974H972.771V140.678Z" fill="black"/>
<path d="M966.81 141.797H968.842V145.162H970.751V146.816H968.842V154.683C968.842 155.103 968.983 155.384 969.266 155.527C969.422 155.609 969.683 155.651 970.048 155.651C970.144 155.651 970.248 155.651 970.36 155.651C970.472 155.643 970.602 155.632 970.751 155.617V157.215C970.52 157.283 970.278 157.331 970.025 157.361C969.78 157.391 969.512 157.406 969.222 157.406C968.284 157.406 967.648 157.166 967.313 156.686C966.978 156.198 966.81 155.568 966.81 154.795V146.816H965.192V145.162H966.81V141.797Z" fill="black"/>
<path d="M953.684 145.157H955.592V146.867C956.158 146.162 956.757 145.656 957.39 145.348C958.022 145.041 958.725 144.887 959.499 144.887C961.196 144.887 962.342 145.483 962.937 146.676C963.265 147.329 963.428 148.263 963.428 149.478V157.21H961.386V149.613C961.386 148.878 961.278 148.285 961.062 147.835C960.705 147.085 960.057 146.71 959.12 146.71C958.644 146.71 958.253 146.759 957.948 146.856C957.397 147.021 956.913 147.351 956.497 147.847C956.162 148.244 955.942 148.657 955.838 149.085C955.741 149.505 955.693 150.109 955.693 150.896V157.21H953.684V145.157Z" fill="black"/>
<path d="M942.499 154.005C942.499 154.59 942.711 155.051 943.135 155.389C943.559 155.727 944.061 155.896 944.642 155.896C945.349 155.896 946.033 155.73 946.696 155.4C947.812 154.853 948.37 153.956 948.37 152.711V151.079C948.125 151.236 947.808 151.368 947.421 151.473C947.034 151.578 946.655 151.653 946.283 151.698L945.066 151.855C944.337 151.953 943.79 152.107 943.425 152.317C942.808 152.669 942.499 153.232 942.499 154.005ZM947.365 149.908C947.827 149.848 948.136 149.653 948.292 149.323C948.381 149.143 948.426 148.884 948.426 148.547C948.426 147.856 948.18 147.357 947.689 147.05C947.205 146.735 946.51 146.577 945.602 146.577C944.553 146.577 943.808 146.862 943.369 147.432C943.124 147.748 942.964 148.216 942.889 148.839H941.014C941.051 147.354 941.528 146.322 942.443 145.744C943.366 145.159 944.433 144.867 945.646 144.867C947.053 144.867 948.195 145.137 949.073 145.677C949.944 146.217 950.379 147.057 950.379 148.198V155.142C950.379 155.352 950.42 155.52 950.502 155.648C950.591 155.776 950.774 155.839 951.049 155.839C951.138 155.839 951.239 155.836 951.35 155.828C951.462 155.813 951.581 155.794 951.708 155.772V157.269C951.395 157.359 951.157 157.415 950.993 157.437C950.83 157.46 950.606 157.471 950.324 157.471C949.631 157.471 949.129 157.224 948.817 156.728C948.653 156.466 948.538 156.094 948.471 155.614C948.061 156.154 947.473 156.623 946.707 157.021C945.94 157.419 945.096 157.617 944.173 157.617C943.064 157.617 942.156 157.28 941.449 156.605C940.75 155.922 940.4 155.07 940.4 154.05C940.4 152.932 940.746 152.065 941.438 151.45C942.13 150.835 943.038 150.456 944.162 150.314L947.365 149.908ZM948.214 140.309L945.233 143.561H943.693L945.736 140.309H948.214Z" fill="black"/>
<path d="M935.924 140.678H937.933V157.21H935.924V140.678Z" fill="black"/>
<path d="M929.908 141.797H931.939V145.162H933.848V146.816H931.939V154.683C931.939 155.103 932.081 155.384 932.363 155.527C932.52 155.609 932.78 155.651 933.145 155.651C933.241 155.651 933.346 155.651 933.457 155.651C933.569 155.643 933.699 155.632 933.848 155.617V157.215C933.617 157.283 933.375 157.331 933.122 157.361C932.877 157.391 932.609 157.406 932.319 157.406C931.381 157.406 930.745 157.166 930.41 156.686C930.075 156.198 929.908 155.568 929.908 154.795V146.816H928.289V145.162H929.908V141.797Z" fill="black"/>
<path d="M922.942 150.435L920.453 143.131L917.808 150.435H922.942ZM919.292 140.678H921.804L927.753 157.21H925.32L923.657 152.258H917.171L915.397 157.21H913.119L919.292 140.678Z" fill="black"/>
<path d="M901.164 155.907C902.496 155.907 903.408 155.401 903.899 154.388C904.398 153.367 904.647 152.235 904.647 150.989C904.647 149.864 904.468 148.948 904.111 148.243C903.546 147.133 902.571 146.577 901.187 146.577C899.959 146.577 899.066 147.05 898.508 147.995C897.95 148.941 897.671 150.081 897.671 151.417C897.671 152.7 897.95 153.769 898.508 154.624C899.066 155.479 899.951 155.907 901.164 155.907ZM901.242 144.811C902.783 144.811 904.085 145.328 905.149 146.364C906.213 147.399 906.746 148.922 906.746 150.933C906.746 152.876 906.277 154.482 905.339 155.75C904.401 157.018 902.947 157.651 900.975 157.651C899.33 157.651 898.024 157.093 897.057 155.975C896.089 154.849 895.605 153.341 895.605 151.45C895.605 149.425 896.115 147.812 897.135 146.611C898.154 145.411 899.523 144.811 901.242 144.811Z" fill="black"/>
<path d="M883.695 145.157H885.604V146.867C886.17 146.162 886.769 145.656 887.401 145.348C888.034 145.041 888.737 144.887 889.511 144.887C891.208 144.887 892.354 145.483 892.949 146.676C893.276 147.329 893.44 148.263 893.44 149.478V157.21H891.397V149.613C891.397 148.878 891.289 148.285 891.074 147.835C890.716 147.085 890.069 146.71 889.131 146.71C888.655 146.71 888.264 146.759 887.959 146.856C887.409 147.021 886.925 147.351 886.508 147.847C886.173 148.244 885.954 148.657 885.85 149.085C885.753 149.505 885.705 150.109 885.705 150.896V157.21H883.695V145.157Z" fill="black"/>
<path d="M872.511 154.006C872.511 154.591 872.723 155.052 873.147 155.39C873.571 155.727 874.073 155.896 874.654 155.896C875.361 155.896 876.045 155.731 876.708 155.401C877.824 154.853 878.382 153.957 878.382 152.711V151.079C878.136 151.237 877.82 151.368 877.433 151.473C877.046 151.578 876.667 151.653 876.295 151.698L875.078 151.856C874.349 151.954 873.802 152.107 873.437 152.317C872.819 152.67 872.511 153.233 872.511 154.006ZM877.377 149.909C877.839 149.849 878.148 149.654 878.304 149.324C878.393 149.144 878.438 148.885 878.438 148.547C878.438 147.857 878.192 147.358 877.701 147.05C877.217 146.735 876.522 146.578 875.614 146.578C874.564 146.578 873.82 146.863 873.381 147.433C873.136 147.748 872.976 148.217 872.901 148.84H871.026C871.063 147.354 871.539 146.323 872.455 145.745C873.377 145.16 874.445 144.867 875.658 144.867C877.065 144.867 878.207 145.137 879.085 145.677C879.956 146.218 880.391 147.058 880.391 148.198V155.142C880.391 155.352 880.432 155.521 880.514 155.649C880.603 155.776 880.786 155.84 881.061 155.84C881.15 155.84 881.251 155.836 881.362 155.829C881.474 155.814 881.593 155.795 881.72 155.772V157.269C881.407 157.359 881.169 157.416 881.005 157.438C880.841 157.461 880.618 157.472 880.335 157.472C879.643 157.472 879.141 157.224 878.828 156.729C878.665 156.466 878.549 156.095 878.482 155.615C878.073 156.155 877.485 156.624 876.719 157.022C875.952 157.419 875.108 157.618 874.185 157.618C873.076 157.618 872.168 157.28 871.461 156.605C870.762 155.922 870.412 155.071 870.412 154.051C870.412 152.933 870.758 152.066 871.45 151.451C872.142 150.836 873.05 150.457 874.174 150.314L877.377 149.909Z" fill="black"/>
<path d="M863.224 144.889C864.072 144.889 864.894 145.092 865.691 145.497C866.487 145.894 867.093 146.412 867.51 147.05C867.912 147.658 868.18 148.367 868.314 149.177C868.433 149.732 868.492 150.617 868.492 151.833H859.73C859.767 153.056 860.053 154.039 860.589 154.781C861.125 155.517 861.955 155.884 863.079 155.884C864.128 155.884 864.965 155.535 865.59 154.838C865.947 154.433 866.2 153.964 866.349 153.431H868.325C868.273 153.874 868.098 154.369 867.8 154.916C867.51 155.457 867.183 155.899 866.818 156.244C866.208 156.845 865.452 157.25 864.552 157.46C864.068 157.58 863.521 157.64 862.911 157.64C861.423 157.64 860.161 157.096 859.127 156.008C858.093 154.913 857.575 153.382 857.575 151.416C857.575 149.481 858.096 147.909 859.138 146.701C860.18 145.493 861.542 144.889 863.224 144.889ZM866.427 150.223C866.345 149.346 866.156 148.644 865.858 148.119C865.307 147.144 864.388 146.656 863.101 146.656C862.178 146.656 861.404 146.994 860.779 147.669C860.154 148.337 859.823 149.188 859.786 150.223H866.427ZM865.545 140.309L862.565 143.561H861.025L863.067 140.309H865.545Z" fill="black"/>
<path d="M851.425 144.811C852.772 144.811 853.866 145.141 854.706 145.801C855.555 146.461 856.065 147.598 856.236 149.211H854.282C854.163 148.468 853.892 147.853 853.467 147.365C853.043 146.87 852.362 146.622 851.425 146.622C850.145 146.622 849.229 147.253 848.679 148.513C848.322 149.331 848.143 150.34 848.143 151.541C848.143 152.748 848.396 153.765 848.902 154.59C849.408 155.416 850.204 155.828 851.291 155.828C852.124 155.828 852.783 155.573 853.266 155.063C853.758 154.545 854.096 153.84 854.282 152.947H856.236C856.012 154.545 855.454 155.716 854.561 156.459C853.668 157.194 852.526 157.561 851.134 157.561C849.572 157.561 848.325 156.988 847.395 155.84C846.465 154.684 846 153.244 846 151.518C846 149.402 846.51 147.755 847.529 146.577C848.549 145.4 849.847 144.811 851.425 144.811Z" fill="black"/>
<path d="M836.367 140.23C839.261 140.23 841.405 141.168 842.796 143.044C843.883 144.507 844.426 146.379 844.426 148.66C844.426 151.128 843.805 153.18 842.562 154.816C841.103 156.737 839.023 157.697 836.322 157.697C833.799 157.697 831.816 156.857 830.373 155.176C829.085 153.555 828.441 151.507 828.441 149.031C828.441 146.795 828.992 144.882 830.093 143.292C831.507 141.251 833.598 140.23 836.367 140.23ZM836.59 155.694C838.547 155.694 839.961 154.988 840.832 153.578C841.71 152.16 842.149 150.532 842.149 148.694C842.149 146.75 841.643 145.186 840.631 144.001C839.626 142.815 838.249 142.222 836.501 142.222C834.804 142.222 833.42 142.811 832.348 143.989C831.277 145.16 830.741 146.889 830.741 149.177C830.741 151.008 831.199 152.554 832.114 153.814C833.037 155.067 834.529 155.694 836.59 155.694Z" fill="black"/>
</svg>
