<svg width="1400" height="1139" viewBox="0 0 1400 1139" fill="none" xmlns="http://www.w3.org/2000/svg">
<path d="M746.934 899.479L749.018 900.005C748.581 901.716 747.793 903.023 746.654 903.926C745.523 904.821 744.137 905.269 742.497 905.269C740.8 905.269 739.418 904.925 738.351 904.237C737.291 903.543 736.481 902.54 735.923 901.229C735.371 899.919 735.096 898.512 735.096 897.008C735.096 895.368 735.407 893.939 736.03 892.722C736.66 891.497 737.552 890.57 738.705 889.939C739.865 889.302 741.14 888.983 742.529 888.983C744.105 888.983 745.43 889.384 746.504 890.187C747.578 890.989 748.326 892.117 748.749 893.57L746.697 894.054C746.332 892.908 745.802 892.074 745.107 891.551C744.413 891.028 743.539 890.767 742.486 890.767C741.276 890.767 740.263 891.057 739.446 891.637C738.637 892.217 738.068 892.997 737.738 893.979C737.409 894.952 737.244 895.959 737.244 896.997C737.244 898.336 737.438 899.507 737.824 900.51C738.218 901.505 738.827 902.25 739.65 902.744C740.474 903.238 741.366 903.485 742.325 903.485C743.493 903.485 744.481 903.149 745.29 902.476C746.099 901.802 746.647 900.803 746.934 899.479ZM758.793 903.593C758.077 904.201 757.386 904.631 756.72 904.882C756.061 905.132 755.352 905.258 754.593 905.258C753.34 905.258 752.376 904.953 751.703 904.345C751.03 903.729 750.693 902.945 750.693 901.992C750.693 901.434 750.819 900.925 751.069 900.467C751.327 900.001 751.66 899.629 752.068 899.35C752.484 899.07 752.949 898.859 753.465 898.716C753.844 898.616 754.417 898.519 755.184 898.426C756.745 898.24 757.894 898.018 758.632 897.76C758.639 897.495 758.643 897.326 758.643 897.255C758.643 896.467 758.46 895.912 758.095 895.59C757.601 895.153 756.867 894.935 755.893 894.935C754.983 894.935 754.31 895.096 753.873 895.418C753.443 895.733 753.125 896.295 752.917 897.104L751.026 896.847C751.198 896.037 751.481 895.386 751.875 894.892C752.269 894.39 752.838 894.007 753.583 893.742C754.328 893.47 755.191 893.334 756.172 893.334C757.146 893.334 757.937 893.449 758.546 893.678C759.155 893.907 759.602 894.197 759.889 894.548C760.175 894.892 760.376 895.328 760.49 895.858C760.555 896.188 760.587 896.782 760.587 897.642V900.22C760.587 902.017 760.626 903.156 760.705 903.636C760.791 904.108 760.956 904.563 761.199 905H759.18C758.979 904.599 758.85 904.13 758.793 903.593ZM758.632 899.274C757.93 899.561 756.877 899.804 755.474 900.005C754.679 900.119 754.117 900.248 753.787 900.392C753.458 900.535 753.203 900.746 753.024 901.025C752.845 901.298 752.756 901.602 752.756 901.938C752.756 902.454 752.949 902.884 753.336 903.228C753.73 903.571 754.303 903.743 755.055 903.743C755.799 903.743 756.462 903.582 757.042 903.26C757.622 902.93 758.048 902.483 758.32 901.917C758.528 901.48 758.632 900.836 758.632 899.983V899.274ZM763.573 905V893.592H765.313V895.321C765.757 894.512 766.166 893.979 766.538 893.721C766.918 893.463 767.333 893.334 767.784 893.334C768.436 893.334 769.098 893.542 769.771 893.957L769.105 895.751C768.633 895.472 768.16 895.332 767.688 895.332C767.265 895.332 766.885 895.461 766.549 895.719C766.212 895.969 765.972 896.32 765.829 896.771C765.614 897.459 765.507 898.211 765.507 899.027V905H763.573ZM770.932 891.476V889.252H772.865V891.476H770.932ZM770.932 905V893.592H772.865V905H770.932ZM777.603 905H775.809V889.252H777.742V894.87C778.559 893.846 779.601 893.334 780.868 893.334C781.57 893.334 782.232 893.477 782.855 893.764C783.486 894.043 784.001 894.44 784.402 894.956C784.811 895.465 785.129 896.08 785.358 896.804C785.588 897.527 785.702 898.3 785.702 899.124C785.702 901.079 785.219 902.59 784.252 903.657C783.285 904.724 782.125 905.258 780.771 905.258C779.425 905.258 778.369 904.696 777.603 903.571V905ZM777.581 899.21C777.581 900.578 777.767 901.566 778.14 902.175C778.748 903.17 779.572 903.668 780.61 903.668C781.455 903.668 782.186 903.303 782.802 902.572C783.418 901.835 783.726 900.739 783.726 899.285C783.726 897.796 783.428 896.696 782.834 895.987C782.247 895.278 781.534 894.924 780.696 894.924C779.851 894.924 779.121 895.293 778.505 896.03C777.889 896.761 777.581 897.821 777.581 899.21ZM789.849 905H788.055V889.252H789.988V894.87C790.805 893.846 791.847 893.334 793.114 893.334C793.816 893.334 794.479 893.477 795.102 893.764C795.732 894.043 796.247 894.44 796.648 894.956C797.057 895.465 797.375 896.08 797.604 896.804C797.834 897.527 797.948 898.3 797.948 899.124C797.948 901.079 797.465 902.59 796.498 903.657C795.531 904.724 794.371 905.258 793.018 905.258C791.671 905.258 790.615 904.696 789.849 903.571V905ZM789.827 899.21C789.827 900.578 790.013 901.566 790.386 902.175C790.994 903.17 791.818 903.668 792.856 903.668C793.701 903.668 794.432 903.303 795.048 902.572C795.664 901.835 795.972 900.739 795.972 899.285C795.972 897.796 795.674 896.696 795.08 895.987C794.493 895.278 793.78 894.924 792.942 894.924C792.097 894.924 791.367 895.293 790.751 896.03C790.135 896.761 789.827 897.821 789.827 899.21ZM808.121 901.326L810.119 901.573C809.804 902.741 809.22 903.646 808.368 904.291C807.516 904.936 806.427 905.258 805.103 905.258C803.434 905.258 802.109 904.746 801.128 903.722C800.154 902.69 799.667 901.247 799.667 899.393C799.667 897.473 800.161 895.984 801.149 894.924C802.138 893.864 803.42 893.334 804.995 893.334C806.521 893.334 807.767 893.853 808.733 894.892C809.7 895.93 810.184 897.391 810.184 899.274C810.184 899.389 810.18 899.561 810.173 899.79H801.665C801.737 901.043 802.091 902.003 802.729 902.669C803.366 903.335 804.161 903.668 805.113 903.668C805.822 903.668 806.427 903.482 806.929 903.109C807.43 902.737 807.827 902.143 808.121 901.326ZM801.772 898.2H808.143C808.057 897.241 807.813 896.521 807.412 896.041C806.796 895.296 805.998 894.924 805.017 894.924C804.129 894.924 803.38 895.221 802.771 895.815C802.17 896.41 801.837 897.205 801.772 898.2ZM820.002 903.593C819.286 904.201 818.595 904.631 817.929 904.882C817.27 905.132 816.561 905.258 815.802 905.258C814.549 905.258 813.585 904.953 812.912 904.345C812.239 903.729 811.902 902.945 811.902 901.992C811.902 901.434 812.028 900.925 812.278 900.467C812.536 900.001 812.869 899.629 813.277 899.35C813.693 899.07 814.158 898.859 814.674 898.716C815.053 898.616 815.626 898.519 816.393 898.426C817.954 898.24 819.103 898.018 819.841 897.76C819.848 897.495 819.852 897.326 819.852 897.255C819.852 896.467 819.669 895.912 819.304 895.59C818.81 895.153 818.076 894.935 817.102 894.935C816.192 894.935 815.519 895.096 815.082 895.418C814.652 895.733 814.334 896.295 814.126 897.104L812.235 896.847C812.407 896.037 812.69 895.386 813.084 894.892C813.478 894.39 814.047 894.007 814.792 893.742C815.537 893.47 816.4 893.334 817.381 893.334C818.355 893.334 819.146 893.449 819.755 893.678C820.364 893.907 820.811 894.197 821.098 894.548C821.384 894.892 821.585 895.328 821.699 895.858C821.764 896.188 821.796 896.782 821.796 897.642V900.22C821.796 902.017 821.835 903.156 821.914 903.636C822 904.108 822.165 904.563 822.408 905H820.389C820.188 904.599 820.059 904.13 820.002 903.593ZM819.841 899.274C819.139 899.561 818.086 899.804 816.683 900.005C815.888 900.119 815.326 900.248 814.996 900.392C814.667 900.535 814.412 900.746 814.233 901.025C814.054 901.298 813.965 901.602 813.965 901.938C813.965 902.454 814.158 902.884 814.545 903.228C814.939 903.571 815.512 903.743 816.264 903.743C817.008 903.743 817.671 903.582 818.251 903.26C818.831 902.93 819.257 902.483 819.529 901.917C819.737 901.48 819.841 900.836 819.841 899.983V899.274ZM824.804 905V893.592H826.544V895.214C827.382 893.961 828.592 893.334 830.175 893.334C830.862 893.334 831.493 893.459 832.065 893.71C832.646 893.953 833.079 894.276 833.365 894.677C833.652 895.078 833.852 895.554 833.967 896.105C834.038 896.464 834.074 897.09 834.074 897.985V905H832.141V898.061C832.141 897.273 832.065 896.686 831.915 896.299C831.765 895.905 831.496 895.593 831.109 895.364C830.73 895.128 830.282 895.01 829.767 895.01C828.943 895.01 828.23 895.271 827.629 895.794C827.035 896.317 826.737 897.309 826.737 898.77V905H824.804ZM842.711 899.94L844.677 899.769C844.77 900.556 844.985 901.204 845.321 901.713C845.665 902.214 846.195 902.622 846.911 902.938C847.627 903.245 848.433 903.399 849.328 903.399C850.123 903.399 850.825 903.281 851.434 903.045C852.042 902.809 852.493 902.486 852.787 902.078C853.088 901.663 853.238 901.212 853.238 900.725C853.238 900.23 853.095 899.801 852.809 899.436C852.522 899.063 852.049 898.752 851.391 898.501C850.968 898.336 850.034 898.082 848.587 897.738C847.14 897.387 846.127 897.058 845.547 896.75C844.795 896.356 844.233 895.869 843.86 895.289C843.495 894.702 843.312 894.047 843.312 893.323C843.312 892.528 843.538 891.787 843.989 891.1C844.44 890.405 845.099 889.879 845.966 889.521C846.832 889.162 847.796 888.983 848.855 888.983C850.023 888.983 851.05 889.173 851.938 889.553C852.834 889.925 853.521 890.477 854.001 891.207C854.481 891.938 854.739 892.765 854.774 893.688L852.776 893.839C852.669 892.843 852.304 892.091 851.681 891.583C851.065 891.075 850.152 890.82 848.941 890.82C847.681 890.82 846.761 891.053 846.181 891.519C845.608 891.977 845.321 892.532 845.321 893.184C845.321 893.749 845.525 894.215 845.934 894.58C846.335 894.945 847.38 895.321 849.07 895.708C850.768 896.088 851.931 896.421 852.562 896.707C853.478 897.13 854.155 897.667 854.592 898.318C855.029 898.963 855.247 899.708 855.247 900.553C855.247 901.391 855.007 902.182 854.527 902.927C854.048 903.664 853.356 904.241 852.454 904.656C851.559 905.064 850.549 905.269 849.425 905.269C848 905.269 846.804 905.061 845.837 904.646C844.877 904.23 844.122 903.607 843.57 902.776C843.026 901.938 842.74 900.993 842.711 899.94ZM865.656 901.326L867.654 901.573C867.339 902.741 866.756 903.646 865.903 904.291C865.051 904.936 863.963 905.258 862.638 905.258C860.969 905.258 859.644 904.746 858.663 903.722C857.689 902.69 857.202 901.247 857.202 899.393C857.202 897.473 857.696 895.984 858.685 894.924C859.673 893.864 860.955 893.334 862.53 893.334C864.056 893.334 865.302 893.853 866.269 894.892C867.235 895.93 867.719 897.391 867.719 899.274C867.719 899.389 867.715 899.561 867.708 899.79H859.2C859.272 901.043 859.626 902.003 860.264 902.669C860.901 903.335 861.696 903.668 862.648 903.668C863.357 903.668 863.963 903.482 864.464 903.109C864.965 902.737 865.363 902.143 865.656 901.326ZM859.308 898.2H865.678C865.592 897.241 865.348 896.521 864.947 896.041C864.331 895.296 863.533 894.924 862.552 894.924C861.664 894.924 860.915 895.221 860.307 895.815C859.705 896.41 859.372 897.205 859.308 898.2ZM877.537 903.593C876.821 904.201 876.13 904.631 875.464 904.882C874.805 905.132 874.096 905.258 873.337 905.258C872.084 905.258 871.12 904.953 870.447 904.345C869.774 903.729 869.438 902.945 869.438 901.992C869.438 901.434 869.563 900.925 869.813 900.467C870.071 900.001 870.404 899.629 870.812 899.35C871.228 899.07 871.693 898.859 872.209 898.716C872.589 898.616 873.161 898.519 873.928 898.426C875.489 898.24 876.638 898.018 877.376 897.76C877.383 897.495 877.387 897.326 877.387 897.255C877.387 896.467 877.204 895.912 876.839 895.59C876.345 895.153 875.611 894.935 874.637 894.935C873.727 894.935 873.054 895.096 872.617 895.418C872.188 895.733 871.869 896.295 871.661 897.104L869.771 896.847C869.942 896.037 870.225 895.386 870.619 894.892C871.013 894.39 871.582 894.007 872.327 893.742C873.072 893.47 873.935 893.334 874.916 893.334C875.89 893.334 876.681 893.449 877.29 893.678C877.899 893.907 878.346 894.197 878.633 894.548C878.919 894.892 879.12 895.328 879.234 895.858C879.299 896.188 879.331 896.782 879.331 897.642V900.22C879.331 902.017 879.37 903.156 879.449 903.636C879.535 904.108 879.7 904.563 879.943 905H877.924C877.723 904.599 877.594 904.13 877.537 903.593ZM877.376 899.274C876.674 899.561 875.621 899.804 874.218 900.005C873.423 900.119 872.861 900.248 872.531 900.392C872.202 900.535 871.948 900.746 871.769 901.025C871.59 901.298 871.5 901.602 871.5 901.938C871.5 902.454 871.693 902.884 872.08 903.228C872.474 903.571 873.047 903.743 873.799 903.743C874.544 903.743 875.206 903.582 875.786 903.26C876.366 902.93 876.792 902.483 877.064 901.917C877.272 901.48 877.376 900.836 877.376 899.983V899.274Z" fill="black"/>
<path d="M827.968 156L834.016 140.252H836.261L842.706 156H840.332L838.495 151.23H831.91L830.181 156H827.968ZM832.512 149.533H837.851L836.207 145.172C835.706 143.847 835.333 142.758 835.09 141.906C834.889 142.916 834.606 143.919 834.241 144.914L832.512 149.533ZM848.346 154.271L848.625 155.979C848.081 156.093 847.594 156.15 847.164 156.15C846.462 156.15 845.918 156.039 845.531 155.817C845.145 155.595 844.872 155.305 844.715 154.947C844.557 154.582 844.479 153.819 844.479 152.659V146.096H843.061V144.592H844.479V141.767L846.401 140.606V144.592H848.346V146.096H846.401V152.767C846.401 153.318 846.434 153.673 846.498 153.83C846.57 153.988 846.681 154.113 846.831 154.206C846.989 154.299 847.211 154.346 847.497 154.346C847.712 154.346 847.995 154.321 848.346 154.271ZM850.204 156V140.252H852.138V156H850.204ZM862.59 154.593C861.874 155.201 861.183 155.631 860.517 155.882C859.858 156.132 859.149 156.258 858.39 156.258C857.136 156.258 856.173 155.953 855.5 155.345C854.827 154.729 854.49 153.945 854.49 152.992C854.49 152.434 854.616 151.925 854.866 151.467C855.124 151.001 855.457 150.629 855.865 150.35C856.281 150.07 856.746 149.859 857.262 149.716C857.641 149.616 858.214 149.519 858.98 149.426C860.542 149.24 861.691 149.018 862.429 148.76C862.436 148.495 862.439 148.326 862.439 148.255C862.439 147.467 862.257 146.912 861.892 146.59C861.397 146.153 860.663 145.935 859.689 145.935C858.78 145.935 858.107 146.096 857.67 146.418C857.24 146.733 856.922 147.295 856.714 148.104L854.823 147.847C854.995 147.037 855.278 146.386 855.672 145.892C856.066 145.39 856.635 145.007 857.38 144.742C858.125 144.47 858.988 144.334 859.969 144.334C860.943 144.334 861.734 144.449 862.343 144.678C862.951 144.907 863.399 145.197 863.686 145.548C863.972 145.892 864.173 146.328 864.287 146.858C864.352 147.188 864.384 147.782 864.384 148.642V151.22C864.384 153.017 864.423 154.156 864.502 154.636C864.588 155.108 864.753 155.563 864.996 156H862.977C862.776 155.599 862.647 155.13 862.59 154.593ZM862.429 150.274C861.727 150.561 860.674 150.804 859.271 151.005C858.476 151.119 857.913 151.248 857.584 151.392C857.255 151.535 857 151.746 856.821 152.025C856.642 152.298 856.553 152.602 856.553 152.938C856.553 153.454 856.746 153.884 857.133 154.228C857.527 154.571 858.1 154.743 858.852 154.743C859.596 154.743 860.259 154.582 860.839 154.26C861.419 153.93 861.845 153.483 862.117 152.917C862.325 152.48 862.429 151.836 862.429 150.983V150.274ZM867.392 156V144.592H869.132V146.214C869.97 144.961 871.18 144.334 872.763 144.334C873.45 144.334 874.08 144.459 874.653 144.71C875.233 144.953 875.667 145.276 875.953 145.677C876.24 146.078 876.44 146.554 876.555 147.105C876.626 147.464 876.662 148.09 876.662 148.985V156H874.729V149.061C874.729 148.273 874.653 147.686 874.503 147.299C874.353 146.905 874.084 146.593 873.697 146.364C873.318 146.128 872.87 146.01 872.354 146.01C871.531 146.01 870.818 146.271 870.217 146.794C869.622 147.317 869.325 148.309 869.325 149.77V156H867.392ZM883.859 154.271L884.139 155.979C883.594 156.093 883.107 156.15 882.678 156.15C881.976 156.15 881.432 156.039 881.045 155.817C880.658 155.595 880.386 155.305 880.229 154.947C880.071 154.582 879.992 153.819 879.992 152.659V146.096H878.574V144.592H879.992V141.767L881.915 140.606V144.592H883.859V146.096H881.915V152.767C881.915 153.318 881.947 153.673 882.012 153.83C882.083 153.988 882.194 154.113 882.345 154.206C882.502 154.299 882.724 154.346 883.011 154.346C883.226 154.346 883.508 154.321 883.859 154.271ZM885.771 142.476V140.252H887.705V142.476H885.771ZM885.771 156V144.592H887.705V156H885.771ZM898.104 151.821L900.005 152.068C899.797 153.379 899.264 154.407 898.404 155.151C897.552 155.889 896.503 156.258 895.257 156.258C893.696 156.258 892.439 155.749 891.486 154.732C890.541 153.708 890.068 152.244 890.068 150.339C890.068 149.107 890.272 148.029 890.681 147.105C891.089 146.182 891.708 145.491 892.539 145.032C893.377 144.567 894.286 144.334 895.268 144.334C896.507 144.334 897.52 144.649 898.308 145.279C899.095 145.902 899.6 146.79 899.822 147.943L897.942 148.233C897.763 147.467 897.445 146.891 896.986 146.504C896.535 146.117 895.987 145.924 895.343 145.924C894.369 145.924 893.577 146.275 892.969 146.977C892.36 147.671 892.056 148.774 892.056 150.285C892.056 151.818 892.349 152.931 892.937 153.626C893.524 154.321 894.29 154.668 895.235 154.668C895.994 154.668 896.628 154.435 897.137 153.97C897.645 153.504 897.967 152.788 898.104 151.821ZM907.396 148.33C907.396 145.716 908.097 143.672 909.501 142.196C910.905 140.714 912.716 139.973 914.937 139.973C916.39 139.973 917.701 140.32 918.868 141.015C920.035 141.709 920.924 142.68 921.532 143.926C922.148 145.165 922.456 146.572 922.456 148.147C922.456 149.744 922.134 151.173 921.489 152.434C920.845 153.694 919.932 154.65 918.75 155.302C917.568 155.946 916.294 156.269 914.926 156.269C913.443 156.269 912.118 155.91 910.951 155.194C909.784 154.478 908.899 153.501 908.298 152.262C907.696 151.023 907.396 149.712 907.396 148.33ZM909.544 148.362C909.544 150.26 910.052 151.757 911.069 152.853C912.093 153.941 913.375 154.485 914.915 154.485C916.483 154.485 917.772 153.934 918.782 152.831C919.799 151.728 920.308 150.163 920.308 148.137C920.308 146.855 920.089 145.738 919.652 144.785C919.223 143.826 918.589 143.084 917.751 142.562C916.92 142.032 915.986 141.767 914.947 141.767C913.472 141.767 912.201 142.275 911.134 143.292C910.074 144.302 909.544 145.992 909.544 148.362ZM932.35 151.821L934.251 152.068C934.043 153.379 933.51 154.407 932.65 155.151C931.798 155.889 930.749 156.258 929.503 156.258C927.942 156.258 926.685 155.749 925.732 154.732C924.787 153.708 924.314 152.244 924.314 150.339C924.314 149.107 924.519 148.029 924.927 147.105C925.335 146.182 925.954 145.491 926.785 145.032C927.623 144.567 928.533 144.334 929.514 144.334C930.753 144.334 931.766 144.649 932.554 145.279C933.341 145.902 933.846 146.79 934.068 147.943L932.188 148.233C932.009 147.467 931.691 146.891 931.232 146.504C930.781 146.117 930.233 145.924 929.589 145.924C928.615 145.924 927.824 146.275 927.215 146.977C926.606 147.671 926.302 148.774 926.302 150.285C926.302 151.818 926.595 152.931 927.183 153.626C927.77 154.321 928.536 154.668 929.481 154.668C930.241 154.668 930.874 154.435 931.383 153.97C931.891 153.504 932.214 152.788 932.35 151.821ZM943.715 152.326L945.713 152.573C945.398 153.741 944.814 154.646 943.962 155.291C943.11 155.936 942.021 156.258 940.696 156.258C939.028 156.258 937.703 155.746 936.722 154.722C935.748 153.69 935.261 152.247 935.261 150.393C935.261 148.473 935.755 146.984 936.743 145.924C937.731 144.864 939.013 144.334 940.589 144.334C942.114 144.334 943.36 144.853 944.327 145.892C945.294 146.93 945.777 148.391 945.777 150.274C945.777 150.389 945.774 150.561 945.767 150.79H937.259C937.33 152.043 937.685 153.003 938.322 153.669C938.96 154.335 939.755 154.668 940.707 154.668C941.416 154.668 942.021 154.482 942.522 154.109C943.024 153.737 943.421 153.143 943.715 152.326ZM937.366 149.2H943.736C943.65 148.241 943.407 147.521 943.006 147.041C942.39 146.296 941.591 145.924 940.61 145.924C939.722 145.924 938.974 146.221 938.365 146.815C937.764 147.41 937.431 148.205 937.366 149.2ZM955.596 154.593C954.88 155.201 954.188 155.631 953.522 155.882C952.864 156.132 952.155 156.258 951.396 156.258C950.142 156.258 949.179 155.953 948.506 155.345C947.833 154.729 947.496 153.945 947.496 152.992C947.496 152.434 947.621 151.925 947.872 151.467C948.13 151.001 948.463 150.629 948.871 150.35C949.286 150.07 949.752 149.859 950.268 149.716C950.647 149.616 951.22 149.519 951.986 149.426C953.548 149.24 954.697 149.018 955.435 148.76C955.442 148.495 955.445 148.326 955.445 148.255C955.445 147.467 955.263 146.912 954.897 146.59C954.403 146.153 953.669 145.935 952.695 145.935C951.786 145.935 951.113 146.096 950.676 146.418C950.246 146.733 949.927 147.295 949.72 148.104L947.829 147.847C948.001 147.037 948.284 146.386 948.678 145.892C949.072 145.39 949.641 145.007 950.386 144.742C951.131 144.47 951.993 144.334 952.975 144.334C953.949 144.334 954.74 144.449 955.349 144.678C955.957 144.907 956.405 145.197 956.691 145.548C956.978 145.892 957.178 146.328 957.293 146.858C957.357 147.188 957.39 147.782 957.39 148.642V151.22C957.39 153.017 957.429 154.156 957.508 154.636C957.594 155.108 957.758 155.563 958.002 156H955.982C955.782 155.599 955.653 155.13 955.596 154.593ZM955.435 150.274C954.733 150.561 953.68 150.804 952.276 151.005C951.481 151.119 950.919 151.248 950.59 151.392C950.26 151.535 950.006 151.746 949.827 152.025C949.648 152.298 949.559 152.602 949.559 152.938C949.559 153.454 949.752 153.884 950.139 154.228C950.533 154.571 951.105 154.743 951.857 154.743C952.602 154.743 953.265 154.582 953.845 154.26C954.425 153.93 954.851 153.483 955.123 152.917C955.331 152.48 955.435 151.836 955.435 150.983V150.274ZM960.397 156V144.592H962.138V146.214C962.976 144.961 964.186 144.334 965.769 144.334C966.456 144.334 967.086 144.459 967.659 144.71C968.239 144.953 968.673 145.276 968.959 145.677C969.245 146.078 969.446 146.554 969.561 147.105C969.632 147.464 969.668 148.09 969.668 148.985V156H967.734V149.061C967.734 148.273 967.659 147.686 967.509 147.299C967.358 146.905 967.09 146.593 966.703 146.364C966.324 146.128 965.876 146.01 965.36 146.01C964.537 146.01 963.824 146.271 963.223 146.794C962.628 147.317 962.331 148.309 962.331 149.77V156H960.397Z" fill="black"/>
</svg>
